<svg width="56" height="56" viewBox="0 0 56 56" fill="none" xmlns="http://www.w3.org/2000/svg">
<rect width="56" height="56" rx="8" fill="#E6FFED"/>
<path d="M27 18L34.298 20.28C34.5015 20.3435 34.6794 20.4705 34.8057 20.6423C34.932 20.8141 35.0001 21.0218 35 21.235V23H37C37.2652 23 37.5196 23.1054 37.7071 23.2929C37.8946 23.4804 38 23.7348 38 24V32C38 32.2652 37.8946 32.5196 37.7071 32.7071C37.5196 32.8946 37.2652 33 37 33L33.78 33.001C33.393 33.511 32.923 33.961 32.38 34.331L27 38L21.62 34.332C20.8125 33.7815 20.1518 33.042 19.6951 32.1779C19.2385 31.3138 18.9999 30.3513 19 29.374V21.235C19.0001 21.0219 19.0683 20.8145 19.1946 20.6429C19.3208 20.4713 19.4986 20.3445 19.702 20.281L27 18ZM27 20.094L21 21.97V29.374C20.9999 29.9862 21.1402 30.5903 21.4104 31.1397C21.6805 31.6892 22.0731 32.1692 22.558 32.543L22.747 32.679L27 35.58L30.782 33H26C25.7348 33 25.4804 32.8946 25.2929 32.7071C25.1054 32.5196 25 32.2652 25 32V24C25 23.7348 25.1054 23.4804 25.2929 23.2929C25.4804 23.1054 25.7348 23 26 23H33V21.97L27 20.094ZM27 28V31H36V28H27ZM27 26H36V25H27V26Z" fill="#27B04B"/>
</svg>
