<svg width="56" height="56" viewBox="0 0 56 56" fill="none" xmlns="http://www.w3.org/2000/svg">
<rect width="56" height="56" rx="8" fill="#E6FFED"/>
<path d="M24.965 34C24.8461 34.8343 24.4302 35.5977 23.7937 36.1499C23.1571 36.7022 22.3427 37.0063 21.5 37.0063C20.6573 37.0063 19.8429 36.7022 19.2063 36.1499C18.5698 35.5977 18.1539 34.8343 18.035 34H17V22C17 21.7348 17.1054 21.4804 17.2929 21.2929C17.4804 21.1054 17.7348 21 18 21H32C32.2652 21 32.5196 21.1054 32.7071 21.2929C32.8946 21.4804 33 21.7348 33 22V24H36L39 28.056V34H36.965C36.8461 34.8343 36.4302 35.5977 35.7937 36.1499C35.1571 36.7022 34.3427 37.0063 33.5 37.0063C32.6573 37.0063 31.8429 36.7022 31.2063 36.1499C30.5698 35.5977 30.1539 34.8343 30.035 34H24.965ZM31 23H19V31.05C19.3946 30.6472 19.8806 30.3457 20.4168 30.1711C20.9529 29.9966 21.5233 29.9541 22.0794 30.0474C22.6355 30.1407 23.1608 30.3669 23.6106 30.7069C24.0604 31.0469 24.4215 31.4905 24.663 32H30.337C30.505 31.647 30.73 31.326 31 31.05V23ZM33 29H37V28.715L34.992 26H33V29ZM33.5 35C33.898 35 34.2796 34.8419 34.561 34.5605C34.8424 34.2791 35.0005 33.8975 35.0005 33.4995C35.0005 33.1015 34.8424 32.7199 34.561 32.4385C34.2796 32.1571 33.898 31.999 33.5 31.999C33.102 31.999 32.7204 32.1571 32.439 32.4385C32.1576 32.7199 31.9995 33.1015 31.9995 33.4995C31.9995 33.8975 32.1576 34.2791 32.439 34.5605C32.7204 34.8419 33.102 35 33.5 35ZM23 33.5C23 33.303 22.9612 33.108 22.8858 32.926C22.8104 32.744 22.6999 32.5786 22.5607 32.4393C22.4214 32.3001 22.256 32.1896 22.074 32.1142C21.892 32.0388 21.697 32 21.5 32C21.303 32 21.108 32.0388 20.926 32.1142C20.744 32.1896 20.5786 32.3001 20.4393 32.4393C20.3001 32.5786 20.1896 32.744 20.1142 32.926C20.0388 33.108 20 33.303 20 33.5C20 33.8978 20.158 34.2794 20.4393 34.5607C20.7206 34.842 21.1022 35 21.5 35C21.8978 35 22.2794 34.842 22.5607 34.5607C22.842 34.2794 23 33.8978 23 33.5Z" fill="#27B04B"/>
</svg>
