<svg width="56" height="56" viewBox="0 0 56 56" fill="none" xmlns="http://www.w3.org/2000/svg">
<rect width="56" height="56" rx="8" fill="#E6FFED"/>
<path d="M28 23C30.1217 23 32.1566 23.8429 33.6569 25.3432C35.1571 26.8435 36 28.8783 36 31C36 33.1218 35.1571 35.1566 33.6569 36.6569C32.1566 38.1572 30.1217 39 28 39C25.8783 39 23.8434 38.1572 22.3431 36.6569C20.8429 35.1566 20 33.1218 20 31C20 28.8783 20.8429 26.8435 22.3431 25.3432C23.8434 23.8429 25.8783 23 28 23ZM28 25C26.4087 25 24.8826 25.6322 23.7574 26.7574C22.6321 27.8826 22 29.4087 22 31C22 32.5913 22.6321 34.1174 23.7574 35.2427C24.8826 36.3679 26.4087 37 28 37C29.5913 37 31.1174 36.3679 32.2426 35.2427C33.3679 34.1174 34 32.5913 34 31C34 29.4087 33.3679 27.8826 32.2426 26.7574C31.1174 25.6322 29.5913 25 28 25ZM28 26.5L29.323 29.18L32.28 29.61L30.14 31.695L30.645 34.641L28 33.25L25.355 34.64L25.86 31.695L23.72 29.609L26.677 29.179L28 26.5ZM34 18V21L32.637 22.138C31.5059 21.5446 30.2711 21.1749 29 21.049V18H34ZM27 17.999V21.049C25.7293 21.1747 24.4948 21.5441 23.364 22.137L22 21V18L27 17.999Z" fill="#27B04B"/>
</svg>
