<svg width="198" height="267" viewBox="0 0 198 267" fill="none" xmlns="http://www.w3.org/2000/svg">
<g clip-path="url(#clip0_39_286)">
<path d="M136.081 174.142L148.096 170.667L162.994 165.036L174.828 158.614C174.828 158.614 175.861 157.588 174.411 156.311C172.961 155.034 166.528 158.605 166.528 158.605L161.432 160.508C161.432 160.508 157.143 160.856 157.377 160.456C157.612 160.056 164.279 156.824 164.279 156.824L175.644 150.637C175.644 150.637 178.856 148.977 177.858 146.848C177.38 145.84 176.2 145.232 174.021 146.075C171.841 146.917 168.403 149.073 167.17 149.55C165.938 150.028 158.923 153.209 158.923 153.209L173.465 143.233C173.465 143.233 178.205 140.409 176.686 138.41C175.167 136.412 172.275 138.61 170.609 139.279C168.942 139.948 159.817 145.762 156.266 147.378C153.21 148.768 153.948 147.613 153.948 147.613L162.586 142.277C166.389 139.922 169.28 137.585 166.806 136.038C165.182 135.03 157.881 138.923 157.881 138.923L147.098 144.954L141.958 147.23L146.238 143.389C148.283 141.885 149.899 139.872 150.927 137.55C152.429 133.839 149.39 133.718 149.39 133.718L131.792 145.762C129.057 148.151 125.827 159.665 125.827 159.665L91.9069 173.273L105.989 193.894L136.081 174.142Z" fill="#FFBF9D"/>
<path d="M141.515 146.856C141.515 146.856 141.741 147.048 142.045 147.473C142.478 148.071 142.847 148.712 143.148 149.385C144.173 151.623 144.541 154.107 144.207 156.546C143.874 158.985 142.853 161.279 141.264 163.158C140.793 163.728 140.266 164.249 139.692 164.714C139.491 164.898 139.263 165.051 139.015 165.166C138.963 165.096 139.883 164.41 141.012 162.959C142.501 161.082 143.458 158.839 143.783 156.464C144.108 154.09 143.79 151.672 142.861 149.463C142.167 147.778 141.455 146.856 141.515 146.856Z" fill="#FF9A6C"/>
<path d="M140.595 99.8623C140.864 98.6197 142.123 97.8897 143.2 97.1424C145.047 95.8016 146.492 93.9799 147.379 91.875C148.265 89.7702 148.558 87.4626 148.227 85.2027C147.815 82.9398 146.802 80.8296 145.295 79.094C143.787 77.3585 141.839 76.0616 139.657 75.3399C138.541 75.0999 137.475 74.6677 136.506 74.0625C134.283 72.3245 135.004 68.9008 134.153 66.2417C132.417 60.6108 124.143 59.4985 121.191 54.3542C119.394 51.2172 119.993 47.4024 120.158 43.7788C120.323 40.1551 119.628 35.958 116.433 34.2201C114.697 33.2555 112.57 33.1947 110.894 32.1606C107.421 30.0316 107.578 25.2088 106.301 21.4027C104.287 15.4329 97.4199 11.4356 91.0821 12.5392C91.0821 12.5392 93.6085 7.13417 86.9321 4.36214C78.8319 1.0166 78.3197 6.66492 74.6125 3.14558C72.5617 1.31606 69.9619 0.220082 67.2214 0.0297698C64.4808 -0.160543 61.7547 0.565585 59.4712 2.09413C58.0908 3.07606 56.9187 4.34477 55.3994 5.13553C53.5501 6.0914 51.3883 6.18699 49.322 6.63016C41.5691 8.30728 35.5091 15.7022 35.5351 23.4622L86.4459 110.203C88.1823 118.45 83.0513 122.151 90.2747 126.783C91.7853 127.748 102.629 130.615 104.418 130.919C106.649 131.302 111.997 131.493 114.063 130.598C118.552 128.66 125.35 125.714 127.086 121.256C129.528 122.279 132.227 122.519 134.811 121.943C137.395 121.367 139.737 120.004 141.515 118.041C143.164 116.038 144.123 113.555 144.25 110.963C144.376 108.37 143.664 105.806 142.219 103.651C141.385 102.487 140.3 101.235 140.595 99.8623Z" fill="#263238"/>
<path d="M36.4641 36.4966L35.7608 30.5529L71.7214 20.3511C82.9037 18.1439 96.2044 28.0676 98.0016 39.0601C99.9984 51.2779 101.952 66.2763 101.361 75.557C100.172 94.3007 85.9511 97.9765 85.9511 97.9765L89.2415 129.807L88.6772 137.993L53.0726 106.883L36.4641 36.4966Z" fill="#FFBF9D"/>
<path d="M94.3378 54.3715C94.4012 54.9954 94.2161 55.6191 93.8227 56.1072C93.4293 56.5953 92.8594 56.9084 92.2368 56.9784C91.9345 57.032 91.6247 57.0253 91.325 56.9585C91.0254 56.8918 90.7419 56.7663 90.491 56.5894C90.24 56.4125 90.0265 56.1877 89.8627 55.9278C89.6989 55.668 89.5881 55.3782 89.5367 55.0753C89.4755 54.4532 89.6603 53.8319 90.0514 53.3446C90.4426 52.8572 91.0089 52.5427 91.6291 52.4684C91.9319 52.4135 92.2427 52.4193 92.5433 52.4855C92.844 52.5516 93.1285 52.6769 93.3804 52.8539C93.6324 53.0309 93.8467 53.2561 94.0111 53.5166C94.1754 53.7771 94.2865 54.0677 94.3378 54.3715Z" fill="#263238"/>
<path d="M94.7806 47.2633C94.5028 47.6022 92.5406 46.4465 89.9361 46.6898C87.3315 46.9331 85.543 48.4278 85.2305 48.0975C85.0742 47.9759 85.326 47.3937 86.0987 46.7246C87.1594 45.8504 88.4623 45.3227 89.8319 45.2126C91.1988 45.0717 92.5753 45.3667 93.7648 46.0555C94.5809 46.5768 94.9108 47.1156 94.7806 47.2633Z" fill="#263238"/>
<path d="M70.5059 56.6568C70.5693 57.2807 70.3842 57.9045 69.9908 58.3926C69.5974 58.8807 69.0275 59.1937 68.4049 59.2637C68.1014 59.3186 67.79 59.3124 67.4889 59.2457C67.1878 59.179 66.9029 59.0531 66.6508 58.8752C66.3988 58.6973 66.1846 58.471 66.0207 58.2095C65.8568 57.948 65.7465 57.6566 65.6961 57.352C65.6328 56.7281 65.8179 56.1044 66.2113 55.6163C66.6046 55.1282 67.1745 54.8151 67.7972 54.7451C68.1005 54.6915 68.4115 54.6985 68.7122 54.7657C69.0129 54.8329 69.2973 54.9589 69.5491 55.1366C69.8009 55.3143 70.015 55.5401 70.1793 55.801C70.3435 56.0619 70.4545 56.3528 70.5059 56.6568Z" fill="#263238"/>
<path d="M69.1949 50.105C68.9258 50.4352 66.955 49.2795 64.3504 49.5315C61.7459 49.7835 59.9574 51.2694 59.6448 50.9392C59.4972 50.8088 59.7403 50.2266 60.513 49.5575C61.5771 48.6891 62.8782 48.1621 64.2462 48.0455C65.6013 47.9258 66.9601 48.2294 68.1358 48.9145C69.0039 49.4185 69.3339 49.9486 69.1949 50.105Z" fill="#263238"/>
<path d="M80.5162 68.1015C80.5162 67.9624 82.0789 67.5366 84.6748 66.9631C85.3347 66.8414 85.9511 66.6503 86.0205 66.1984C86.015 65.5157 85.7931 64.8524 85.3867 64.3041L82.9298 59.5334C79.457 52.738 76.9566 47.1331 77.2344 47.0028C77.5122 46.8725 80.5249 52.2775 83.9542 59.0902L86.3244 63.8869C86.8165 64.6292 87.0288 65.5224 86.9234 66.407C86.849 66.6412 86.723 66.8557 86.5547 67.0346C86.3864 67.2136 86.1801 67.3525 85.9511 67.441C85.5926 67.5727 85.2194 67.6602 84.8398 67.7017C82.1744 68.0841 80.5335 68.2492 80.5162 68.1015Z" fill="#263238"/>
<path d="M85.9511 98.0288C76.8659 99.0042 67.6849 97.5437 59.3496 93.7969C59.3496 93.7969 67.1113 106.753 86.498 103.26L85.9511 98.0288Z" fill="#FF9A6C"/>
<path d="M68.8911 40.0683C68.7001 40.7809 66.0608 40.694 63.0395 41.337C60.0182 41.98 57.6219 43.0228 57.1618 42.4319C56.9447 42.1538 57.3094 41.4673 58.247 40.694C59.5081 39.7467 60.9644 39.0928 62.5099 38.7802C64.0554 38.4675 65.6511 38.5038 67.1807 38.8865C68.3528 39.2341 68.9692 39.7294 68.8911 40.0683Z" fill="#263238"/>
<path d="M93.0963 39.9727C92.6883 40.5896 90.839 40.1551 88.6772 40.3289C86.5154 40.5027 84.7269 41.0849 84.2407 40.5201C84.0324 40.242 84.2407 39.6511 85.0047 39.0168C86.0032 38.2431 87.2161 37.797 88.4775 37.7394C89.7502 37.6518 91.0193 37.955 92.1152 38.6084C92.9574 39.1037 93.2699 39.6859 93.0963 39.9727Z" fill="#263238"/>
<path d="M98.7048 25.3651C93.9673 20.2583 87.7159 16.8099 80.8721 15.5283L50.4333 20.3424L42.307 25.3477C41.6385 23.6098 41.2044 22.4888 41.2044 22.4888C38.2005 20.5684 30.0829 16.6927 23.502 23.6967C21.1231 26.2254 19.3694 32.7601 19.4909 36.1143C19.543 37.3917 19.7514 38.9298 18.6227 39.6771C18.2072 39.9091 17.755 40.0678 17.2857 40.1463C9.60221 42.0494 4.49724 50.2699 6.60695 57.4041C6.78488 57.8635 6.86759 58.3543 6.85004 58.8466C6.63165 59.6029 6.18977 60.2754 5.58248 60.7758C3.87056 62.6471 2.80939 65.0224 2.55746 67.5471C2.30553 70.0718 2.87636 72.6104 4.18469 74.7836C5.05288 76.1218 6.14681 77.3905 6.49408 78.8765C7.1105 81.579 5.08761 84.0903 3.55091 86.4539C-1.08524 93.5273 -1.65825 103.547 4.58406 109.551C6.08603 111.011 7.99606 112.288 8.63852 114.218C8.87849 115.175 8.98944 116.16 8.96843 117.146C9.19416 122.134 12.337 127.574 17.6504 128.443C20.6109 128.912 24.1184 128 26.3323 129.903C27.1643 130.805 27.8472 131.835 28.3552 132.953C30.7774 136.985 36.5422 139.035 41.2218 137.445C45.9013 135.855 48.94 130.963 48.0024 126.435C53.6543 124.263 57.4136 118.484 56.8406 112.836C56.8406 112.836 53.498 95.4565 54.9479 90.5989C56.3978 85.7413 52.4302 75.8264 50.2249 70.9949C48.0197 66.1634 49.7214 54.6582 49.9992 50.0961C49.9585 48.7861 49.7514 47.4867 49.3828 46.2291C49.105 45.1342 48.7577 43.9003 48.3583 42.5795C48.191 41.3693 48.0896 40.1509 48.0545 38.9298C47.8982 34.637 52.3954 31.3697 56.8666 32.5515C57.9537 32.8423 59.0754 32.9826 60.2005 32.9686C61.9812 32.9484 63.7351 32.5325 65.3357 31.751C66.9362 30.9696 68.3433 29.8421 69.4554 28.45C71.7531 30.4128 74.5072 31.7655 77.4642 32.3835C80.4212 33.0016 83.486 32.8651 86.3765 31.9867C88.9029 34.9412 91.4728 37.9391 94.7459 40.1811C98.0189 42.423 102.143 43.8742 106.163 43.292C105.868 36.6227 103.226 30.2726 98.7048 25.3651Z" fill="#263238"/>
<path d="M95.7617 31.37C95.7096 31.37 95.7617 30.6922 95.6054 29.493C95.3553 27.7745 94.7267 26.133 93.7648 24.6876C92.3414 22.4771 90.1921 20.833 87.6875 20.0386C86.1189 19.5519 84.4678 19.3903 82.8347 19.5636C81.2017 19.7369 79.6211 20.2415 78.1894 21.0466L77.9724 21.1683L77.7987 20.9858C76.5398 19.636 75.0745 18.495 73.4578 17.6055C69.9431 15.7034 65.9002 15.0132 61.9542 15.6416C58.7328 16.1818 55.726 17.6113 53.2723 19.7692C51.6327 21.1973 50.2649 22.9108 49.2352 24.8266C48.5233 26.1822 48.2628 26.9991 48.2021 26.9817C48.2287 26.776 48.2812 26.5746 48.3583 26.3821C48.5394 25.8141 48.7598 25.2595 49.0182 24.7224C49.9837 22.7262 51.325 20.9352 52.9684 19.4477C55.4471 17.1955 58.5107 15.6895 61.8066 15.1028C65.9111 14.3974 70.1334 15.0921 73.7964 17.0754C75.4732 17.9872 76.9942 19.1606 78.3023 20.5513L77.9116 20.4991C79.4183 19.6559 81.0822 19.132 82.7999 18.96C84.5175 18.7881 86.2522 18.9719 87.8958 19.4998C90.5107 20.3453 92.7372 22.0991 94.1729 24.4443C95.1166 25.9521 95.6935 27.6605 95.8572 29.4322C95.9007 29.9033 95.9007 30.3775 95.8572 30.8486C95.8051 31.2049 95.7877 31.37 95.7617 31.37Z" fill="#455A64"/>
<path d="M8.43883 60.1592C10.908 59.9612 13.3545 59.5425 15.749 58.9079C21.4589 57.285 26.5344 53.9488 30.2912 49.3492L30.9424 48.5237L31.0292 48.4107H31.1768C34.2938 48.1471 37.2718 47.0019 39.7632 45.1086C41.7903 43.6064 43.4645 41.6785 44.6685 39.4603C45.7328 37.4191 46.4071 35.197 46.6567 32.9082C46.6567 32.9082 46.6567 33.0733 46.6567 33.3861C46.6632 33.8511 46.6341 34.3159 46.5698 34.7765C46.3432 36.4794 45.8202 38.1293 45.0245 39.6514C43.8428 41.9605 42.1575 43.9741 40.0931 45.5431C37.5268 47.5418 34.4347 48.7496 31.1942 49.019L31.4199 48.8973L30.7601 49.7663C28.687 52.3558 26.1634 54.549 23.311 56.2401C20.9813 57.6411 18.4644 58.7032 15.8358 59.3945C14.0672 59.8679 12.2548 60.1591 10.427 60.2635C9.77584 60.2635 9.27229 60.2635 8.9337 60.2635C8.76473 60.2517 8.5982 60.2166 8.43883 60.1592Z" fill="#455A64"/>
<path d="M12.7624 112.723C13.1142 113.019 13.4887 113.286 13.8824 113.523C14.3677 113.794 14.8876 113.999 15.4278 114.131C16.1645 114.301 16.9243 114.348 17.6764 114.27C18.5981 114.177 19.4877 113.88 20.281 113.401C21.2312 112.828 21.9664 111.958 22.3733 110.924C22.8375 109.75 22.9373 108.463 22.6598 107.231C22.3619 105.84 21.5689 104.605 20.4286 103.755L20.0987 103.521H20.5067C22.7689 103.485 24.9805 102.846 26.914 101.67C29.0028 100.361 30.7807 98.6114 32.1231 96.5429C32.4965 96.0216 32.7916 95.4394 33.1302 94.8745C33.4688 94.3097 33.7293 93.7014 33.9984 93.0757C34.5139 91.8233 34.8895 90.5177 35.1184 89.1827C35.5769 86.3869 35.6354 83.54 35.292 80.7276C34.7348 76.5463 33.8642 72.4128 32.6875 68.3622V68.2492L32.783 68.1884C36.8862 65.3138 40.2341 61.4888 42.5414 57.0394C43.5395 55.1555 44.3535 53.1796 44.9724 51.1391C45.2155 50.1745 45.528 49.2621 45.6669 48.3584C45.7537 47.9065 45.8406 47.4894 45.9274 47.0376C46.0142 46.5857 46.0316 46.1686 46.0923 45.7689C46.4237 43.1725 46.4237 40.5445 46.0923 37.9481C45.9968 37.0791 45.8145 36.3492 45.7451 35.8799C45.7017 35.654 45.6756 35.4802 45.6496 35.3412C45.6235 35.2021 45.6496 35.1587 45.6496 35.1587C45.6496 35.1587 45.9187 36.1233 46.2226 37.9307C46.605 40.5211 46.6459 43.1505 46.3441 45.7515C46.292 46.1686 46.266 46.6204 46.1879 47.0376C46.1097 47.4547 46.0229 47.9065 45.9361 48.3671C45.7972 49.2361 45.4933 50.2006 45.2589 51.1739C44.6462 53.2347 43.835 55.2312 42.8366 57.135C40.5044 61.6528 37.1036 65.531 32.9305 68.4317L33 68.2579C34.1865 72.3291 35.0544 76.4867 35.5959 80.6929C35.9422 83.5346 35.8779 86.4115 35.4049 89.2349C35.1755 90.5942 34.794 91.9234 34.2676 93.1974C34.0332 93.8318 33.7032 94.4227 33.3994 95.0222C33.0881 95.6189 32.7461 96.199 32.3749 96.7602C30.9946 98.8717 29.1655 100.652 27.0182 101.974C25.052 103.154 22.8078 103.79 20.5154 103.816L20.5935 103.582C21.7765 104.466 22.5974 105.751 22.9029 107.197C23.1877 108.474 23.0756 109.808 22.5817 111.02C22.3681 111.553 22.0722 112.048 21.7048 112.489C21.3349 112.898 20.908 113.252 20.4373 113.54C19.606 114.033 18.6738 114.33 17.7111 114.409C16.9428 114.477 16.1685 114.418 15.4191 114.235C14.8749 114.087 14.3525 113.868 13.865 113.584C13.5606 113.413 13.2778 113.205 13.0229 112.967C12.8406 112.81 12.7624 112.723 12.7624 112.723Z" fill="#455A64"/>
<path d="M117.154 123.394C117.209 123.343 117.27 123.3 117.336 123.264L117.892 122.916C118.192 122.732 118.481 122.531 118.76 122.317C119.162 122.051 119.548 121.761 119.915 121.448C122.321 119.448 124.247 116.933 125.549 114.087C126.455 112.113 127.041 110.007 127.286 107.848C127.563 105.347 127.327 102.816 126.591 100.41C125.782 97.7084 124.426 95.2029 122.606 93.0496C120.638 90.6872 118.155 88.8084 115.348 87.5577L115.131 87.4621L115.305 87.2883C117.887 84.6965 119.645 81.3978 120.358 77.8078C120.602 76.6418 120.727 75.4538 120.731 74.2624C120.746 73.0956 120.639 71.9305 120.41 70.7865C120.197 69.6567 119.866 68.5526 119.42 67.4931C118.997 66.454 118.473 65.4587 117.857 64.5212C115.57 60.9698 112.158 58.2893 108.168 56.909L108.012 56.8568L108.081 56.7091C109.785 53.1466 110.173 49.0949 109.175 45.2734C108.386 42.3271 106.789 39.6604 104.565 37.5743C103.135 36.217 101.482 35.1174 99.6772 34.3244C99.0521 34.0463 98.5572 33.8638 98.2186 33.7508L97.8453 33.6205C97.7585 33.6205 97.7151 33.6031 97.7151 33.5684C98.3985 33.7341 99.0666 33.9579 99.7119 34.2375C101.546 35.0075 103.231 36.096 104.687 37.4527C106.948 39.5389 108.578 42.2185 109.392 45.1865C110.428 49.0623 110.053 53.1806 108.333 56.8047L108.246 56.6048C112.315 57.988 115.8 60.6995 118.144 64.3039C118.769 65.2619 119.301 66.2774 119.732 67.3367C120.186 68.4137 120.526 69.5349 120.748 70.6822C120.98 71.8524 121.09 73.0434 121.078 74.2363C121.071 75.4548 120.937 76.6692 120.679 77.8599C119.956 81.5148 118.164 84.8721 115.53 87.5055L115.478 87.2361C118.329 88.5151 120.848 90.4328 122.841 92.841C124.681 95.025 126.049 97.5664 126.86 100.305C127.594 102.751 127.825 105.32 127.537 107.857C127.272 110.038 126.665 112.164 125.74 114.157C124.408 117.018 122.439 119.536 119.984 121.517C119.606 121.827 119.212 122.118 118.803 122.386C118.527 122.597 118.237 122.788 117.935 122.96L117.371 123.29L117.154 123.394Z" fill="#455A64"/>
<path d="M73.4925 72.5156C75.9224 72.8736 78.3008 73.5212 80.577 74.4447V74.5056C80.3599 76.1479 79.9432 77.9815 78.5627 78.8504C78.0327 79.1786 77.4263 79.3624 76.8034 79.3837C76.1806 79.4051 75.563 79.2632 75.0118 78.9721C74.4834 78.7015 74.0229 78.3147 73.6651 77.8406C73.3072 77.3666 73.0612 76.8176 72.9455 76.2348C72.8365 74.9694 73.0238 73.6959 73.4925 72.5156Z" fill="#FF9A6C"/>
<path d="M77.1389 79.2068C77.1389 79.2068 76.9479 79.4066 76.4965 79.4762C75.8416 79.5548 75.1791 79.4142 74.6125 79.0764C73.7462 78.61 73.0908 77.8297 72.7806 76.8953C72.4387 75.7619 72.4387 74.5528 72.7806 73.4194C72.8608 73.1036 72.9682 72.7954 73.1018 72.4983C73.1828 72.3714 73.2991 72.2708 73.4363 72.2091C73.5736 72.1473 73.7259 72.1271 73.8745 72.1507C74.0241 72.1834 74.1719 72.224 74.3173 72.2724L75.8453 72.6982L78.4499 73.4716C79.2656 73.6395 80.0504 73.9326 80.7766 74.3405C79.9382 74.3544 79.1029 74.2341 78.3023 73.9843L75.6977 73.376L74.1523 72.9849L73.7096 72.9936C73.7096 73.0545 73.7096 72.8372 73.7096 72.8633C73.7096 72.8893 73.7964 72.9936 73.7964 72.9936C73.7085 73.224 73.6332 73.459 73.5706 73.6975C73.2981 74.6841 73.2981 75.7262 73.5706 76.7128C73.8012 77.5001 74.3024 78.1803 74.9858 78.6333C75.6399 79.0125 76.3831 79.2105 77.1389 79.2068Z" fill="#263238"/>
<path d="M25.4207 268H128.944L126.504 226.75L122.841 177.271C122.147 167.938 118.89 158.98 113.429 151.384L105.564 140.417L95.8311 127.383L89.8319 115.634L52.6646 100.427L48.0718 109.916C48.0718 109.916 42.663 113.801 39.1989 116.764C32.4617 122.525 28.5201 130.111 26.2802 138.636C26.2519 138.718 26.2287 138.803 26.2107 138.888C24.0403 147.256 25.7332 159.352 25.7332 159.352L38.0876 218.807C33.7887 227.494 30.6395 236.705 28.7198 246.206C28.1902 248.848 26.532 259.38 25.4207 268Z" fill="#27B04B"/>
<path d="M91.4728 121.821C91.1221 121.371 90.8303 120.877 90.6046 120.353L88.5556 116.164H89.0766C87.9566 118.928 86.5675 122.36 85.0047 126.201L84.8571 126.566L84.4838 126.418L78.6062 124.029C72.5288 121.561 67.1026 119.275 63.1697 117.59L58.5162 115.574C57.931 115.351 57.3744 115.059 56.8579 114.705C57.4709 114.819 58.0683 115.006 58.6377 115.261L63.3781 117.042C67.3631 118.589 72.8587 120.787 78.9013 123.255L84.7703 125.671L84.2494 125.888L88.5556 115.939L88.8161 115.33L89.0766 115.93C89.8058 117.668 90.4136 119.058 90.9171 120.223C91.169 120.73 91.3557 121.267 91.4728 121.821Z" fill="#008523"/>
<path d="M88.8856 242.087C88.2958 242.052 87.7126 241.944 87.1492 241.766C86.0032 241.514 84.3796 241.079 82.3828 240.48C77.1801 238.917 72.0919 236.994 67.1547 234.727C62.2214 232.45 57.4496 229.837 52.8729 226.906C51.1366 225.777 49.7388 224.83 48.8098 224.134C48.2994 223.81 47.8276 223.428 47.4033 222.996C47.9683 223.216 48.5023 223.508 48.9921 223.865L53.1855 226.411C57.8288 229.163 62.6101 231.675 67.5107 233.936C72.3932 236.19 77.3891 238.188 82.4783 239.924L87.1579 241.453C87.7567 241.596 88.3366 241.809 88.8856 242.087Z" fill="#008523"/>
<path opacity="0.3" d="M29.8571 160.125C29.8571 160.125 48.9574 212.525 55.2084 222.014C61.4594 231.503 64.5849 234.179 74.1697 232.554C83.7545 230.929 125.784 217.087 125.784 217.087L125.176 208.501L86.2463 216.739L63.7861 212.125L43.2794 180.512L29.8571 160.125Z" fill="black"/>
<path d="M111.667 180.512L109.549 177.036L99.2691 179.486L83.7285 182.962C83.7285 182.962 74.6646 130.346 61.6417 121.891C48.6188 113.436 39.0687 114.939 31.0553 129.842C23.0418 144.745 27.3568 153.417 27.3568 153.417C27.3568 153.417 48.1239 211.438 61.6417 223.326C75.1594 235.214 119.811 212.82 119.811 212.82L128.857 205.303L111.667 180.512Z" fill="#27B04B"/>
<path d="M111.667 180.512C111.781 180.639 111.888 180.773 111.988 180.911L112.856 182.137C113.646 183.24 114.784 184.848 116.251 186.916L129.048 205.164L129.17 205.338L129.005 205.477L119.984 213.02C112.248 216.813 104.259 220.065 96.0742 222.752C91.3745 224.301 86.5697 225.509 81.6969 226.367C79.1141 226.805 76.5023 227.049 73.8832 227.097C71.1419 227.188 68.4052 226.809 65.7916 225.976C65.1244 225.756 64.4768 225.48 63.8556 225.151L62.9179 224.647C62.6227 224.447 62.3449 224.23 62.0497 224.012C61.4775 223.597 60.9559 223.116 60.4957 222.579L59.0284 221.041C58.1602 219.963 57.292 218.79 56.4238 217.66C55.5556 216.531 54.8611 215.271 54.0623 214.071C50.9994 209.05 48.2056 203.87 45.693 198.552C40.4838 187.75 35.6653 176.219 31.0292 164.279C29.6314 160.656 28.2683 157.067 27.0008 153.556C25.8413 150.373 25.4922 146.95 25.985 143.598C26.4266 140.349 27.3027 137.175 28.5896 134.161C29.8068 131.193 31.3223 128.357 33.1129 125.697C34.817 123.02 37.0221 120.697 39.6069 118.858C42.2113 117.067 45.3327 116.184 48.4885 116.347C51.5155 116.601 54.4642 117.442 57.1705 118.823C58.4728 119.51 59.7751 120.179 60.9905 120.97C62.2552 121.7 63.4025 122.617 64.3938 123.689C66.2195 125.822 67.7765 128.172 69.03 130.685C71.3606 135.396 73.3256 140.279 74.9076 145.292C76.4704 150.072 77.7727 154.703 78.8927 159.126C81.15 167.981 82.7908 175.976 84.0063 182.893L83.7285 182.71L99.599 179.234L109.583 176.94H109.644V176.992L111.198 179.599C111.537 180.181 111.684 180.468 111.684 180.468C111.684 180.468 111.485 180.207 111.12 179.599L109.488 176.992H109.592L99.6424 179.443L83.7806 183.205L83.5375 183.266V183.014C82.2699 176.132 80.5856 168.146 78.3283 159.326C77.1823 154.912 75.8627 150.297 74.2912 145.544C72.7045 140.572 70.7395 135.73 68.4136 131.058C67.1544 128.615 65.6035 126.333 63.7948 124.263C62.8481 123.234 61.7503 122.355 60.5391 121.656C59.341 120.883 58.0647 120.222 56.7798 119.553C54.1706 118.232 51.3325 117.424 48.4191 117.172C45.4334 117.027 42.4829 117.87 40.0237 119.571C37.5294 121.356 35.4038 123.607 33.764 126.201C32.009 128.816 30.5226 131.602 29.3275 134.517C28.0792 137.466 27.2324 140.57 26.8098 143.745C26.3538 146.94 26.6876 150.199 27.7822 153.235C29.041 156.71 30.3867 160.325 31.8019 163.94C36.4294 175.863 41.2044 187.403 46.4136 198.16C48.8956 203.47 51.6604 208.642 54.6961 213.654C55.4775 214.845 56.1807 216.087 57.0229 217.217C57.865 218.347 58.6724 219.485 59.558 220.545L60.9732 222.031C61.4301 222.55 61.9458 223.014 62.5099 223.413C62.779 223.613 63.0395 223.821 63.3173 224.004L64.1855 224.482C64.7744 224.793 65.3869 225.057 66.0174 225.272C68.5421 226.074 71.1836 226.444 73.8311 226.367C76.4179 226.328 78.998 226.092 81.5493 225.663C86.3921 224.829 91.1681 223.644 95.8398 222.118C104.007 219.48 111.984 216.287 119.715 212.559H119.663L128.718 205.078V205.39C123.301 197.509 119.038 191.304 116.103 187.046L112.804 182.197C112.448 181.659 112.179 181.25 111.936 180.946C111.833 180.81 111.743 180.664 111.667 180.512Z" fill="#008523"/>
<path d="M76.4009 209.501C76.2968 209.501 76.1058 207.954 76.1578 205.425C76.2591 202.126 76.7368 198.849 77.5817 195.658C78.4217 192.465 79.6278 189.38 81.176 186.464C81.7469 185.205 82.4954 184.035 83.3986 182.988C83.5114 183.058 82.7561 184.413 81.6622 186.681C78.9077 192.58 77.2317 198.926 76.7135 205.416C76.6989 206.783 76.5945 208.148 76.4009 209.501Z" fill="#008523"/>
<path d="M119.811 212.777C119.767 212.777 119.359 212.446 118.665 211.742C117.97 211.039 116.998 210.005 115.826 208.666C112.775 205.214 109.989 201.536 107.491 197.665C104.974 193.795 102.934 189.634 101.414 185.274C100.961 183.953 100.587 182.607 100.294 181.242C100.149 180.751 100.075 180.241 100.077 179.729C100.215 179.729 100.728 181.806 101.978 185.074C103.636 189.326 105.716 193.402 108.185 197.239C110.694 201.073 113.416 204.764 116.338 208.293C117.58 209.72 118.74 211.217 119.811 212.777Z" fill="#008523"/>
<path d="M155.849 181.389L167.856 177.913L182.763 172.283L194.588 165.861C194.588 165.861 195.621 164.835 194.171 163.558C192.721 162.281 186.288 165.852 186.288 165.852L181.201 167.746C181.201 167.746 176.86 168.103 177.146 167.703C177.433 167.303 184.039 164.071 184.039 164.071L195.413 157.884C195.413 157.884 198.616 156.224 197.627 154.095C197.149 153.078 195.968 152.479 193.789 153.322C191.61 154.164 188.163 156.319 186.939 156.797C185.715 157.275 178.683 160.456 178.683 160.456L193.225 150.48C193.225 150.48 197.974 147.656 196.455 145.649C194.935 143.641 192.044 145.857 190.377 146.517C188.71 147.178 179.586 153 176.026 154.616C172.979 156.007 173.708 154.851 173.708 154.851L182.347 149.515C186.158 147.161 189.049 144.823 186.566 143.276C184.951 142.26 177.65 146.161 177.65 146.161L166.867 152.192L161.727 154.469L166.007 150.628C168.052 149.123 169.668 147.11 170.695 144.788C172.197 141.078 169.15 140.956 169.15 140.956L151.56 153C148.826 155.39 145.596 166.904 145.596 166.904L111.658 179.99L126.096 200.846L155.849 181.389Z" fill="#FFBF9D"/>
<path d="M155.849 181.389L155.346 181.737L153.852 182.745L148.044 186.594L126.174 201.019L126.07 201.098L125.992 200.985L111.528 180.129L111.406 179.955L111.606 179.877L145.535 166.764L145.414 166.895C146.073 164.583 146.837 162.211 147.74 159.813C148.2 158.622 148.678 157.414 149.242 156.232C149.78 155 150.519 153.866 151.43 152.878L169.037 140.773L169.098 140.73H169.167C169.722 140.766 170.249 140.983 170.669 141.347C170.874 141.543 171.037 141.777 171.15 142.037C171.263 142.296 171.324 142.576 171.329 142.859C171.278 143.941 170.962 144.995 170.409 145.926C169.361 147.846 167.906 149.513 166.146 150.81L161.883 154.677L161.64 154.303C163.255 153.591 165.017 152.817 166.78 152.027L175.896 146.934C177.449 146.028 179.052 145.21 180.697 144.484C181.565 144.119 182.364 143.771 183.232 143.476C184.109 143.139 185.037 142.951 185.976 142.92C186.222 142.92 186.464 142.982 186.679 143.102C186.873 143.221 187.054 143.361 187.217 143.519C187.398 143.681 187.538 143.884 187.625 144.111C187.713 144.337 187.745 144.581 187.721 144.823C187.655 145.277 187.465 145.703 187.174 146.057C186.916 146.4 186.625 146.718 186.305 147.004C185.036 148.094 183.671 149.065 182.225 149.906L173.864 155.077L173.934 155.007C173.621 155.207 174.403 155.094 174.854 154.903C175.36 154.719 175.856 154.507 176.339 154.269C177.32 153.791 178.275 153.269 179.221 152.73C181.114 151.662 182.972 150.558 184.821 149.454C185.75 148.916 186.67 148.368 187.59 147.821C188.51 147.266 189.458 146.758 190.429 146.3C191.376 145.9 192.296 145.327 193.32 144.971C193.837 144.766 194.389 144.665 194.944 144.675C195.233 144.685 195.516 144.753 195.779 144.874C196.041 144.994 196.277 145.166 196.472 145.379C196.682 145.589 196.834 145.85 196.915 146.136C196.995 146.422 197.001 146.724 196.932 147.013C196.782 147.548 196.505 148.04 196.125 148.446C195.425 149.235 194.618 149.922 193.729 150.489C191.992 151.636 190.343 152.8 188.667 153.964L178.848 160.664L178.639 160.299L185.064 157.458C186.123 156.971 187.182 156.589 188.163 156.007C189.144 155.424 190.16 154.92 191.15 154.382C192.137 153.831 193.168 153.363 194.232 152.983C194.791 152.796 195.38 152.717 195.968 152.748C196.268 152.764 196.561 152.841 196.831 152.972C197.101 153.103 197.342 153.287 197.54 153.513C197.735 153.741 197.88 154.007 197.968 154.294C198.057 154.581 198.085 154.883 198.052 155.181C197.965 155.757 197.701 156.291 197.297 156.71C196.924 157.125 196.498 157.487 196.029 157.788C195.56 158.092 195.083 158.318 194.623 158.579C190.881 160.595 187.287 162.585 183.77 164.444C181.991 165.313 180.237 166.182 178.561 167.051C178.159 167.26 177.77 167.496 177.398 167.755C177.398 167.755 177.398 167.755 177.398 167.712C177.403 167.699 177.406 167.686 177.406 167.672C177.406 167.659 177.403 167.646 177.398 167.633H177.519H177.849H178.544C179.473 167.633 180.402 167.564 181.313 167.494H181.27L186.366 165.6C188.044 164.662 189.813 163.896 191.645 163.315C192.093 163.183 192.552 163.09 193.017 163.037C193.506 162.953 194.008 163.059 194.423 163.332C194.793 163.63 195.066 164.033 195.204 164.488C195.263 164.727 195.262 164.977 195.2 165.215C195.137 165.453 195.017 165.672 194.848 165.852L183.015 172.248L168.099 177.844L158.879 180.546L156.596 181.189L155.823 181.389L156.579 181.146L158.853 180.468L167.813 177.861L182.702 172.196L194.519 165.756C194.648 165.613 194.741 165.439 194.787 165.251C194.834 165.063 194.834 164.867 194.788 164.679C194.668 164.278 194.425 163.925 194.093 163.671C193.74 163.453 193.319 163.376 192.912 163.454C192.469 163.506 192.03 163.596 191.601 163.723C189.793 164.301 188.047 165.06 186.392 165.991L181.296 167.894H181.253C180.332 167.964 179.412 168.024 178.466 168.033C178.223 168.033 177.988 168.033 177.745 168.033C177.62 168.027 177.495 168.012 177.372 167.99C177.297 167.978 177.224 167.958 177.155 167.929C177.127 167.915 177.101 167.897 177.077 167.877C177.038 167.833 177.014 167.778 177.007 167.72C177.007 167.564 177.068 167.573 177.094 167.538C177.494 167.24 177.918 166.975 178.362 166.747C180.098 165.878 181.834 165.009 183.571 164.14C187.043 162.281 190.672 160.282 194.397 158.257C194.857 157.996 195.343 157.762 195.777 157.484C196.216 157.201 196.616 156.862 196.967 156.476C197.317 156.114 197.548 155.653 197.627 155.155C197.654 154.908 197.631 154.657 197.557 154.419C197.483 154.182 197.36 153.962 197.197 153.774C197.034 153.586 196.833 153.434 196.608 153.328C196.383 153.222 196.139 153.163 195.89 153.156C195.361 153.135 194.831 153.208 194.328 153.374C193.29 153.751 192.286 154.213 191.324 154.755L188.337 156.38C187.339 156.954 186.245 157.371 185.203 157.849L178.796 160.699L178.596 160.343L188.398 153.565C190.065 152.426 191.74 151.253 193.451 150.089C194.305 149.54 195.081 148.88 195.76 148.125C196.088 147.767 196.331 147.339 196.472 146.874C196.528 146.656 196.525 146.427 196.464 146.21C196.403 145.993 196.286 145.796 196.125 145.64C195.482 144.884 194.388 144.979 193.433 145.344C192.478 145.709 191.567 146.213 190.56 146.665C188.684 147.534 186.861 148.725 185.012 149.793C183.163 150.862 181.305 152.009 179.403 153.078C178.457 153.617 177.493 154.147 176.495 154.634C175.998 154.879 175.488 155.097 174.967 155.285C174.686 155.387 174.395 155.46 174.099 155.503C174.002 155.525 173.902 155.527 173.804 155.507C173.707 155.488 173.615 155.448 173.534 155.39C173.481 155.343 173.439 155.283 173.415 155.216C173.391 155.15 173.384 155.078 173.395 155.007C173.413 154.905 173.452 154.807 173.508 154.72H173.56L181.921 149.55C183.339 148.72 184.682 147.766 185.932 146.7C186.23 146.436 186.503 146.145 186.748 145.831C186.993 145.545 187.153 145.195 187.208 144.823C187.229 144.648 187.206 144.47 187.141 144.306C187.075 144.142 186.97 143.997 186.835 143.884C186.701 143.752 186.553 143.635 186.392 143.537C186.236 143.458 186.064 143.416 185.889 143.415C184.997 143.448 184.116 143.63 183.284 143.954C182.416 144.241 181.609 144.58 180.784 144.945C179.152 145.665 177.561 146.475 176.017 147.369L166.901 152.47L161.822 154.677L160.529 155.251L161.588 154.312C163.055 152.983 164.531 151.705 165.868 150.471C167.571 149.213 168.981 147.6 170.001 145.744C170.516 144.881 170.813 143.906 170.869 142.902C170.87 142.677 170.825 142.453 170.737 142.246C170.649 142.038 170.52 141.85 170.357 141.695C170.013 141.402 169.583 141.228 169.133 141.199H169.263L151.665 153.243C150.794 154.195 150.087 155.284 149.572 156.467C149.017 157.632 148.539 158.822 148.079 160.012C147.211 162.393 146.412 164.766 145.752 167.051V167.155H145.657L111.71 180.19L111.788 179.938L126.2 200.854L126.009 200.811L147.957 186.49L153.8 182.693L155.311 181.719L155.849 181.389Z" fill="#FF9A6C"/>
</g>
<defs>
<clipPath id="clip0_39_286">
<rect width="198" height="268" fill="white"/>
</clipPath>
</defs>
</svg>
