<svg width="200" height="266" viewBox="0 0 200 266" fill="none" xmlns="http://www.w3.org/2000/svg">
<g clip-path="url(#clip0_39_316)">
<path d="M65.5936 147.275C65.7095 148.23 57.0282 171.871 57.0282 171.871L44.9208 127.785L28.179 131.296C28.179 131.296 32.7141 192.217 35.6271 200.451C38.7885 209.242 57.1027 215.825 67.3729 203.896C70.3439 200.484 79.6624 178.719 79.6624 178.719L65.5936 147.275Z" fill="#A26760"/>
<path d="M44.9208 127.785C44.9208 127.785 46.9567 122.314 45.3429 117.591C43.7291 112.868 38.2588 109.199 38.5981 106.36C38.9375 103.521 36.0409 96.7142 33.4175 97.2288C30.7941 97.7435 28.8659 100.325 31.0755 104.7C32.4929 107.558 33.664 110.532 34.5761 113.59C34.5761 113.59 7.26617 99.4784 5.07309 99.1795C2.88002 98.8807 0.620741 98.5985 0.0414387 100.358C-0.537864 102.118 4.90758 104.376 4.90758 104.376L12.2316 113.847C13.4497 117.46 15.1626 120.885 17.3212 124.024C20.466 128.249 26.6645 131.072 26.6645 131.072L34.6175 140.576C34.6175 140.576 46.6753 136.484 44.9208 127.785Z" fill="#A26760"/>
<path d="M5.371 104.758C5.371 104.758 5.611 104.592 6.04133 104.393C6.64765 104.118 7.32388 104.036 7.97786 104.161C9.63301 104.459 11.7433 105.871 13.473 107.863C14.9237 109.627 16.16 111.558 17.1557 113.615C17.5283 114.498 18.0033 115.334 18.5708 116.106C18.3901 115.153 18.0752 114.23 17.6357 113.366C16.759 111.197 15.5561 109.176 14.0688 107.373C12.2399 105.289 9.99714 103.845 8.07717 103.638C7.32264 103.543 6.55921 103.722 5.92547 104.144C5.46203 104.451 5.3379 104.733 5.371 104.758Z" fill="#7B4B45"/>
<path d="M15.3681 108.294C15.2605 108.477 17.0232 109.664 19.2908 110.959C21.5583 112.254 23.4866 113.15 23.5942 112.976C23.7018 112.802 21.939 111.606 19.6632 110.311C17.3874 109.016 15.4674 108.12 15.3681 108.294Z" fill="#7B4B45"/>
<path d="M29.7927 114.379C29.8838 114.204 27.7321 113.482 25.208 114.379C22.6839 115.275 21.4011 117.076 21.5832 117.159C21.7653 117.242 23.139 115.831 25.448 115.084C27.7569 114.337 29.7927 114.603 29.7927 114.379Z" fill="#7B4B45"/>
<path d="M96.6938 105.264L106.145 101.164L138.652 101.994L150.859 107.14L153.341 138.451C153.341 138.451 107.113 154.954 106.931 154.954C106.749 154.954 79.4058 128.05 79.4058 128.05L96.6938 105.264Z" fill="#A26760"/>
<path d="M85.7037 123.742C88.232 124.542 90.8046 125.193 93.4084 125.693C106.707 128.676 120.572 127.882 133.446 123.402L145.976 119.036C145.976 119.036 166.665 160.54 167.038 161.976C167.41 163.413 149.046 267 149.046 267H75.4418L77.2376 207.466C77.2376 207.466 75.9962 152.754 76.2031 152.14L85.7037 123.742Z" fill="#263238"/>
<path d="M105.276 97.3037L95.7255 104.069C88.3767 106.41 75.3176 110.884 71.3535 114.819C65.3784 120.762 57.5164 160.698 57.5164 160.698C57.5164 160.698 56.1426 157.27 53.0227 157.27L31.6299 190.922C31.6299 190.922 33.7981 208.512 38.9622 210.354C44.1263 212.197 58.3192 211.184 58.5261 211.184H67.3977L64.0874 266.909L81.334 266.983L82.0623 205.033L85.2402 166.442L94.1531 130.483L105.276 97.3037Z" fill="#27B04B"/>
<path d="M69.4253 138.468C69.4698 138.718 69.4919 138.97 69.4915 139.224L69.5908 141.382C69.6653 143.266 69.7398 145.981 69.7977 149.343C69.9218 156.058 69.9218 165.347 69.6156 175.59C69.3094 185.833 68.7467 195.114 68.2253 201.813C67.9688 205.133 67.7288 207.872 67.5467 209.74C67.4474 210.637 67.3729 211.351 67.315 211.89C67.298 212.142 67.262 212.391 67.2074 212.637C67.1836 212.386 67.1836 212.133 67.2074 211.882C67.2074 211.342 67.2901 210.628 67.3481 209.724C67.4722 207.798 67.6543 205.1 67.8777 201.788C68.3081 195.089 68.8129 185.817 69.1191 175.574C69.4253 165.33 69.4749 156.058 69.4418 149.343C69.4418 146.022 69.4418 143.316 69.3922 141.39C69.3922 140.485 69.3922 139.73 69.3922 139.224C69.3838 138.971 69.3949 138.719 69.4253 138.468Z" fill="#008523"/>
<path d="M69.2101 135.563C68.607 134.079 68.155 132.539 67.8611 130.964C67.4263 129.427 67.149 127.85 67.0336 126.257C67.639 127.737 68.0911 129.275 68.3825 130.848C68.8184 132.387 69.0957 133.967 69.2101 135.563Z" fill="#008523"/>
<g opacity="0.3">
<path d="M69.5163 140.195C69.4253 140.635 69.3425 141.066 69.2515 141.506C64.9067 163.255 64.6419 189.204 67.4143 211.234C68.2419 211.342 71.2377 143.582 69.4253 140.676" fill="black"/>
</g>
<path d="M189.374 130.167C187.272 121.617 182.356 117.55 182.356 117.55L160.839 145.549L168.916 266.925H199.967L196.417 205.307C196.417 205.307 191.476 138.717 189.374 130.167Z" fill="#27B04B"/>
<path d="M180.064 124.664L184.276 119.368C178.26 113.489 171.141 108.868 163.33 105.771C157.272 103.471 147.995 99.2795 147.995 99.2795L141.333 91.0366L139.719 114.827C139.719 114.827 138.544 167.38 137.717 176.902C136.889 186.033 127.339 227.737 127.463 267L173.923 266.925L163.595 205.864C163.595 205.864 167.816 166.949 168.08 165.679C168.345 164.409 180.064 124.664 180.064 124.664Z" fill="#27B04B"/>
<path d="M182.348 124.34C182.455 124.423 179.087 128.49 174.834 133.413C170.58 138.335 167.046 142.253 166.947 142.17C166.847 142.087 170.207 138.02 174.461 133.097C178.715 128.175 182.249 124.249 182.348 124.34Z" fill="#008523"/>
<path d="M88.6084 137.796C88.5714 137.663 88.5465 137.526 88.534 137.389C88.534 137.073 88.4595 136.683 88.4015 136.202L87.9629 131.719L88.2195 131.802C85.1607 135.304 82.4655 139.109 80.1754 143.158L79.6624 144.071L79.7451 143.025C80.5378 132.353 83.8541 122.023 89.4195 112.893C90.7932 110.502 92.0015 108.626 92.8373 107.331L93.8304 105.862C93.9378 105.684 94.0626 105.517 94.2028 105.364C94.12 105.553 94.0232 105.737 93.9132 105.912C93.6732 106.302 93.3753 106.808 93.0029 107.431C92.1753 108.759 91.0581 110.66 89.6926 113.059C86.1219 119.258 83.4495 125.935 81.7561 132.89C80.9934 136.229 80.4679 139.619 80.1837 143.033L79.7534 142.901C82.0769 138.837 84.8322 135.038 87.9712 131.57L88.2112 131.321V131.661C88.3436 133.537 88.4429 135.048 88.5174 136.152C88.5174 136.642 88.5174 137.032 88.5753 137.347C88.6098 137.494 88.6209 137.645 88.6084 137.796Z" fill="#008523"/>
<path d="M49.6545 206.959C49.695 206.797 49.7562 206.641 49.8366 206.495L50.4242 205.208C50.689 204.652 51.0118 203.971 51.3428 203.166C51.6738 202.361 52.1042 201.464 52.4848 200.435C52.8655 199.406 53.3124 198.293 53.7262 197.073C54.14 195.853 54.5538 194.533 54.9758 193.147C55.8334 190.121 56.5269 187.05 57.0531 183.949C57.5448 180.843 57.8653 177.711 58.013 174.569C58.013 173.116 58.1124 171.739 58.0793 170.419C58.0462 169.099 58.0213 167.928 57.9634 166.833C57.9055 165.737 57.8227 164.741 57.7565 163.878C57.6903 163.014 57.6158 162.217 57.5331 161.645C57.4503 161.072 57.4255 160.607 57.3841 160.242C57.3621 160.076 57.3621 159.909 57.3841 159.744C57.4378 159.9 57.4739 160.061 57.4917 160.225C57.5579 160.59 57.6324 161.055 57.7234 161.628C57.8144 162.201 57.9386 162.981 58.0213 163.853C58.1041 164.724 58.2448 165.712 58.2944 166.808C58.3441 167.903 58.4517 169.115 58.4599 170.41C58.4682 171.705 58.4599 173.092 58.4599 174.561C58.3295 177.72 58.0173 180.868 57.5248 183.991C56.9982 187.109 56.2908 190.194 55.4062 193.23C54.9676 194.624 54.5786 195.952 54.1152 197.164C53.6517 198.376 53.2379 199.505 52.8159 200.485C52.3938 201.464 51.9883 202.402 51.6159 203.199C51.2435 203.996 50.9125 204.668 50.6228 205.216L49.9607 206.47C49.8784 206.645 49.7756 206.809 49.6545 206.959Z" fill="#008523"/>
<path d="M147.995 99.2793C148.033 99.5041 148.05 99.732 148.045 99.96C148.045 100.45 148.045 101.106 148.103 101.927C148.103 103.679 148.169 106.136 148.21 109.157C148.277 115.267 148.351 123.701 148.31 133.023C148.31 135.114 148.288 137.154 148.243 139.14C148.243 140.128 148.243 141.108 148.152 142.071C148.152 142.311 148.152 142.544 148.103 142.793V142.984C148.109 143.022 148.109 143.062 148.103 143.1C148.104 143.122 148.104 143.144 148.103 143.166L148.045 143.216C148.005 143.231 147.961 143.231 147.921 143.216C147.885 143.224 147.849 143.224 147.813 143.216C147.686 143.151 147.569 143.067 147.466 142.967C147.11 142.643 146.787 142.303 146.472 141.971C143.99 139.265 141.813 136.7 139.935 134.5L140.224 134.417C139.653 138.02 139.181 140.958 138.85 143.05C138.685 144.038 138.553 144.818 138.453 145.399L138.337 146.014C138.33 146.085 138.313 146.154 138.288 146.221C138.275 146.15 138.275 146.077 138.288 146.005C138.288 145.839 138.288 145.632 138.354 145.383C138.428 144.802 138.536 144.013 138.66 143.017C138.958 140.925 139.38 137.978 139.893 134.367L139.943 134.01L140.175 134.284C142.07 136.468 144.255 139.024 146.754 141.697C147.068 142.029 147.391 142.361 147.73 142.668L147.937 142.834C147.937 142.834 147.937 142.901 147.937 142.992C147.937 143.083 147.854 142.934 147.772 142.942V142.892V142.726C147.772 142.502 147.772 142.27 147.821 142.029C147.821 141.075 147.888 140.103 147.904 139.116C147.904 137.132 147.904 135.09 147.962 133.006C147.962 123.709 147.962 115.292 147.962 109.149C147.962 106.128 147.962 103.662 147.962 101.911C147.962 101.081 147.962 100.433 147.962 99.9434C147.954 99.7215 147.965 99.4993 147.995 99.2793Z" fill="#008523"/>
<path d="M166.947 148.413C166.952 148.507 166.952 148.601 166.947 148.695C166.947 148.902 166.947 149.176 166.947 149.525C166.947 150.28 166.856 151.351 166.789 152.721C166.624 155.527 166.4 159.552 166.119 164.533C165.507 174.552 164.663 188.415 163.719 203.929V203.88C163.943 205.199 164.191 206.602 164.431 208.03C167.22 224.3 169.744 239.034 171.581 249.717C172.475 255.038 173.236 259.355 173.7 262.36C173.931 263.837 174.122 264.991 174.254 265.805C174.304 266.178 174.353 266.477 174.387 266.701C174.398 266.803 174.398 266.906 174.387 267.008L174.312 266.709C174.271 266.485 174.213 266.195 174.138 265.821C173.989 264.991 173.782 263.862 173.509 262.393C172.971 259.388 172.202 255.08 171.258 249.775C169.388 239.092 166.823 224.366 163.984 208.105C163.736 206.685 163.496 205.282 163.272 203.954V203.904C164.274 188.39 165.159 174.527 165.805 164.516C166.144 159.536 166.417 155.518 166.632 152.712C166.74 151.343 166.814 150.28 166.872 149.525L166.947 148.695C166.935 148.601 166.935 148.506 166.947 148.413Z" fill="#008523"/>
<path d="M95.1132 19.3579C87.723 19.5156 81.3755 30.4148 82.4679 36.5243C83.0058 39.5043 84.363 42.9326 81.9299 45.1407C79.4969 47.3487 74.4818 47.1412 72.1645 49.3907C72.1645 49.3907 69.2267 52.2961 69.5411 56.0315C69.8556 59.7669 69.2515 64.8139 66.2308 66.1504L81.2348 71.4879C82.7823 69.9356 83.403 67.4868 84.9506 65.9262C83.1796 67.5864 81.4582 73.3971 89.4857 74.028L94.4511 69.6617C108.098 73.1481 122.448 77.4895 133.347 71.6041" fill="#263238"/>
<path d="M164.638 52.0139C163.653 49.1999 162.039 46.5934 161.327 43.713C159.863 37.4623 162.809 30.3401 159.672 24.7453C157.421 20.7691 152.737 18.8765 148.31 17.6148C143.882 16.353 139.661 15.5727 136.326 12.4516C133.844 10.1522 132.453 6.93976 130.012 4.62379C126.536 1.29511 121.471 0.249193 116.688 0.0416688C111.723 -0.174156 106.658 0.390309 102.263 2.63156C97.869 4.87282 94.2607 8.99009 93.5656 13.8378C93.218 16.2036 93.5656 18.6773 92.8456 20.9601C92.0677 23.4503 90.1311 25.4509 88.956 27.8083C87.7676 30.3339 87.4601 33.1868 88.083 35.9088C88.7058 38.6307 90.2229 41.0636 92.3904 42.8165L127.016 85.5995C134.175 88.1396 141.97 79.1165 147.366 73.8122C152.762 68.5079 167.17 59.1444 164.638 52.0139Z" fill="#263238"/>
<path d="M93.1684 37.7528C94.3849 27.8747 101.725 16.1039 111.615 17.7309L142.235 27.3351C145.239 27.8332 146.853 30.2155 146.613 33.2288L140.299 106.576C140.373 106.576 139.537 107.755 139.604 107.771C139.67 107.788 131.328 128.349 111.16 120.787C107.163 119.293 105.367 120.679 104.804 116.089C103.927 115.74 99.7641 114.296 99.789 113.781L105.292 97.3038C105.574 91.2939 105.756 89.476 105.748 89.5258C105.739 89.5756 93.1104 87.1434 91.447 70.4336C90.6029 62.1742 91.8608 48.7266 93.1684 37.7528Z" fill="#A26760"/>
<path d="M117.325 51.9637C117.291 52.519 117.474 53.0659 117.836 53.4877C118.197 53.9095 118.709 54.1728 119.262 54.2216C119.531 54.26 119.804 54.2444 120.067 54.1756C120.33 54.1068 120.576 53.9862 120.792 53.8208C121.008 53.6554 121.188 53.4486 121.323 53.2124C121.459 52.9762 121.545 52.7154 121.579 52.4452C121.614 51.8889 121.431 51.3411 121.069 50.918C120.708 50.4948 120.196 50.2298 119.643 50.179C119.373 50.1417 119.099 50.1585 118.837 50.2282C118.574 50.298 118.328 50.4195 118.112 50.5855C117.896 50.7515 117.716 50.9589 117.581 51.1954C117.446 51.432 117.359 51.6932 117.325 51.9637Z" fill="#263238"/>
<path d="M96.0483 51.4163C96.0094 51.9713 96.1899 52.5193 96.5507 52.9419C96.9116 53.3644 97.4238 53.6275 97.9765 53.6741C98.2453 53.7126 98.5191 53.697 98.7818 53.6282C99.0445 53.5594 99.2909 53.4387 99.5066 53.2734C99.7223 53.108 99.903 52.9012 100.038 52.665C100.173 52.4288 100.26 52.168 100.294 51.8977C100.331 51.3432 100.149 50.7963 99.7888 50.3743C99.4284 49.9522 98.9174 49.6886 98.3655 49.6399C98.0966 49.6002 97.8224 49.615 97.5593 49.6833C97.2961 49.7517 97.0493 49.8722 96.8333 50.0378C96.6173 50.2033 96.4366 50.4106 96.3018 50.6474C96.167 50.8841 96.0808 51.1456 96.0483 51.4163Z" fill="#263238"/>
<path d="M95.1711 44.8249C95.4111 45.2068 97.3724 43.9284 99.8634 44.2439C102.354 44.5593 104.001 46.2195 104.299 45.9041C104.448 45.7629 104.241 45.074 103.546 44.3269C102.619 43.3553 101.385 42.7363 100.054 42.5754C98.7246 42.4195 97.3831 42.7368 96.2635 43.4719C95.3614 44.0696 95.0138 44.6672 95.1711 44.8249Z" fill="#263238"/>
<path d="M117.905 46.9335C118.203 47.2822 120.131 45.8378 122.804 45.9042C125.477 45.9706 127.397 47.4316 127.695 47.0913C127.844 46.9418 127.546 46.311 126.71 45.6303C125.588 44.7639 124.219 44.2809 122.804 44.2523C121.4 44.2233 120.027 44.6612 118.898 45.4975C118.054 46.1532 117.756 46.7758 117.905 46.9335Z" fill="#263238"/>
<path d="M108.917 62.6389C108.917 62.506 107.518 62.1823 105.226 61.7507C104.639 61.6593 104.092 61.5099 104.018 61.1032C104.011 60.5119 104.184 59.9326 104.514 59.443C105.143 58.065 105.814 56.6207 106.509 55.1099C109.29 48.9423 111.342 43.8538 111.094 43.7459C110.845 43.638 108.412 48.5023 105.599 54.6783L103.67 59.0445C103.259 59.723 103.103 60.527 103.232 61.3107C103.307 61.52 103.427 61.7098 103.585 61.8663C103.742 62.0229 103.933 62.1422 104.142 62.2155C104.465 62.3179 104.798 62.3847 105.135 62.4147C107.452 62.6721 108.901 62.7634 108.917 62.6389Z" fill="#263238"/>
<path d="M105.731 89.5255C113.556 90.1015 121.388 88.5107 128.373 84.9268C128.373 84.9268 122.059 96.6975 105.491 94.1823L105.731 89.5255Z" fill="#7B4B45"/>
<path d="M117.979 39.1641C118.169 39.8032 120.462 39.6372 123.16 40.1187C125.858 40.6001 127.976 41.4551 128.365 40.9488C128.539 40.6915 128.191 40.1187 127.347 39.4297C126.214 38.6279 124.915 38.0916 123.547 37.8603C122.179 37.629 120.777 37.7086 119.444 38.0933C118.426 38.4087 117.905 38.8652 117.979 39.1641Z" fill="#263238"/>
<path d="M95.8415 36.6154C96.2801 37.1632 98.1173 36.7316 100.294 36.8312C102.47 36.9308 104.291 37.4123 104.746 36.8976C104.945 36.6403 104.688 36.0675 103.919 35.5695C102.849 34.8956 101.615 34.5282 100.352 34.5069C99.0983 34.4444 97.8522 34.7318 96.7518 35.337C95.9408 35.8351 95.6594 36.3497 95.8415 36.6154Z" fill="#263238"/>
<path d="M174.486 48.8512C172.913 45.9708 175.951 42.75 173.534 40.0937C171.333 37.6616 165.531 37.6035 163.471 35.1132C161.816 33.179 161.816 32.6727 161.733 30.8631C161.667 28.5886 160.632 19.0591 146.613 17.1167L144.668 25.7829C143.791 25.3762 142.881 25.0275 141.987 24.6955C130.555 20.5418 118.674 17.7555 106.592 16.3945C105.135 18.8848 106.592 22.2052 108.876 23.9401C111.16 25.675 114.098 26.3391 116.82 27.2605C119.543 28.1819 122.357 29.7508 123.516 32.349C124.757 35.1464 123.813 38.5 124.906 41.3555C126.793 46.2613 133.769 47.7306 135.664 52.6531C137.063 56.3802 134.953 60.4062 134.473 64.3491C134.217 66.6073 134.497 68.8941 135.289 71.0232C136.081 73.1524 137.364 75.0637 139.033 76.6013C141.664 79.0003 146.15 83.3583 146.481 82.4784L183.953 59.1859C186.113 53.9563 176.646 52.8025 174.486 48.8512Z" fill="#263238"/>
<path d="M92.167 77.091C92.0471 77.1677 91.9195 77.2317 91.7863 77.2819C91.4115 77.4571 91.0242 77.6042 90.6277 77.7219C89.1459 78.1429 87.5924 78.2475 86.0678 78.029C83.8061 77.7278 81.6884 76.7467 79.9934 75.215C79.0094 74.3047 78.2161 73.207 77.6596 71.9859C77.0832 70.6746 76.7549 69.2672 76.6913 67.8354C76.5586 65.0355 77.5173 62.2937 79.3644 60.1903C80.8998 58.5006 82.9267 57.3388 85.1574 56.8699C86.657 56.5609 88.2065 56.5921 89.6925 56.9612C90.094 57.056 90.4871 57.1838 90.8677 57.343C91.004 57.3919 91.1367 57.4502 91.2649 57.5174C91.1203 57.4949 90.9787 57.4559 90.8429 57.4011C90.457 57.275 90.0648 57.1697 89.6677 57.0857C88.1972 56.7731 86.6776 56.7731 85.2071 57.0857C83.0346 57.5601 81.0642 58.7036 79.5713 60.3563C77.7767 62.4152 76.856 65.0964 77.0058 67.8271C77.0633 69.2178 77.3776 70.5857 77.9327 71.8614C78.4949 73.0572 79.2914 74.1271 80.2747 75.0074C81.9177 76.5085 83.9689 77.4852 86.1671 77.8132C87.6536 78.0377 89.1697 77.9643 90.6277 77.5973C91.0236 77.4957 91.4132 77.371 91.7946 77.2238C91.9146 77.1687 92.0392 77.1243 92.167 77.091Z" fill="#E0E0E0"/>
<path d="M166.392 69.62C166.414 69.5342 166.445 69.4508 166.483 69.371C166.587 69.1287 166.673 68.879 166.74 68.6239C167.01 67.645 167.052 66.617 166.864 65.619C166.587 64.0237 165.793 62.5648 164.605 61.4685C163.863 60.7934 162.972 60.3041 162.006 60.0407C160.98 59.7502 159.838 59.6589 158.696 59.2604C158.084 59.0681 157.52 58.7485 157.041 58.3224C156.557 57.86 156.186 57.2919 155.956 56.6623C155.512 55.3671 155.348 53.9917 155.476 52.628C155.645 51.2234 155.681 49.8059 155.584 48.3945C155.488 47.6619 155.246 46.9563 154.872 46.3193C154.468 45.6785 153.928 45.1345 153.292 44.7255C151.881 43.9607 150.354 43.4335 148.773 43.1649C147.09 42.8444 145.475 42.235 143.998 41.3636C143.253 40.8744 142.633 40.2178 142.186 39.4461C141.759 38.6698 141.463 37.8285 141.308 36.9558C140.969 35.196 140.969 33.3947 140.63 31.6349C140.286 29.9176 139.513 28.3163 138.382 26.9817C137.251 25.647 135.801 24.6231 134.166 24.0063C132.558 23.5003 130.886 23.221 129.201 23.1762C128.359 23.1141 127.527 22.961 126.718 22.7197C125.926 22.4821 125.203 22.058 124.608 21.4828C123.441 20.3041 123.035 18.7352 122.522 17.3324C122.066 15.9755 121.334 14.7288 120.371 13.6716C118.599 11.7689 116.212 10.5572 113.634 10.2516C111.529 10.0338 109.409 10.4962 107.585 11.5715C106.194 12.3879 104.992 13.4914 104.059 14.8089C103.474 15.6423 103.019 16.5604 102.71 17.5316C102.623 17.7793 102.548 18.0314 102.487 18.287C102.467 18.3777 102.439 18.4666 102.404 18.5526C102.461 18.1991 102.542 17.8498 102.644 17.5067C102.934 16.5199 103.375 15.5845 103.952 14.7342C104.876 13.3838 106.082 12.2509 107.485 11.4138C109.367 10.2859 111.561 9.79682 113.742 10.0192C116.387 10.3177 118.839 11.5506 120.66 13.4973C121.655 14.5754 122.413 15.8508 122.887 17.241C123.4 18.6273 123.813 20.1547 124.914 21.2504C126.015 22.3461 127.662 22.6948 129.275 22.8359C130.98 22.8742 132.672 23.1537 134.299 23.666C135.984 24.3027 137.48 25.3604 138.645 26.7389C139.809 28.1174 140.603 29.7711 140.952 31.5436C141.292 33.3532 141.292 35.1545 141.623 36.8645C141.763 37.7127 142.043 38.5318 142.45 39.2884C142.869 40.0228 143.456 40.6462 144.163 41.1063C147.019 42.9491 150.66 42.7167 153.424 44.4765C154.088 44.9046 154.652 45.4708 155.079 46.1366C155.466 46.8114 155.716 47.5561 155.816 48.3281C155.935 49.7739 155.913 51.228 155.75 52.6695C155.616 53.998 155.769 55.3397 156.196 56.6041C156.422 57.1966 156.779 57.7302 157.239 58.1647C157.68 58.5635 158.198 58.866 158.762 59.0529C159.871 59.4431 161.021 59.551 162.072 59.883C163.064 60.166 163.977 60.6777 164.737 61.3772C165.923 62.4952 166.716 63.9691 166.996 65.5775C167.17 66.594 167.104 67.637 166.806 68.6239C166.73 68.878 166.634 69.1251 166.516 69.3627L166.392 69.62Z" fill="#455A64"/>
<path d="M117.002 66.0421C116.861 65.8279 116.655 65.6649 116.415 65.5773C116.131 65.5349 115.841 65.5843 115.587 65.7184L108.785 68.4162C108.967 72.2015 111.358 73.6624 113.154 73.6956C114.05 73.6995 114.929 73.4581 115.698 72.9973C116.466 72.5364 117.095 71.8738 117.516 71.0808C117.903 70.2756 118.061 69.3782 117.97 68.4886C117.88 67.599 117.545 66.7521 117.002 66.0421Z" fill="#7B4B45"/>
<path d="M112.203 73.5632C113.207 73.6233 114.213 73.4618 115.149 73.09C115.645 72.9011 116.099 72.6153 116.484 72.2491C116.869 71.8828 117.177 71.4435 117.391 70.9567C117.859 69.7184 117.859 68.3516 117.391 67.1133C117.191 66.5998 116.912 66.1209 116.564 65.6939L116.804 65.752C114.495 66.6817 112.409 67.4122 110.912 67.8438C110.104 68.1237 109.273 68.3293 108.429 68.4581C109.191 68.1076 109.976 67.8108 110.779 67.5699C112.252 67.0469 114.305 66.2998 116.572 65.3618L116.713 65.3037L116.812 65.4199C117.191 65.8801 117.493 66.3987 117.706 66.9556C118.226 68.29 118.226 69.7717 117.706 71.1061C117.469 71.6353 117.127 72.1102 116.7 72.5014C116.273 72.8927 115.77 73.1919 115.223 73.3805C114.51 73.6601 113.745 73.7846 112.98 73.7458C112.711 73.7416 112.446 73.6793 112.203 73.5632Z" fill="#263238"/>
</g>
<defs>
<clipPath id="clip0_39_316">
<rect width="200" height="267" fill="white"/>
</clipPath>
</defs>
</svg>
