<svg width="133" height="40" viewBox="0 0 133 40" fill="none" xmlns="http://www.w3.org/2000/svg">
<rect x="0.5" y="0.5" width="132" height="39" rx="6.25" fill="#100F0D"/>
<path d="M45.3962 25.4119H48.892L47.6405 22.0618C47.4682 21.5989 47.2989 21.0878 47.132 20.5279C46.9813 21.0232 46.817 21.5289 46.6394 22.0456L45.3962 25.4119ZM49.4893 27.0024H44.8069L43.6608 30.1347H41.6021L46.1874 18.4371H48.133L52.8234 30.1347H50.66L49.4893 27.0024Z" fill="white"/>
<path d="M58.8963 28.0075C59.3027 27.4613 59.5059 26.6633 59.5059 25.6138C59.5059 24.6399 59.3376 23.9333 59.0013 23.4946C58.6648 23.056 58.2168 22.8367 57.6571 22.8367C57.2696 22.8367 56.9117 22.9284 56.5835 23.1112C56.2552 23.2942 55.9429 23.539 55.6469 23.8458V28.512C55.8461 28.6088 56.0776 28.6856 56.3413 28.7419C56.6051 28.7987 56.8661 28.827 57.1243 28.827C57.8995 28.827 58.4899 28.5536 58.8963 28.0075ZM53.6531 23.5553C53.6531 22.9095 53.6315 22.1989 53.5885 21.424H55.4613C55.5312 21.7847 55.5797 22.1534 55.6067 22.53C56.3816 21.6852 57.2696 21.2625 58.2707 21.2625C58.852 21.2625 59.3901 21.4091 59.8853 21.7024C60.3803 21.9958 60.78 22.4586 61.084 23.0909C61.3883 23.7234 61.5403 24.5268 61.5403 25.5008C61.5403 26.518 61.3667 27.3873 61.0195 28.1083C60.6723 28.8297 60.1867 29.3757 59.5624 29.7473C58.9381 30.1184 58.2168 30.3042 57.3989 30.3042C56.8067 30.3042 56.2227 30.2046 55.6469 30.0056V33.6059L53.6531 33.7755V23.5553Z" fill="white"/>
<path d="M67.9936 28.0075C68.4 27.4613 68.6032 26.6633 68.6032 25.6138C68.6032 24.6399 68.4349 23.9333 68.0987 23.4946C67.7621 23.056 67.3141 22.8367 66.7544 22.8367C66.3669 22.8367 66.0091 22.9284 65.6808 23.1112C65.3523 23.2942 65.0403 23.539 64.7443 23.8458V28.512C64.9435 28.6088 65.1747 28.6856 65.4387 28.7419C65.7021 28.7987 65.9632 28.827 66.2216 28.827C66.9965 28.827 67.5872 28.5536 67.9936 28.0075ZM62.7501 23.5553C62.7501 22.9095 62.7285 22.1989 62.6856 21.424H64.5587C64.6285 21.7847 64.6771 22.1534 64.704 22.53C65.4789 21.6852 66.3669 21.2625 67.368 21.2625C67.9493 21.2625 68.4872 21.4091 68.9826 21.7024C69.4776 21.9958 69.8773 22.4586 70.1816 23.0909C70.4853 23.7234 70.6376 24.5268 70.6376 25.5008C70.6376 26.518 70.4637 27.3873 70.1168 28.1083C69.7696 28.8297 69.2837 29.3757 68.6597 29.7473C68.0352 30.1184 67.3141 30.3042 66.496 30.3042C65.904 30.3042 65.32 30.2046 64.7443 30.0056V33.6059L62.7501 33.7755V23.5553Z" fill="white"/>
<path d="M74.3005 29.5816C73.4392 29.1056 72.7773 28.4232 72.3147 27.5352C71.8515 26.6472 71.6203 25.5977 71.6203 24.3867C71.6203 23.0737 71.8867 21.9581 72.4195 21.0404C72.9523 20.123 73.6776 19.434 74.5949 18.9738C75.5128 18.5137 76.5419 18.2836 77.6832 18.2836C78.3557 18.2836 78.9976 18.3577 79.6085 18.5056C80.2192 18.6537 80.7882 18.8567 81.316 19.1152L80.8072 20.6489C79.7469 20.1431 78.7352 19.8901 77.772 19.8901C76.9592 19.8901 76.2475 20.0637 75.6368 20.4109C75.0259 20.7581 74.5507 21.268 74.2117 21.9407C73.8725 22.6135 73.7032 23.4261 73.7032 24.3786C73.7032 25.2131 73.8336 25.9529 74.0944 26.5987C74.3557 27.2446 74.7675 27.756 75.3299 28.1326C75.8923 28.5094 76.6013 28.6976 77.457 28.6976C77.8445 28.6976 78.232 28.6654 78.6195 28.6008C79.0069 28.5363 79.3704 28.4422 79.7093 28.3182V25.9529H77.0051V24.4029H81.6469V29.3275C80.9795 29.6395 80.2784 29.8792 79.544 30.0459C78.8091 30.2126 78.0787 30.296 77.352 30.296C76.1787 30.296 75.1613 30.0582 74.3005 29.5816Z" fill="white"/>
<path d="M87.5381 28.52C87.9523 28.3211 88.2915 28.0733 88.5552 27.7774V26.1628C88.0115 26.1037 87.5675 26.074 87.2232 26.074C86.3997 26.074 85.8304 26.2071 85.516 26.4737C85.2008 26.7398 85.0435 27.0992 85.0435 27.5512C85.0435 27.9822 85.1579 28.3008 85.3867 28.508C85.6155 28.7152 85.9261 28.8187 86.3189 28.8187C86.7171 28.8187 87.1235 28.7192 87.5381 28.52ZM88.7328 30.1347C88.6627 29.7955 88.6168 29.4109 88.5955 28.9803C88.2888 29.3464 87.8893 29.6571 87.3965 29.9128C86.9045 30.1683 86.3485 30.296 85.7296 30.296C85.2291 30.296 84.7731 30.1979 84.3611 30.0013C83.9499 29.8051 83.6227 29.509 83.3805 29.1133C83.1384 28.7179 83.0171 28.235 83.0171 27.6642C83.0171 26.8195 83.3211 26.1453 83.9293 25.6419C84.5376 25.1388 85.552 24.8873 86.9728 24.8873C87.5056 24.8873 88.0331 24.9251 88.5552 25.0003V24.8308C88.5552 24.0612 88.3909 23.519 88.0627 23.2039C87.7344 22.8894 87.2635 22.7319 86.6501 22.7319C86.2248 22.7319 85.7701 22.7938 85.2856 22.9175C84.8013 23.0414 84.376 23.1894 84.0101 23.3615L83.6952 21.9084C84.0504 21.7468 84.5187 21.5989 85.1 21.4643C85.6813 21.33 86.2947 21.2625 86.9405 21.2625C87.6941 21.2625 88.3344 21.3768 88.8619 21.6055C89.3893 21.8343 89.8011 22.2274 90.0971 22.7842C90.3931 23.3414 90.5411 24.0909 90.5411 25.0326V28.4957C90.5411 28.8565 90.5624 29.403 90.6056 30.1347H88.7328Z" fill="white"/>
<path d="M92.0709 28.0437V17.7508L94.0568 17.5894V27.6885C94.0568 28.06 94.12 28.3222 94.2464 28.4757C94.3728 28.6288 94.5733 28.7059 94.848 28.7059C94.9717 28.7059 95.1466 28.6763 95.3725 28.6171L95.6066 30.0459C95.4181 30.1213 95.1882 30.1819 94.9168 30.2275C94.6448 30.2731 94.3877 30.296 94.1456 30.296C92.7621 30.296 92.0709 29.5454 92.0709 28.0437Z" fill="white"/>
<path d="M97.0357 28.0437V17.7508L99.0216 17.5894V27.6885C99.0216 28.06 99.0848 28.3222 99.2112 28.4757C99.3378 28.6288 99.5384 28.7059 99.8128 28.7059C99.9365 28.7059 100.111 28.6763 100.338 28.6171L100.572 30.0459C100.383 30.1213 100.153 30.1819 99.8816 30.2275C99.6096 30.2731 99.3525 30.296 99.1104 30.296C97.7272 30.296 97.0357 29.5454 97.0357 28.0437Z" fill="white"/>
<path d="M106.795 24.7662C106.755 24.0719 106.581 23.5513 106.269 23.2039C105.957 22.8571 105.539 22.6833 105.019 22.6833C104.512 22.6833 104.091 22.8584 103.755 23.2081C103.419 23.5581 103.197 24.0774 103.096 24.7662H106.795ZM108.739 26.0336H103.04C103.131 27.8582 104 28.7704 105.648 28.7704C106.056 28.7704 106.475 28.7206 106.904 28.6211C107.331 28.5213 107.741 28.3883 108.133 28.2213L108.571 29.5856C107.595 30.0595 106.501 30.296 105.285 30.296C104.357 30.296 103.579 30.1213 102.944 29.7714C102.307 29.4216 101.829 28.9184 101.509 28.2616C101.19 27.6054 101.03 26.8142 101.03 25.8883C101.03 24.9251 101.199 24.0961 101.539 23.4019C101.877 22.7076 102.349 22.1776 102.955 21.8115C103.56 21.4456 104.259 21.2625 105.051 21.2625C105.875 21.2625 106.56 21.455 107.112 21.8399C107.664 22.2244 108.072 22.7373 108.339 23.3776C108.605 24.0183 108.739 24.7258 108.739 25.5008V26.0336Z" fill="white"/>
<path d="M110.248 23.6118C110.248 23.1329 110.224 22.4037 110.181 21.4241H112.048C112.08 21.6662 112.109 21.9555 112.141 22.2919C112.171 22.6282 112.189 22.9013 112.2 23.1112C112.432 22.7291 112.659 22.4076 112.883 22.1466C113.107 21.8854 113.368 21.673 113.667 21.5086C113.965 21.3446 114.304 21.2625 114.688 21.2625C114.995 21.2625 115.256 21.2949 115.477 21.3595L115.227 23.0871C115.035 23.0279 114.819 22.9982 114.581 22.9982C114.115 22.9982 113.704 23.118 113.355 23.3576C113.005 23.5969 112.632 23.9911 112.232 24.5401V30.1347H110.248V23.6118Z" fill="white"/>
<path d="M116.597 33.6987C116.307 33.6478 116.067 33.5899 115.88 33.5254L116.243 32.0723C116.376 32.1097 116.547 32.1461 116.752 32.1811C116.955 32.2163 117.149 32.2336 117.333 32.2336C118.216 32.2336 118.877 31.6656 119.317 30.5302L119.448 30.2073L116.235 21.424H118.373L119.989 26.3323C120.251 27.172 120.421 27.8152 120.496 28.2616C120.648 27.632 120.824 27.0024 121.029 26.3727L122.669 21.424H124.677L121.475 30.2478C121.173 31.0819 120.845 31.7544 120.496 32.2659C120.147 32.7771 119.733 33.1565 119.259 33.4042C118.781 33.6515 118.208 33.7755 117.533 33.7755C117.2 33.7755 116.888 33.7502 116.597 33.6987Z" fill="white"/>
<path d="M41.5933 7.30125H45.1475L45.0475 8.15965H42.6349V9.82205H44.9099V10.6263H42.6349V12.4679H45.1765L45.0891 13.3346H41.5933V7.30125Z" fill="white"/>
<path d="M47.5973 10.2554L45.7224 7.30125H46.9056L48.1765 9.47218L49.5141 7.30125H50.664L48.8056 10.2178L50.8181 13.3346H49.6181L48.1808 10.9596L46.7181 13.3346H45.5682L47.5973 10.2554Z" fill="white"/>
<path d="M54.1973 9.99485C54.4194 9.79378 54.5307 9.50951 54.5307 9.14285C54.5307 8.77058 54.4173 8.50285 54.1912 8.33885C53.9648 8.17485 53.632 8.09298 53.1933 8.09298H52.6266V10.2346C52.8877 10.2762 53.0877 10.297 53.2266 10.297C53.6514 10.297 53.9752 10.1964 54.1973 9.99485ZM51.5848 7.30125H53.2098C53.9736 7.30125 54.5584 7.45698 54.964 7.76791C55.3696 8.07911 55.5722 8.52898 55.5722 9.11778C55.5722 9.51778 55.4813 9.86738 55.2995 10.1658C55.1173 10.4644 54.864 10.6938 54.5389 10.8532C54.2141 11.0132 53.8402 11.093 53.4181 11.093C53.1877 11.093 52.9237 11.0652 52.6266 11.0095V13.3346H51.5848V7.30125Z" fill="white"/>
<path d="M56.6016 7.30125H57.6432V12.4428H60.1389L60.0514 13.3346H56.6016V7.30125Z" fill="white"/>
<path d="M64.4224 12.2991C64.7141 12.1034 64.932 11.834 65.0765 11.4908C65.221 11.1479 65.2933 10.7554 65.2933 10.3138C65.2933 9.88044 65.2293 9.49457 65.1016 9.15537C64.9736 8.81644 64.7696 8.54657 64.489 8.34497C64.2085 8.14364 63.8474 8.04284 63.4056 8.04284C62.9834 8.04284 62.6251 8.14497 62.3307 8.34924C62.0363 8.55324 61.8154 8.82711 61.6682 9.17004C61.521 9.51324 61.4474 9.89164 61.4474 10.3055C61.4474 10.7415 61.5168 11.1319 61.6557 11.4762C61.7944 11.8207 62.0069 12.093 62.2933 12.293C62.5792 12.493 62.9333 12.593 63.3557 12.593C63.7752 12.593 64.1306 12.4948 64.4224 12.2991ZM61.7224 13.0388C61.2808 12.786 60.9432 12.4311 60.7098 11.974C60.4765 11.5172 60.36 10.986 60.36 10.3804C60.36 9.74444 60.484 9.18817 60.7328 8.71164C60.9813 8.23537 61.3397 7.86737 61.8077 7.60737C62.2757 7.34791 62.8277 7.21777 63.464 7.21777C64.0723 7.21777 64.596 7.34364 65.0349 7.59484C65.4736 7.84657 65.8085 8.1999 66.0389 8.65537C66.2696 9.1111 66.3848 9.63884 66.3848 10.2388C66.3848 10.886 66.2592 11.4487 66.0077 11.9263C65.7562 12.4039 65.3981 12.7722 64.9328 13.0303C64.4675 13.2887 63.921 13.4179 63.2933 13.4179C62.6877 13.4179 62.164 13.2916 61.7224 13.0388Z" fill="white"/>
<path d="M69.1808 10.1554C69.4333 10.1554 69.6571 10.1063 69.8515 10.0074C70.0459 9.90898 70.1973 9.77005 70.3056 9.59085C70.4141 9.41165 70.4683 9.20391 70.4683 8.96791C70.4683 8.66525 70.3723 8.44365 70.1808 8.30338C69.9891 8.16311 69.7099 8.09298 69.3432 8.09298H68.5891V10.1554H69.1808ZM67.5475 7.30125H69.4349C70.1237 7.30125 70.6453 7.43885 70.9995 7.71378C71.3536 7.98871 71.5307 8.38205 71.5307 8.89298C71.5307 9.21245 71.4667 9.49378 71.3389 9.73671C71.2112 9.97991 71.0528 10.1778 70.864 10.3303C70.6749 10.4831 70.4808 10.597 70.2808 10.6722L72.1349 13.3346H70.9267L69.3557 10.9428H68.5891V13.3346H67.5475V7.30125Z" fill="white"/>
<path d="M72.96 7.30125H76.5141L76.4141 8.15965H74.0016V9.82205H76.2765V10.6263H74.0016V12.4679H76.5432L76.4557 13.3346H72.96V7.30125Z" fill="white"/>
<path d="M80.3808 7.30125H81.4224V13.3346H80.3808V7.30125Z" fill="white"/>
<path d="M84.1765 8.17218H82.3056L82.3973 7.30125H87.0933L86.9973 8.17218H85.2181V13.3346H84.1765V8.17218Z" fill="white"/>
<path d="M94.3141 12.2991C94.6056 12.1034 94.8237 11.834 94.9683 11.4908C95.1125 11.1479 95.1848 10.7554 95.1848 10.3138C95.1848 9.88044 95.1208 9.49457 94.9933 9.15537C94.8653 8.81644 94.6611 8.54657 94.3808 8.34497C94.1 8.14364 93.7389 8.04284 93.2973 8.04284C92.8749 8.04284 92.5168 8.14497 92.2224 8.34924C91.9277 8.55324 91.7069 8.82711 91.56 9.17004C91.4125 9.51324 91.3389 9.89164 91.3389 10.3055C91.3389 10.7415 91.4083 11.1319 91.5475 11.4762C91.6861 11.8207 91.8987 12.093 92.1848 12.293C92.4709 12.493 92.8251 12.593 93.2475 12.593C93.6667 12.593 94.0224 12.4948 94.3141 12.2991ZM91.6141 13.0388C91.1723 12.786 90.8349 12.4311 90.6016 11.974C90.3683 11.5172 90.2515 10.986 90.2515 10.3804C90.2515 9.74444 90.3757 9.18817 90.6245 8.71164C90.8728 8.23537 91.2312 7.86737 91.6995 7.60737C92.1675 7.34791 92.7195 7.21777 93.3557 7.21777C93.964 7.21777 94.4875 7.34364 94.9267 7.59484C95.3653 7.84657 95.7 8.1999 95.9307 8.65537C96.1611 9.1111 96.2765 9.63884 96.2765 10.2388C96.2765 10.886 96.1507 11.4487 95.8995 11.9263C95.648 12.4039 95.2896 12.7722 94.8245 13.0303C94.3592 13.2887 93.8125 13.4179 93.1848 13.4179C92.5792 13.4179 92.0557 13.2916 91.6141 13.0388Z" fill="white"/>
<path d="M97.4389 7.30125H98.6349L101.619 11.9762C101.592 11.5319 101.581 11.122 101.581 10.7471V7.30125H102.547V13.3346H101.389L98.36 8.58445C98.3904 9.12365 98.4056 9.60125 98.4056 10.0178V13.3346H97.4389V7.30125Z" fill="white"/>
<path fill-rule="evenodd" clip-rule="evenodd" d="M26.9419 7.33366H15.8635C10.6448 7.33366 8.73602 9.24246 8.73602 14.4612V25.5397C8.73602 30.7582 10.6448 32.667 15.8635 32.667H26.9384C32.1571 32.667 34.0694 30.7582 34.0694 25.5397V14.4612C34.0694 9.24246 32.1605 7.33366 26.9419 7.33366Z" fill="#C91C2E"/>
<path d="M19.7883 22.0259H20.8043L20.2947 20.8408L19.7883 22.0259ZM19.5381 22.6233L19.2368 23.3129H18.5507L20.0099 20.0026H20.6027L22.056 23.3129H21.3515L21.0539 22.6233H19.5381ZM30.5789 23.3106H31.2421V20.0026H30.5789V23.3106ZM27.9397 21.8891H29.1619V21.2863H27.9397V20.6082H29.7139V20.0047H27.2768V23.3126H29.7779V22.7092H27.9397V21.8891ZM25.3048 22.2801L24.5528 20.0025H24.0045L23.2525 22.2801L22.5208 20.004H21.8056L22.96 23.3144H23.5163L24.2693 21.14L25.0221 23.3144H25.5835L26.7349 20.004H26.0381L25.3048 22.2801ZM17.5384 21.8983C17.5384 22.4368 17.2709 22.7246 16.7853 22.7246C16.2971 22.7246 16.0283 22.4287 16.0283 21.8754V20.0044H15.3563V21.8983C15.3563 22.8301 15.8739 23.3643 16.7763 23.3643C17.6875 23.3643 18.2101 22.8199 18.2101 21.8709V20.0025H17.5384V21.8983ZM13.7528 20.0026H14.4245V23.3147H13.7528V21.9697H12.2352V23.3147H11.5632V20.0026H12.2352V21.3387H13.7528V20.0026Z" fill="white"/>
<path d="M21.4027 15.7852C19.0776 15.7852 17.1859 13.8934 17.1859 11.5683H17.7816C17.7816 13.565 19.4059 15.1894 21.4027 15.1894C23.3995 15.1894 25.0237 13.565 25.0237 11.5683H25.6195C25.6195 13.8934 23.7277 15.7852 21.4027 15.7852Z" fill="white"/>
<rect x="0.5" y="0.5" width="132" height="39" rx="6.25" stroke="#A6A6A6"/>
</svg>
