<svg width="115" height="173" viewBox="0 0 115 173" fill="none" xmlns="http://www.w3.org/2000/svg">
<g clip-path="url(#clip0_35_361)">
<path d="M33.8081 12.4368C32.3744 8.93227 34.0574 4.66822 37.103 2.40294C40.1485 0.137661 44.2048 -0.35537 47.9805 0.21317C51.7563 0.781711 55.2649 2.31855 58.7423 3.8465C60.314 2.24997 62.2991 1.1199 64.4765 0.582089C66.6539 0.044274 68.9381 0.119817 71.0751 0.800308C73.212 1.4808 75.1176 2.73954 76.5799 4.4364C78.0422 6.13326 79.0038 8.20167 79.3575 10.4114C80.7128 10.0595 82.1387 10.0828 83.4817 10.4789C84.8247 10.8751 86.0341 11.6289 86.9797 12.6595C87.9253 13.69 88.5714 14.9583 88.8484 16.3278C89.1254 17.6972 89.023 19.1162 88.552 20.4319L71.6012 26.5126L53.2568 59.1904C47.8603 63.8453 38.9864 63.7786 33.6656 59.0438C28.3448 54.3089 27.2629 45.5232 31.2835 39.6423C30.2375 38.7265 29.3487 37.6462 28.6521 36.4443C25.7 34.6676 23.3803 31.8338 22.5966 28.4492C20.9358 21.3202 26.5104 13.3562 33.8081 12.4368Z" fill="#1F2937"/>
<path d="M45.5004 80.2753C46.5201 74.9674 47.2325 71.3296 47.2191 71.3918C47.2057 71.454 37.1786 67.563 37.7753 53.6027C38.0736 46.6381 40.6427 35.6715 43.0604 26.7703C45.2288 18.7752 52.6423 9.89173 60.5767 12.388L84.5892 23.8965C86.998 24.656 87.4344 26.908 86.8823 29.3687L86.8511 30.5635L77.7902 69.0688L73.9655 86.276C73.146 89.8067 71.0323 92.9039 68.0398 94.9588C65.0473 97.0136 61.3925 97.8774 57.7939 97.3803C55.8387 97.1105 53.959 96.4467 52.2693 95.4291C50.5795 94.4115 49.1151 93.0615 47.965 91.4613C46.8149 89.8611 46.0033 88.0442 45.5796 86.1211C45.1559 84.198 45.129 82.2091 45.5004 80.2753Z" fill="#B5836D"/>
<path d="M45.2332 40.3086C45.1385 40.7622 45.2251 41.2348 45.4746 41.6257C45.7241 42.0165 46.1169 42.2946 46.569 42.4007C46.7854 42.459 47.0111 42.4742 47.2334 42.4452C47.4556 42.4162 47.6699 42.3437 47.864 42.2319C48.058 42.12 48.228 41.971 48.3641 41.7934C48.5003 41.6158 48.5999 41.4131 48.6572 41.197C48.7507 40.744 48.6635 40.2725 48.4141 39.8827C48.1647 39.4929 47.7727 39.2155 47.3215 39.1094C47.1054 39.0509 46.8799 39.0356 46.6579 39.0643C46.4359 39.093 46.2218 39.1651 46.0278 39.2765C45.8338 39.3879 45.6637 39.5364 45.5274 39.7136C45.391 39.8907 45.2911 40.0929 45.2332 40.3086Z" fill="#1F2937"/>
<path d="M44.4541 34.4189C44.6233 34.6898 46.1371 33.9747 48.0161 34.37C49.8951 34.7653 51.0616 35.9779 51.3288 35.778C51.449 35.6937 51.3288 35.2406 50.8034 34.6854C50.1046 33.9631 49.1998 33.473 48.212 33.2818C47.2402 33.0804 46.2293 33.194 45.3268 33.606C44.65 33.9259 44.3695 34.299 44.4541 34.4189Z" fill="#1F2937"/>
<path d="M61.5696 43.1202C61.4761 43.5732 61.5633 44.0446 61.8128 44.4345C62.0622 44.8243 62.4541 45.1017 62.9054 45.2078C63.1232 45.2703 63.3513 45.2887 63.5764 45.262C63.8014 45.2353 64.0188 45.164 64.2159 45.0522C64.4129 44.9405 64.5855 44.7906 64.7237 44.6114C64.8618 44.4322 64.9627 44.2272 65.0203 44.0086C65.1151 43.555 65.0285 43.0823 64.779 42.6915C64.5294 42.3007 64.1367 42.0226 63.6846 41.9165C63.4664 41.8535 63.2379 41.8348 63.0124 41.8615C62.7869 41.8882 62.5691 41.9598 62.3718 42.0721C62.1746 42.1843 62.002 42.3349 61.8642 42.515C61.7264 42.695 61.6262 42.9008 61.5696 43.1202Z" fill="#1F2937"/>
<path d="M62.3978 37.6836C62.567 37.9545 64.0853 37.2394 65.9598 37.6303C67.8343 38.0212 69.0098 39.2249 69.2591 39.0383C69.3794 38.9584 69.2591 38.5053 68.7338 37.9501C68.0368 37.2269 67.1336 36.7353 66.1468 36.5421C65.175 36.3407 64.1641 36.4543 63.2616 36.8663C62.5937 37.1905 62.3132 37.5592 62.3978 37.6836Z" fill="#1F2937"/>
<path d="M53.0074 49.5385C53.0385 49.4364 51.9165 48.9966 50.0821 48.3748C49.6368 48.2282 49.1916 48.0417 49.1648 47.7041C49.1381 47.3665 49.4275 46.8602 49.7704 46.3716L51.9254 43.0269C54.9398 38.2565 57.2239 34.2945 57.028 34.1746C56.8321 34.0547 54.2363 37.8257 51.2397 42.6139C50.5095 43.7954 49.8105 44.9147 49.1426 45.994C48.8532 46.4959 48.4168 47.0467 48.5148 47.8107C48.5479 47.9933 48.623 48.1658 48.7343 48.3146C48.8455 48.4633 48.9899 48.5843 49.1559 48.6679C49.4073 48.7941 49.6736 48.8881 49.9485 48.9478C51.8052 49.3964 52.9807 49.6451 53.0074 49.5385Z" fill="#1F2937"/>
<path d="M47.2191 71.3696C53.5852 72.7595 60.2131 72.3597 66.365 70.2147C66.365 70.2147 59.842 78.8361 46.5245 74.8208L47.2191 71.3696Z" fill="#7F594B"/>
<path d="M63.4129 32.6156C63.5421 33.153 65.4656 33.1264 67.6562 33.6505C69.8469 34.1746 71.5833 34.983 71.9306 34.5388C72.0909 34.3345 71.8327 33.8148 71.1648 33.233C70.2674 32.5141 69.2175 32.0088 68.0948 31.7556C66.9722 31.5024 65.8065 31.5078 64.6864 31.7716C63.7959 32.0026 63.3506 32.3624 63.4129 32.6156Z" fill="#1F2937"/>
<path d="M45.5049 28.96C45.8076 29.4619 47.4239 29.3331 49.2628 29.684C51.1017 30.0349 52.5933 30.6523 53.0385 30.2837C53.2389 30.0971 53.0831 29.6263 52.4864 29.0844C51.6544 28.3884 50.6503 27.9282 49.5789 27.7519C48.5207 27.5455 47.426 27.6315 46.4132 28.0006C45.6785 28.3249 45.3757 28.7202 45.5049 28.96Z" fill="#1F2937"/>
<path d="M78.6406 14.9553C78.3716 16.3156 77.8056 17.6002 76.983 18.7178C76.1604 19.8355 75.1013 20.7588 73.8808 21.4222C72.6603 22.0857 71.3084 22.473 69.921 22.5567C68.5336 22.6404 67.1447 22.4185 65.853 21.9066C63.8538 21.1115 61.7923 19.6102 59.7753 20.3564C57.6559 21.1337 57.0102 23.9587 55.0422 25.0735C52.2327 26.6637 48.8087 23.9587 45.6073 24.2474C43.1228 24.4739 41.2082 26.4149 39.2713 27.9873C37.3345 29.5597 34.6407 30.8744 32.4367 29.7107C33.0111 27.6409 33.5899 25.5444 34.6229 23.6566C35.6559 21.7689 37.1965 20.1032 39.2001 19.286C40.2954 18.8418 41.4976 18.6908 42.5484 18.1444C44.8103 16.9674 45.8077 14.329 47.4462 12.3702C48.5217 11.1249 49.8791 10.153 51.406 9.53511C52.9329 8.91718 54.5853 8.67096 56.2266 8.81683C58.9515 9.0789 61.5385 10.4292 64.2723 10.2959C66.2938 10.1982 68.2262 9.28766 70.2476 9.30986C74.1926 9.32763 77.1535 12.7566 79.3798 16.0124" fill="#1F2937"/>
<path d="M65.4166 17.909C67.1976 17.7669 70.9155 17.3627 72.1221 16.0746C74.7491 13.2718 78.6807 11.7928 82.2116 12.6989C84.0299 13.2138 85.6322 14.302 86.7791 15.8008C87.9259 17.2995 88.5557 19.1283 88.5742 21.0138C92.8843 21.9021 96.5576 25.4555 97.8088 29.9461C98.4092 32.2273 98.4448 34.6199 97.9127 36.9179C97.3807 39.2159 96.2968 41.3505 94.7544 43.138C94.0041 44.0872 93.3212 45.0876 92.7106 46.1317C93.567 47.1802 94.3214 48.3075 94.9636 49.4985C97.88 55.8235 90.097 58.3065 90.097 58.3065C90.097 62.5705 86.1654 62.575 83.6364 62.5794C81.2053 62.5794 79.7538 69.3175 77.7858 69.0688L79.6469 48.2859C79.353 48.3996 79.0405 48.4583 78.7252 48.4592C73.961 48.5746 75.1632 39.5757 76.6771 37.2394C75.3413 35.4627 73.9521 33.6327 73.0661 31.5273C72.18 29.4219 72.091 24.1363 72.8167 21.911C71.1604 21.68 64.6241 17.9756 65.4166 17.909Z" fill="#1F2937"/>
<path d="M78.9345 49.3919C79.6558 46.5403 83.1867 45.2478 85.3996 47.1711C86.6151 48.2371 87.3453 50.0404 86.6018 53.0741C84.6248 61.158 76.8952 57.5158 76.9398 57.276C76.9798 57.1516 78.0974 52.7321 78.9345 49.3919Z" fill="#B5836D"/>
<path d="M80.1768 54.8375C80.2213 54.8375 80.297 54.9707 80.5063 55.1351C80.8071 55.3603 81.1837 55.4605 81.5571 55.4149C82.4876 55.3083 83.5429 54.1312 83.9392 52.6832C84.1295 51.9946 84.163 51.2722 84.0371 50.569C84.0212 50.2994 83.9404 50.0376 83.8017 49.8057C83.663 49.5737 83.4704 49.3785 83.2401 49.2365C83.0873 49.1554 82.911 49.1296 82.7414 49.1636C82.5717 49.1977 82.4191 49.2893 82.3095 49.423C82.1448 49.6229 82.1581 49.7961 82.1136 49.8006C82.0691 49.805 81.9711 49.6229 82.1136 49.3031C82.2064 49.1084 82.3637 48.9515 82.5589 48.8589C82.8243 48.7508 83.1216 48.7508 83.387 48.8589C84.0015 49.0544 84.4245 49.7473 84.5581 50.4713C84.7337 51.2592 84.7139 52.078 84.5002 52.8565C84.0549 54.4733 82.8394 55.7925 81.5838 55.8458C81.3509 55.8559 81.1188 55.8137 80.9045 55.7222C80.6902 55.6307 80.4993 55.4923 80.346 55.3172C80.1456 55.0374 80.1456 54.8464 80.1768 54.8375Z" fill="#7F594B"/>
<path d="M93.2583 33.957C93.3993 33.8982 93.5325 33.8221 93.6546 33.7304C95.3731 32.5759 96.6931 30.921 97.4348 28.9911C97.8145 27.9256 97.9514 26.7891 97.8355 25.6643C97.7106 24.3608 97.2146 23.1202 96.4062 22.0887C95.9544 21.5169 95.3929 21.0406 94.7546 20.6875C94.1163 20.3344 93.4139 20.1117 92.6884 20.0322C91.9067 19.9233 91.1104 19.9958 90.3614 20.2438C89.6123 20.4919 88.9307 20.9089 88.3694 21.4624L88.7256 21.7067L88.7657 21.6223C90.146 18.8107 90.5467 15.5993 89.5939 12.992C88.641 10.3847 86.6062 8.55031 84.567 8.10614C83.7695 7.90003 82.9387 7.85635 82.1239 7.97769C81.3092 8.09903 80.5273 8.38291 79.825 8.81237C79.4509 9.05138 79.1109 9.33974 78.8143 9.66962C78.7121 9.78411 78.6226 9.9092 78.5471 10.0427C78.9606 9.63143 79.4191 9.26788 79.9141 8.95895C81.3009 8.17783 82.9395 7.9705 84.4779 8.38152C86.397 8.87455 88.3605 10.6024 89.2021 13.1253C90.0436 15.6482 89.7007 18.6952 88.3605 21.4313L88.3205 21.5157L87.7461 22.7372L88.69 21.7644C89.204 21.2596 89.8276 20.8796 90.5124 20.6539C91.1973 20.4282 91.9251 20.3629 92.6394 20.463C93.3115 20.5337 93.9628 20.7365 94.5559 21.0598C95.1489 21.383 95.6719 21.8203 96.0946 22.3463C96.8651 23.3155 97.3437 24.4831 97.4749 25.7131C97.5988 26.7863 97.4847 27.8735 97.1409 28.8978C96.6114 30.3878 95.732 31.7296 94.5763 32.811C93.7614 33.5839 93.2316 33.9259 93.2583 33.957Z" fill="#1F2937"/>
<path d="M58.0388 53.0253C58.2784 54.0158 58.3193 55.0438 58.159 56.0501C58.0752 56.5523 57.8904 57.0323 57.6157 57.4613C57.341 57.8903 56.9821 58.2594 56.5605 58.5463C55.6678 59.0398 54.6199 59.1748 53.6308 58.9239H53.604C53.0044 58.7834 52.4676 58.4505 52.0759 57.9763C51.6842 57.5021 51.4593 56.9128 51.4357 56.2988L51.311 53.696C53.1098 53.5361 56.2266 53.1763 58.0388 53.0253Z" fill="#7F594B"/>
<path d="M51.5069 57.8223C51.5069 57.8534 51.7073 57.9911 52.0724 58.2665C52.2965 58.445 52.5315 58.6097 52.7759 58.7595C53.1179 58.9433 53.488 59.0694 53.8712 59.1326C54.3331 59.2224 54.806 59.2419 55.2737 59.1904C55.8233 59.132 56.3504 58.9415 56.8099 58.6351C57.312 58.2565 57.7223 57.7701 58.0106 57.212C58.2988 56.6538 58.4576 56.0381 58.4751 55.4105C58.5164 54.5944 58.443 53.7766 58.2569 52.9808L58.2124 52.7854H58.0209C56.0796 52.9897 54.401 53.1852 53.2078 53.3406C52.5658 53.3845 51.9302 53.4947 51.311 53.6693C51.9507 53.7187 52.5937 53.7024 53.23 53.6204C54.4278 53.5449 56.1153 53.4072 58.0566 53.2296L57.8161 53.0519C57.986 53.8094 58.0519 54.5864 58.012 55.3616C57.9975 55.9217 57.8604 56.4719 57.6105 56.9737C57.3605 57.4754 57.0037 57.9166 56.565 58.2665C55.7823 58.7664 54.84 58.9551 53.9246 58.795C53.5693 58.753 53.2224 58.6572 52.8961 58.5108C52.6111 58.3775 52.3751 58.2176 52.1748 58.1021C51.774 57.8801 51.5203 57.7957 51.5069 57.8223Z" fill="#1F2937"/>
<path d="M58.2614 49.6407C58.7337 49.086 59.2636 48.5828 59.842 48.1394C60.4795 47.6767 61.1876 47.3197 61.9392 47.0822C62.8563 46.7859 63.8246 46.6801 64.7843 46.7713C65.7419 46.8817 66.6672 47.1839 67.5048 47.6596C68.1896 48.0492 68.8074 48.5455 69.3348 49.1299C69.8069 49.6776 70.2203 50.273 70.5682 50.9065C70.5199 50.7142 70.4465 50.5291 70.35 50.3558C70.1101 49.8763 69.8109 49.4286 69.4595 49.0233C68.9332 48.4099 68.3089 47.8876 67.6117 47.4775C66.7523 46.9743 65.7967 46.6566 64.8066 46.5448C63.8159 46.4465 62.8156 46.5601 61.8724 46.8779C61.1047 47.1325 60.3852 47.5139 59.7441 48.0061C59.3121 48.3354 58.9232 48.7174 58.5864 49.1432C58.4575 49.2947 58.3483 49.4619 58.2614 49.6407Z" fill="#7F594B"/>
<path d="M58.0388 53.0253C58.2784 54.0158 58.3193 55.0438 58.159 56.0501C58.0752 56.5523 57.8904 57.0323 57.6157 57.4613C57.341 57.8903 56.9821 58.2594 56.5605 58.5463C55.6678 59.0398 54.6199 59.1748 53.6308 58.9239H53.604C53.0044 58.7834 52.4676 58.4505 52.0759 57.9763C51.6842 57.5021 51.4593 56.9128 51.4357 56.2988L51.311 53.696C53.1098 53.5361 56.2266 53.1763 58.0388 53.0253Z" fill="#7F594B"/>
<path d="M51.5069 57.8223C51.5069 57.8534 51.7073 57.9911 52.0724 58.2665C52.2965 58.445 52.5315 58.6097 52.7759 58.7595C53.1179 58.9433 53.488 59.0694 53.8712 59.1326C54.3331 59.2224 54.806 59.2419 55.2737 59.1904C55.8233 59.132 56.3504 58.9415 56.8099 58.6351C57.312 58.2565 57.7223 57.7701 58.0106 57.212C58.2988 56.6538 58.4576 56.0381 58.4751 55.4105C58.5164 54.5944 58.443 53.7766 58.2569 52.9808L58.2124 52.7854H58.0209C56.0796 52.9897 54.401 53.1852 53.2078 53.3406C52.5658 53.3845 51.9302 53.4947 51.311 53.6693C51.9507 53.7187 52.5937 53.7024 53.23 53.6204C54.4278 53.5449 56.1153 53.4072 58.0566 53.2296L57.8161 53.0519C57.986 53.8094 58.0519 54.5864 58.012 55.3616C57.9975 55.9217 57.8604 56.4719 57.6105 56.9737C57.3605 57.4754 57.0037 57.9166 56.565 58.2665C55.7823 58.7664 54.84 58.9551 53.9246 58.795C53.5693 58.753 53.2224 58.6572 52.8961 58.5108C52.6111 58.3775 52.3751 58.2176 52.1748 58.1021C51.774 57.8801 51.5203 57.7957 51.5069 57.8223Z" fill="#1F2937"/>
<path d="M58.2614 49.6407C58.7337 49.086 59.2636 48.5828 59.842 48.1394C60.4795 47.6767 61.1876 47.3197 61.9392 47.0822C62.8563 46.7859 63.8246 46.6801 64.7843 46.7713C65.7419 46.8817 66.6672 47.1839 67.5048 47.6596C68.1896 48.0492 68.8074 48.5455 69.3348 49.1299C69.8069 49.6776 70.2203 50.273 70.5682 50.9065C70.5199 50.7142 70.4465 50.5291 70.35 50.3558C70.1101 49.8763 69.8109 49.4286 69.4595 49.0233C68.9332 48.4099 68.3089 47.8876 67.6117 47.4775C66.7523 46.9743 65.7967 46.6566 64.8066 46.5448C63.8159 46.4465 62.8156 46.5601 61.8724 46.8779C61.1047 47.1325 60.3852 47.5139 59.7441 48.0061C59.3121 48.3354 58.9232 48.7174 58.5864 49.1432C58.4575 49.2947 58.3483 49.4619 58.2614 49.6407Z" fill="#7F594B"/>
<path d="M84.2463 57.236C84.5689 57.4268 84.8678 57.6549 85.1369 57.9156C85.819 58.6984 86.2461 59.6697 86.3613 60.7006C86.4741 61.4036 86.4606 62.121 86.3212 62.8192C86.1508 63.6163 85.7783 64.3565 85.2393 64.969C84.6414 65.6428 83.8858 66.1586 83.0397 66.4703C82.1391 66.8251 81.1523 66.901 80.2079 66.688C79.2706 66.4669 78.4163 65.9829 77.7457 65.2933C77.1158 64.6489 76.6767 63.8434 76.4767 62.9658C76.2936 62.2295 76.268 61.4629 76.4015 60.716C76.535 59.9691 76.8246 59.2586 77.2514 58.6307C77.858 57.7853 78.7577 57.1949 79.776 56.9739C80.1511 56.9123 80.5321 56.8944 80.9114 56.9206C80.8158 56.8911 80.7173 56.8718 80.6175 56.8629C80.3314 56.8317 80.0423 56.8392 79.7582 56.8851C78.7013 57.0796 77.7586 57.669 77.1223 58.533C76.6663 59.1779 76.3537 59.9126 76.2055 60.6878C76.0573 61.4631 76.0769 62.2609 76.263 63.028C76.4734 63.9472 76.9359 64.7899 77.5987 65.4621C78.3046 66.1869 79.2065 66.6915 80.1945 66.9145C81.1841 67.138 82.2183 67.0559 83.1599 66.6791C84.0409 66.3534 84.8262 65.8128 85.4441 65.1067C85.9997 64.4647 86.38 63.6906 86.5483 62.8592C86.6794 62.1381 86.6794 61.3994 86.5483 60.6783C86.412 59.62 85.9446 58.6315 85.2125 57.8534C85.0059 57.6523 84.7703 57.4831 84.5135 57.3515C84.4295 57.3023 84.3398 57.2635 84.2463 57.236Z" fill="#27B04B"/>
<path d="M75.7643 78.1743L88.2848 82.8381L96.8826 108.178L84.5758 150.663L91.8156 174H16.9819L23.8255 153.568C22.7346 146.017 17.9036 128.539 18.567 120.419C20.0008 102.839 26.969 77.9922 26.969 77.9922L46.1995 77.0461C50.6386 88.3636 70.4257 89.2253 75.7643 78.1743Z" fill="#27B04B"/>
<g opacity="0.3">
<path d="M50.2602 83.9485C50.2602 83.9485 50.1622 84.1529 49.9886 84.4993C49.1292 86.1961 46.4266 91.2863 44.4318 92.8808C42.0007 94.8041 39.0888 97.3226 39.0888 97.3226C36.2258 115.84 30.58 131.857 22.7836 145.946L27.7794 120.149L36.1501 89.4296L50.1622 84.1706" fill="black"/>
</g>
<g opacity="0.3">
<path d="M74.2415 149.659L90.1237 171.895C81.3122 169.674 73.0082 164.308 68.8183 156.264C68.3241 155.314 67.8566 154.31 67.0373 153.599C65.5413 152.267 63.364 151.618 61.4672 151.01C55.5543 149.117 52.8516 147.079 50.6743 142.775C56.1642 149.77 66.0711 152.249 74.2415 149.659Z" fill="black"/>
</g>
<path d="M27.2851 78.0677C27.2851 78.0677 22.2582 76.9839 15.6373 85.3699C9.84898 92.7032 2.60471 104.314 2.60471 104.314L20.0408 111.763L27.205 80.6705L27.2851 78.0677Z" fill="#27B04B"/>
<path d="M115 122.258C115 122.258 109.002 93.5693 103.089 89.0432C97.0697 84.4327 84.5758 81.6433 84.5758 81.6433L85.168 129.454L115 122.258Z" fill="#27B04B"/>
<path d="M90.3909 102.16C90.3492 102.241 90.3178 102.328 90.2974 102.417C90.2439 102.586 90.1727 102.839 90.0881 103.168C89.9189 103.821 89.6874 104.776 89.4558 105.962C88.844 109.058 88.4188 112.187 88.1824 115.334C87.9307 118.487 87.8698 121.652 87.9999 124.812C88.031 126.021 88.129 126.998 88.178 127.673C88.2091 127.988 88.2314 128.246 88.2492 128.446C88.2543 128.537 88.2677 128.628 88.2893 128.717C88.3017 128.625 88.3017 128.533 88.2893 128.441C88.2893 128.241 88.2893 127.997 88.2626 127.664C88.2358 126.989 88.1646 126.012 88.1557 124.804C88.0735 121.658 88.1568 118.51 88.405 115.374C88.6491 112.23 89.0548 109.1 89.6206 105.997C89.8343 104.811 90.0391 103.852 90.1816 103.195C90.2484 102.884 90.3018 102.63 90.3463 102.431C90.3699 102.342 90.3848 102.251 90.3909 102.16Z" fill="#1F2937"/>
<path d="M46.3509 130.396C46.3433 130.486 46.3433 130.576 46.3509 130.667C46.3509 130.844 46.3509 131.111 46.3509 131.448C46.3857 132.406 46.4943 133.359 46.6759 134.3C47.2695 137.427 48.6186 140.363 50.6063 142.853C52.5941 145.343 55.1606 147.312 58.0833 148.589C58.9601 148.98 59.8669 149.301 60.7949 149.548C61.1199 149.642 61.3826 149.686 61.5563 149.726C61.6454 149.748 61.7362 149.763 61.8279 149.77C61.7457 149.73 61.659 149.701 61.5696 149.682C61.396 149.624 61.1244 149.566 60.8216 149.459C59.9088 149.182 59.0162 148.842 58.1501 148.442C55.2768 147.139 52.754 145.175 50.7882 142.711C48.8224 140.248 47.4697 137.354 46.8407 134.269C46.6455 133.337 46.5116 132.393 46.4399 131.444C46.4088 131.106 46.4088 130.844 46.3954 130.667C46.391 130.575 46.3761 130.484 46.3509 130.396Z" fill="#1F2937"/>
<path d="M90.2395 105.402C90.4573 105.271 90.6642 105.122 90.8584 104.958C91.2458 104.665 91.8112 104.252 92.5281 103.759C94.3827 102.469 96.3309 101.318 98.3565 100.316C100.387 99.3219 102.489 98.4772 104.643 97.789C105.472 97.5225 106.144 97.3226 106.616 97.1982C106.861 97.1396 107.102 97.0639 107.337 96.9717C107.086 96.9941 106.837 97.0402 106.594 97.1094C106.117 97.2115 105.432 97.3848 104.594 97.6335C102.415 98.2783 100.294 99.106 98.2541 100.108C96.2173 101.115 94.2691 102.292 92.4301 103.625C91.7266 104.136 91.1701 104.571 90.8005 104.887C90.5993 105.043 90.4116 105.215 90.2395 105.402Z" fill="white"/>
<path d="M45.9857 89.3275L46.097 89.3586L46.4221 89.4163L47.6688 89.6206L52.2593 90.3535C56.1331 90.9753 61.485 91.8726 67.3712 92.9652C73.2575 94.0579 78.5783 95.1372 82.4208 95.9412L86.9668 96.905L88.2046 97.1627L88.5297 97.2204C88.5665 97.2263 88.6041 97.2263 88.641 97.2204L88.5341 97.1849L88.218 97.1049L86.9891 96.8029C85.9205 96.5497 84.371 96.1944 82.452 95.768C78.6183 94.9196 73.3065 93.818 67.4158 92.7209C61.5251 91.6238 56.1687 90.7577 52.2772 90.1758C50.3359 89.8871 48.7597 89.6606 47.6732 89.5185L46.4176 89.3586L46.0926 89.3186C46.0568 89.3182 46.021 89.3212 45.9857 89.3275Z" fill="white"/>
<path d="M16.0647 85.623C16.9961 86.8575 17.9903 88.0436 19.0435 89.1764C20.037 90.3578 21.0891 91.4889 22.1959 92.5655C22.2404 92.521 20.9091 90.9398 19.2171 89.0121C18.2237 87.8307 17.1715 86.6996 16.0647 85.623Z" fill="white"/>
<path d="M74.3528 121.072L89.487 139.47L89.2109 128.366L110.93 123.236C110.93 123.236 111.024 129.454 110.984 142.553C110.984 146.044 109.951 157.566 108.522 162.918C106.674 169.834 94.1399 176.07 87.096 170.074C81.0093 164.89 61.1243 125.932 61.1243 125.932L74.3528 121.072Z" fill="#B5836D"/>
<path d="M74.3529 121.072C74.4063 121.168 74.4658 121.26 74.531 121.348C74.6512 121.526 74.8426 121.792 75.092 122.103C75.5907 122.747 76.3298 123.666 77.247 124.795C79.0904 127.055 81.6684 130.147 84.518 133.558L91.8068 142.304C92.7196 143.414 93.4631 144.32 93.993 144.969L94.5807 145.688C94.6431 145.78 94.7164 145.863 94.7989 145.937C94.746 145.84 94.6849 145.748 94.6163 145.662L94.0731 144.916C93.5789 144.267 92.8576 143.339 91.9448 142.202C90.1148 139.914 87.5502 136.805 84.6961 133.412L74.3529 121.072Z" fill="#7F594B"/>
<path d="M43.7862 98.1221C44.67 98.6099 45.4223 99.3038 45.979 100.144C46.5357 100.985 46.8802 101.948 46.9831 102.95C47.2547 106.321 46.9831 114.974 46.9831 114.974L41.9785 114.339L43.7862 98.1221Z" fill="#7F594B"/>
<path d="M44.2047 106.53C44.316 104.66 44.6277 102.75 45.5716 101.129C46.3558 99.866 47.3888 98.775 48.6083 97.9222C49.9687 96.887 51.4891 96.0799 53.1098 95.5325C55.3495 94.7987 57.7433 94.6651 60.051 95.1452C62.3588 95.6253 64.4995 96.7022 66.2585 98.2679C68.0175 99.8337 69.3329 101.833 70.0729 104.066C70.8129 106.299 70.9515 108.687 70.4747 110.99L70.5058 110.861C70.5058 110.959 70.4658 111.052 70.4435 111.15C70.4212 111.247 70.4435 111.256 70.4123 111.31C69.7355 114.459 68.7293 117.022 66.2403 119.149C64.6018 120.544 62.4601 121.201 60.3451 121.614C57.0993 122.254 53.5773 122.369 50.6297 120.873C48.1613 119.53 46.2634 117.342 45.2867 114.712C44.3339 112.096 43.9647 109.303 44.2047 106.53Z" fill="#FFBE8D"/>
<path d="M44.463 104.54C44.2493 106.277 45.2689 107.934 45.9056 109.56C46.3152 110.617 46.7961 111.749 47.7801 112.309C48.5014 112.718 49.4053 112.753 50.0732 113.255C50.6208 113.659 50.937 114.325 51.4935 114.721C52.8293 115.658 54.7929 114.667 56.2488 115.387C56.6723 115.651 57.0742 115.948 57.451 116.275C57.6411 116.435 57.8639 116.552 58.1038 116.617C58.3438 116.682 58.5951 116.695 58.8402 116.653C59.4101 116.497 59.7307 115.916 60.2517 115.614C60.8884 115.232 61.6854 115.334 62.4245 115.312C63.6141 115.266 64.7658 114.882 65.7435 114.204C66.7211 113.526 67.4837 112.584 67.9412 111.487C67.9412 111.487 69.13 112.953 69.7222 112.376C70.1182 111.953 70.3961 111.433 70.5281 110.87L70.4969 110.999C70.9737 108.696 70.8352 106.308 70.0952 104.075C69.3552 101.842 68.0398 99.8426 66.2808 98.2768C64.5218 96.7111 62.3811 95.6342 60.0733 95.1541C57.7655 94.674 55.3718 94.8076 53.1321 95.5414C51.5083 96.0879 49.9848 96.8951 48.6216 97.9311C47.4022 98.7839 46.3691 99.875 45.585 101.138C44.9942 102.189 44.6132 103.345 44.463 104.54Z" fill="#FF725E"/>
<g opacity="0.3">
<path d="M46.9119 102.395C47.0367 101.926 47.2564 101.488 47.5575 101.107C49.1563 98.8931 51.4405 97.2652 54.0582 96.4742C56.6584 95.6969 59.2454 96.11 61.7789 97.0783C62.0768 97.1577 62.3316 97.3507 62.4882 97.6158C62.6447 97.8808 62.6906 98.1967 62.6159 98.4952C62.5247 98.79 62.3581 99.056 62.1324 99.2671C61.9068 99.4782 61.63 99.627 61.3292 99.6989C60.7256 99.8344 60.0985 99.8253 59.4992 99.6722C58.8981 99.5478 58.3059 99.3657 57.6914 99.2991C56.2228 99.2143 54.7672 99.6156 53.5506 100.441C52.3478 101.265 51.2051 102.173 50.131 103.159C49.7358 103.534 49.2696 103.827 48.7597 104.021C48.5045 104.116 48.2283 104.14 47.9603 104.092C47.6923 104.043 47.4424 103.924 47.2369 103.745C47.0761 103.564 46.9623 103.346 46.9056 103.111C46.849 102.875 46.8511 102.629 46.9119 102.395Z" fill="white"/>
</g>
<g opacity="0.3">
<path d="M56.2266 108.378C57.411 108.054 58.6221 108.671 59.7263 109.204C60.8305 109.737 62.1752 110.19 63.2349 109.577C64.2011 109.022 64.7443 107.676 65.853 107.636C66.2113 107.651 66.5547 107.783 66.8294 108.013C67.1042 108.243 67.2947 108.557 67.3713 108.907C67.5022 109.614 67.3743 110.346 67.0106 110.968C66.4649 111.968 65.6215 112.775 64.5967 113.277C63.5719 113.779 62.4163 113.951 61.2891 113.77C60.225 113.575 59.232 113.064 58.1723 112.962C57.2195 112.873 56.1153 113.064 55.4207 112.407C54.8597 111.883 54.3298 111.474 54.0849 110.372C53.9024 109.511 54.2986 108.716 56.2266 108.378Z" fill="white"/>
</g>
<g opacity="0.3">
<path d="M50.3047 108.476C50.4694 107.867 51.2753 107.561 51.9076 107.61H51.9521C52.1337 107.667 52.3003 107.763 52.4398 107.893C52.5793 108.022 52.6882 108.181 52.7585 108.357C52.8289 108.534 52.8589 108.724 52.8465 108.913C52.8341 109.103 52.7795 109.287 52.6868 109.453C52.5294 109.727 52.2797 109.936 51.9821 110.044C51.6844 110.151 51.3582 110.149 51.0616 110.039C50.7736 109.906 50.5407 109.678 50.4027 109.393C50.2646 109.108 50.23 108.783 50.3047 108.476Z" fill="white"/>
</g>
<g opacity="0.3">
<path d="M61.0531 107.73C60.029 107.105 58.867 106.742 57.6691 106.671C56.4712 106.599 55.274 106.823 54.1829 107.321C53.3129 106.428 52.1892 105.824 50.9637 105.589C51.4736 104.617 52.202 103.776 53.0918 103.132C53.9817 102.489 55.0088 102.059 56.0929 101.877C57.177 101.695 58.2886 101.766 59.3407 102.084C60.3927 102.402 61.3568 102.958 62.1573 103.71C62.8475 104.358 63.4308 105.327 63.0968 106.21C62.8119 106.97 61.9748 107.348 61.2134 107.645" fill="black"/>
</g>
<path d="M48.9556 105.713C49.5001 105.626 50.052 105.593 50.603 105.615C51.2024 105.681 51.784 105.859 52.3173 106.139C52.9825 106.502 53.6182 106.917 54.2185 107.379L54.2675 107.414L54.3254 107.392C54.6281 107.285 54.9487 107.179 55.2782 107.094C56.1244 106.882 57.0007 106.814 57.8696 106.894C58.5802 106.964 59.2789 107.124 59.9489 107.37C61.0932 107.814 61.7299 108.227 61.7299 108.187C61.5955 108.065 61.4458 107.96 61.2847 107.876C60.8673 107.62 60.4295 107.399 59.9756 107.214C59.2983 106.941 58.5867 106.762 57.8607 106.681C56.9659 106.587 56.0613 106.651 55.1891 106.872C54.8591 106.958 54.5336 107.06 54.214 107.179H54.3209C53.708 106.714 53.0571 106.301 52.3752 105.944C51.8199 105.664 51.2146 105.496 50.5941 105.451C50.1813 105.431 49.7678 105.469 49.3652 105.562C49.2231 105.596 49.0856 105.647 48.9556 105.713Z" fill="#1F2937"/>
<path d="M50.9948 105.371C51.4328 104.732 51.9454 104.148 52.522 103.63C53.1585 103.085 53.8846 102.654 54.6682 102.355C55.6275 101.993 56.6567 101.853 57.6781 101.946C58.7003 102.04 59.6903 102.352 60.5811 102.861C61.3082 103.277 61.9538 103.82 62.4868 104.465C62.8483 104.899 63.1193 105.4 63.2838 105.939C63.3907 106.326 63.3862 106.552 63.4085 106.548C63.4174 106.494 63.4174 106.438 63.4085 106.384C63.4062 106.234 63.3883 106.085 63.3551 105.939C63.2255 105.372 62.9682 104.842 62.6026 104.389C62.0737 103.709 61.4193 103.136 60.6746 102.701C59.7623 102.164 58.742 101.835 57.687 101.738C56.6276 101.643 55.5605 101.795 54.5702 102.182C53.7704 102.493 53.033 102.944 52.3929 103.514C51.9628 103.9 51.5856 104.341 51.2709 104.825C51.1836 104.954 51.1048 105.089 51.0349 105.229C51.0152 105.274 51.0017 105.322 50.9948 105.371Z" fill="#1F2937"/>
<path d="M68.1994 110.332C68.2512 110.153 68.2811 109.968 68.2885 109.782C68.3418 109.277 68.3656 108.77 68.3597 108.263C68.3592 107.511 68.3056 106.76 68.1994 106.015C68.065 105.103 67.8641 104.202 67.5984 103.319C67.3206 102.44 66.9768 101.583 66.5698 100.756C66.2356 100.081 65.8563 99.43 65.4344 98.8061C65.1518 98.3853 64.844 97.9819 64.5127 97.598C64.4006 97.4481 64.2722 97.311 64.1298 97.1893C64.0987 97.2204 64.6107 97.8245 65.2964 98.895C66.1779 100.297 66.871 101.808 67.3579 103.39C67.622 104.264 67.8273 105.154 67.9724 106.055C68.0839 106.791 68.1538 107.532 68.1816 108.276C68.2484 109.537 68.1594 110.328 68.1994 110.332Z" fill="white"/>
<path d="M64.6864 114.476C64.779 114.233 64.8548 113.984 64.9134 113.73C65.0018 113.439 65.0717 113.142 65.1227 112.842C65.1895 112.491 65.283 112.091 65.3275 111.643C65.3721 111.194 65.4433 110.705 65.4611 110.177C65.4789 109.648 65.4878 109.08 65.4611 108.485C65.4089 107.19 65.2405 105.903 64.958 104.638C64.654 103.38 64.2398 102.151 63.7202 100.965C63.4619 100.427 63.2259 99.9076 62.9543 99.4501C62.6827 98.9926 62.4378 98.5618 62.1885 98.1931C61.9392 97.8245 61.6898 97.4913 61.4805 97.2026C61.3008 96.9541 61.106 96.7167 60.8973 96.4919C60.7357 96.2876 60.557 96.0974 60.363 95.9234C60.5032 96.1433 60.6595 96.3526 60.8305 96.5497C60.9863 96.7451 61.1778 96.9939 61.3737 97.2781C61.5696 97.5624 61.8189 97.8955 62.0505 98.282C62.282 98.6684 62.5492 99.077 62.7851 99.5434C63.0211 100.01 63.2749 100.516 63.5243 101.049C64.5533 103.402 65.1375 105.924 65.2474 108.489C65.2474 109.08 65.283 109.644 65.2474 110.168C65.2118 110.692 65.1895 111.181 65.1405 111.625C65.0915 112.069 65.0248 112.464 64.9758 112.82C64.9268 113.175 64.8645 113.468 64.8066 113.708C64.7452 113.96 64.705 114.217 64.6864 114.476Z" fill="white"/>
<path d="M59.7486 115.778C59.9609 115.441 60.1257 115.076 60.2383 114.694C60.865 112.871 61.0182 110.92 60.6836 109.022C60.6362 108.626 60.5328 108.239 60.3764 107.872C60.4031 108.265 60.4522 108.656 60.5233 109.044C60.6364 109.982 60.6558 110.928 60.5812 111.869C60.5027 112.809 60.3297 113.74 60.0647 114.645C59.9362 115.016 59.8306 115.394 59.7486 115.778Z" fill="white"/>
<path d="M58.0699 100.552C58.0397 99.6311 57.8279 98.7255 57.4466 97.8867C57.1287 97.0138 56.6432 96.2112 56.0173 95.5237C55.955 95.5637 56.6674 96.5764 57.2284 97.9711C57.7894 99.3658 58.0076 100.561 58.0699 100.552Z" fill="white"/>
<path d="M53.3591 102.16C53.5347 100.475 53.1599 98.7779 52.2905 97.3226C52.2282 97.3537 52.7002 98.3708 52.9896 99.7078C53.279 101.045 53.2879 102.16 53.3591 102.16Z" fill="white"/>
<path d="M53.938 114.641C54.1254 114.421 54.2758 114.172 54.3832 113.904C54.7027 113.278 54.9607 112.624 55.1535 111.949C55.3492 111.275 55.4775 110.583 55.5364 109.884C55.5832 109.589 55.5832 109.29 55.5364 108.995C55.4652 108.995 55.3806 110.328 54.9309 111.869C54.4812 113.41 53.8756 114.596 53.938 114.641Z" fill="white"/>
<path d="M47.8914 100.827C47.9302 101.024 47.9869 101.218 48.0606 101.405C48.2046 101.928 48.3029 102.463 48.3545 103.004C48.4173 103.807 48.4352 104.614 48.4079 105.42C48.3685 106.415 48.3878 107.412 48.4658 108.405C48.5182 108.923 48.6166 109.436 48.7597 109.937C48.8295 110.181 48.9189 110.418 49.0268 110.648C49.0887 110.764 49.1717 110.868 49.2717 110.954C49.327 111.002 49.3916 111.037 49.4613 111.059C49.531 111.08 49.6044 111.087 49.6769 111.079C49.9217 111.012 50.1308 110.852 50.2602 110.634C50.3982 110.466 50.5229 110.292 50.6386 110.124C51.1705 109.355 51.568 108.502 51.8141 107.601C51.8794 107.41 51.9183 107.211 51.9299 107.01C51.6993 107.716 51.415 108.404 51.0794 109.066C50.9003 109.394 50.701 109.71 50.4828 110.013C50.3626 110.177 50.2379 110.346 50.0999 110.51C49.9619 110.674 49.8194 110.843 49.6546 110.861C49.4899 110.879 49.3251 110.732 49.2094 110.537C49.1157 110.32 49.0354 110.097 48.9689 109.87C48.8303 109.382 48.7364 108.883 48.6884 108.378C48.6113 107.392 48.5861 106.404 48.6127 105.415C48.6312 104.603 48.5956 103.789 48.5059 102.981C48.44 102.434 48.3177 101.895 48.1408 101.373C48.0726 101.185 47.9892 101.002 47.8914 100.827Z" fill="white"/>
<path d="M40.6917 108.476L42.397 104.221C42.397 104.221 44.04 105.042 43.9465 107.956C43.853 110.87 44.3918 111.78 44.3918 111.78C44.3918 111.78 46.1282 111.416 46.5824 114.445C47.0366 117.475 50.0509 120.548 50.0509 120.548L59.0807 121.21C59.0807 121.21 64.299 119.362 66.3962 117.657C68.4933 115.951 67.8566 113.659 68.3152 109.457C68.7738 105.255 71.432 107.272 71.432 107.272C71.432 107.272 70.9867 111.008 72.1622 114.379C73.3377 117.75 74.3528 120.757 74.3528 121.121L65.5769 129.454C65.1076 128.447 64.3595 127.594 63.4208 126.997C62.4821 126.4 61.3918 126.083 60.2784 126.083C60.2784 126.083 47.6777 126.172 46.3108 125.172C44.9439 124.173 44.3918 121.894 44.3918 121.894C44.3918 121.894 41.3818 117.532 40.567 116.195C39.5251 114.477 40.6917 108.476 40.6917 108.476Z" fill="#B5836D"/>
<path d="M44.8503 112.034C44.8503 112.034 44.8192 111.998 44.7524 111.958C44.6484 111.906 44.5347 111.876 44.4184 111.869C44.2005 111.866 43.9851 111.916 43.7911 112.016C43.597 112.115 43.4303 112.26 43.3053 112.438C42.979 112.987 42.8576 113.633 42.9625 114.263C43.0204 114.952 43.096 115.702 43.1851 116.484C43.3235 117.839 43.5571 119.182 43.8841 120.504C44.0133 121.01 44.1424 121.392 44.2403 121.69C44.2791 121.837 44.3391 121.978 44.4184 122.107C44.4541 122.107 44.2582 121.481 44.04 120.464C43.8218 119.447 43.5947 118.034 43.4122 116.466C43.3276 115.68 43.2474 114.93 43.1717 114.246C43.0623 113.662 43.1566 113.058 43.4389 112.535C43.5469 112.372 43.6908 112.235 43.8598 112.135C44.0287 112.035 44.2182 111.974 44.414 111.958C44.5626 111.959 44.7101 111.984 44.8503 112.034Z" fill="#7F594B"/>
<path d="M66.7657 130.627C66.6236 130.256 66.4271 129.909 66.1825 129.596C65.6325 128.811 64.9745 128.107 64.2278 127.504C63.8098 127.175 63.3627 126.886 62.892 126.638C62.5069 126.444 62.1005 126.295 61.681 126.194C61.5207 126.149 61.3568 126.118 61.1912 126.1C61.0662 126.08 60.9394 126.071 60.8127 126.074C60.6079 126.074 60.4966 126.074 60.4966 126.1C60.4966 126.127 60.9418 126.14 61.6364 126.349C62.037 126.477 62.4246 126.642 62.7941 126.842C63.2424 127.095 63.6698 127.383 64.072 127.704C64.8013 128.298 65.4614 128.971 66.04 129.712C66.2659 130.029 66.5081 130.334 66.7657 130.627Z" fill="#7F594B"/>
<path d="M30.1125 56.1167C29.3015 56.4707 28.586 57.0109 28.0242 57.6933C27.4624 58.3756 27.0703 59.1808 26.8799 60.0432C26.1586 63.0369 27.4276 65.0712 28.8658 66.4126C30.2015 67.6741 36.4351 73.6171 41.3061 74.1901C46.1772 74.7631 49.2316 75.225 52.4375 72.8931C55.296 70.8144 55.0377 66.4437 52.4375 64.1562C49.8372 61.8687 43.8352 58.382 40.7763 56.6675C37.7174 54.953 32.8819 54.189 30.1125 56.1167Z" fill="#FFBE8D"/>
<path d="M29.3199 58.1155C29.4223 58.6302 29.6536 59.1107 29.9922 59.5122C30.3309 59.9137 30.7659 60.2232 31.2568 60.4118C32.2853 60.7849 33.4831 61.0648 34.0263 62.0153C34.3691 62.6238 34.4315 63.4855 35.0726 63.7609C35.5936 63.983 36.2347 63.6587 36.7512 63.8942C37.8733 64.405 36.9293 66.5103 37.9579 67.1899C38.5367 67.5675 39.2936 67.1899 39.8591 66.7857C40.4246 66.3815 41.0791 65.8974 41.7336 66.1328C42.7621 66.4837 42.682 68.136 43.6215 68.6779C44.1736 68.9933 44.8771 68.8111 45.4426 68.518C45.9721 68.1695 46.5537 67.9072 47.1657 67.7407C47.9211 67.6891 48.6739 67.8722 49.3207 68.2648C49.9639 68.6577 50.6891 68.8978 51.4401 68.9666C52.1926 68.9666 53.7154 68.5224 53.7465 67.7851C53.7465 67.7851 54.8641 66.5192 52.4597 64.1562C50.6164 62.3484 44.3873 58.6041 44.3873 58.6041C44.3873 58.6041 38.4432 54.3178 33.1803 54.9752C33.1803 54.9752 28.6209 55.3616 29.3199 58.1155Z" fill="#FF725E"/>
<path d="M35.7093 59.2615C35.7093 59.297 36.3282 59.5591 37.2633 60.1498C38.1983 60.7406 39.4183 61.6467 40.8253 62.6061C42.0073 63.4568 43.333 64.0887 44.7391 64.4716C45.1678 64.5772 45.6067 64.6368 46.0481 64.6493C46.2105 64.6633 46.3742 64.6528 46.5334 64.6182C45.9423 64.5583 45.3562 64.4574 44.7791 64.3162C43.4118 63.8909 42.1219 63.249 40.9589 62.4151C39.5697 61.4646 38.3363 60.5451 37.3612 60.0077C36.9792 59.7905 36.5853 59.5947 36.1813 59.4214C36.0323 59.3463 35.8734 59.2924 35.7093 59.2615Z" fill="#1F2937"/>
<g opacity="0.3">
<path d="M35.7182 57.5692C36.0152 57.5037 36.3249 57.5269 36.6087 57.6358C38.7415 58.2754 40.4468 59.8567 42.1566 61.2514C43.8664 62.6461 45.8032 64.0452 48.025 64.1873C47.0866 64.6339 46.0193 64.7316 45.0151 64.4627C41.1325 63.3034 38.8751 60.4652 35.7271 59.2615C35.5545 59.1736 35.408 59.042 35.3025 58.8799C35.197 58.7177 35.1361 58.5307 35.126 58.3376C35.1496 58.1693 35.2166 58.0101 35.3204 57.8754C35.4242 57.7407 35.5613 57.6352 35.7182 57.5692Z" fill="black"/>
</g>
<path d="M51.3288 68.4336C51.5418 68.5367 51.784 68.5634 52.0145 68.5091C52.3 68.474 52.574 68.3756 52.8164 68.2212C53.0588 68.0667 53.2635 67.8601 53.4155 67.6165C53.5675 67.3729 53.6629 67.0984 53.6947 66.8133C53.7266 66.5281 53.6941 66.2394 53.5996 65.9684C53.4571 65.5509 53.2434 65.3688 53.2256 65.3866C53.2078 65.4043 53.3503 65.622 53.4438 66.0128C53.5102 66.2622 53.5246 66.5225 53.4863 66.7777C53.4479 67.0329 53.3575 67.2775 53.2206 67.4964C53.0837 67.7154 52.9033 67.904 52.6905 68.0507C52.4777 68.1974 52.237 68.2989 51.9833 68.3492C51.5826 68.438 51.3288 68.4025 51.3288 68.4336Z" fill="white"/>
<path d="M44.5343 68.1049C44.8883 68.152 45.2484 68.0965 45.5717 67.945C46.1238 67.754 46.5112 67.4697 46.4622 67.4164C46.1223 67.4723 45.7924 67.577 45.4826 67.7274C44.9661 67.9184 44.5209 68.0383 44.5343 68.1049Z" fill="white"/>
<path d="M41.9028 63.6677C42.1248 63.8551 42.3759 64.0051 42.6464 64.1118C43.2829 64.4275 43.9579 64.6589 44.6545 64.8003C45.3496 64.9446 46.0603 64.9999 46.7694 64.9646C47.072 64.9699 47.3732 64.9233 47.6599 64.827C46.6753 64.817 45.6929 64.7324 44.7212 64.5738C43.7598 64.3446 42.8175 64.0417 41.9028 63.6677Z" fill="white"/>
<path d="M38.7949 66.3993C38.7949 66.457 39.209 66.5281 39.6854 66.3149C40.1619 66.1017 40.3667 65.7375 40.3177 65.7064C40.2687 65.6753 39.9927 65.924 39.5875 66.1061C39.1823 66.2883 38.7949 66.3282 38.7949 66.3993Z" fill="white"/>
<path d="M35.3487 62.8726C35.3487 62.9347 35.5179 62.9969 35.736 63.0014C35.9542 63.0058 36.1279 62.9658 36.1279 62.9036C36.1279 62.8415 35.9587 62.7793 35.7405 62.7704C35.5223 62.7615 35.3487 62.8104 35.3487 62.8726Z" fill="white"/>
<path d="M30.433 58.7418C30.4063 58.7418 30.433 58.9638 30.6156 59.257C30.8646 59.6288 31.2111 59.9254 31.6174 60.1143C32.0139 60.3009 32.4353 60.4296 32.8686 60.4962C33.1981 60.5451 33.4029 60.5584 33.4073 60.5273C33.4118 60.4962 33.2203 60.4296 32.9042 60.3363C32.4974 60.2222 32.1012 60.0736 31.7198 59.8922C31.3457 59.7148 31.0146 59.4587 30.7492 59.1415C30.5488 58.915 30.4687 58.7284 30.433 58.7418Z" fill="white"/>
<g opacity="0.2">
<path d="M41.7514 57.3871C41.9206 57.4937 42.0853 57.6047 42.2456 57.7202L41.7514 57.3871Z" fill="white"/>
<path d="M31.7866 55.6903C32.2726 55.3715 32.8435 55.2059 33.4251 55.2151C36.3611 55.0416 39.2764 55.8021 41.7514 57.3871C42.0903 57.5835 42.3845 57.8482 42.6152 58.1644C42.7273 58.3275 42.7748 58.5264 42.7485 58.7225C42.7221 58.9185 42.6239 59.0979 42.4727 59.2259C42.1209 59.4747 41.6356 59.297 41.2482 59.1016C39.9615 58.4531 38.7504 57.6491 37.3834 57.1916C36.0165 56.7341 34.4225 56.6764 33.2248 57.4714C32.8419 57.7291 32.4545 58.08 31.9959 58.0311C31.7427 57.9711 31.52 57.8213 31.3693 57.6096C31.2186 57.398 31.1501 57.139 31.1766 56.8807C31.1879 56.6505 31.2481 56.4253 31.3533 56.2201C31.4584 56.0148 31.6062 55.8343 31.7866 55.6903Z" fill="white"/>
</g>
<g opacity="0.2">
<path d="M44.1157 65.853C44.1997 65.8093 44.2925 65.785 44.3873 65.7819L47.9493 65.3733C49.0446 65.2489 50.1756 65.1245 51.2353 65.4577C51.5018 65.4854 51.7509 65.6031 51.9412 65.7913C52.1315 65.9795 52.2516 66.2269 52.2816 66.4926C52.2735 66.7349 52.1697 66.9642 51.9929 67.1306C51.8161 67.2969 51.5806 67.3869 51.3377 67.3809C50.9002 67.2805 50.4993 67.0606 50.18 66.7458C49.4376 66.2206 48.5189 66.0054 47.6198 66.1461C46.6046 66.3149 45.6295 66.9368 44.6188 66.7413C44.4051 66.7149 44.2093 66.6085 44.0711 66.4437C44.0344 66.4024 44.0064 66.3541 43.9888 66.3018C43.9711 66.2494 43.9641 66.1941 43.9683 66.139C43.9724 66.0839 43.9876 66.0302 44.0129 65.9811C44.0383 65.932 44.0732 65.8884 44.1157 65.853Z" fill="white"/>
</g>
<path d="M27.3564 62.1086C27.4067 61.9946 27.4864 61.896 27.5872 61.8227C27.6881 61.7494 27.8066 61.704 27.9307 61.691C28.4161 61.7976 28.327 62.3617 28.2023 62.6105C28.1707 62.6636 28.1289 62.7098 28.0792 62.7467C28.0296 62.7835 27.9731 62.8101 27.913 62.825C27.853 62.8398 27.7905 62.8427 27.7294 62.8333C27.6682 62.8239 27.6095 62.8026 27.5567 62.7704C27.4539 62.6984 27.3782 62.594 27.3419 62.474C27.3055 62.354 27.3106 62.2253 27.3564 62.1086Z" fill="#EB996E"/>
<path d="M33.5454 67.2743C33.5745 67.2083 33.6208 67.1512 33.6796 67.109C33.7383 67.0668 33.8073 67.0411 33.8793 67.0345C34.1554 67.0922 34.1064 67.4165 34.0307 67.5631C33.993 67.6231 33.9332 67.6661 33.8641 67.6827C33.795 67.6993 33.7222 67.6883 33.6612 67.6519C33.6029 67.6104 33.56 67.551 33.539 67.4827C33.5181 67.4145 33.5203 67.3412 33.5454 67.2743Z" fill="#EB996E"/>
<path d="M29.4446 61.6911C29.4733 61.6256 29.519 61.5689 29.5769 61.5268C29.6347 61.4846 29.7028 61.4586 29.7741 61.4512C30.0546 61.5134 30.0011 61.8377 29.9299 61.9798C29.912 62.0104 29.8882 62.0371 29.8598 62.0584C29.8315 62.0796 29.7991 62.0951 29.7647 62.1038C29.7303 62.1124 29.6945 62.1142 29.6594 62.1089C29.6243 62.1037 29.5907 62.0915 29.5603 62.0731C29.5005 62.0319 29.4564 61.9717 29.4354 61.9023C29.4144 61.8329 29.4176 61.7584 29.4446 61.6911Z" fill="#EB996E"/>
<path d="M38.5233 94.4532C38.5233 94.4532 24.9743 139.07 24.1327 141.589C23.2912 144.107 17.8992 159.062 6.63428 155.647C-6.09552 151.791 3.41064 126.216 3.41064 126.216L8.75368 106.85L17.307 109.653L24.2084 88.3636L38.5233 94.4532Z" fill="#B5836D"/>
<path d="M52.9139 73.0352C52.9139 73.0352 51.0483 82.6959 49.9708 84.1395C48.8932 85.5831 43.0204 91.4994 43.0204 91.4994L36.6621 95.6969L24.1327 88.5901L26.3946 78.6184L29.1908 66.8568L32.4144 69.3441L32.0716 72.9597C32.0716 72.9597 36.7779 65.1467 38.5322 66.8568C40.2865 68.5668 37.1608 72.0802 36.1813 75.0073C35.2017 77.9344 35.9853 79.4979 35.9853 79.4979C35.9853 79.4979 36.769 79.6933 37.8421 77.8367C38.6257 76.5042 41.5065 70.3835 43.9643 68.2603C44.1797 68.0729 44.4459 67.9532 44.7294 67.9165C45.0128 67.8797 45.3009 67.9276 45.5571 68.054C45.8133 68.1804 46.0263 68.3796 46.1692 68.6266C46.312 68.8736 46.3783 69.1573 46.3598 69.4418L46.2618 70.9076L42.4237 80.4529L41.0523 82.7892L44.7123 80.062C44.7123 80.062 46.3731 75.1139 48.1051 72.3601C48.4465 71.8142 48.9887 71.4235 49.6154 71.2716C50.242 71.1196 50.9035 71.2186 51.4579 71.5472L50.6431 74.7897C50.6431 74.7897 50.6743 72.9375 52.9139 73.0352Z" fill="#B5836D"/>
<path d="M43.0605 87.9816C43.2676 87.9038 43.4637 87.7993 43.6437 87.6707C44.0044 87.4486 44.5075 87.0933 45.1131 86.6358C45.7186 86.1783 46.4488 85.6364 47.2458 85.0412C47.6682 84.7049 48.0154 84.2843 48.2655 83.8064C48.3991 83.5545 48.5023 83.2876 48.5727 83.0113C48.6484 82.7404 48.7285 82.465 48.8042 82.1896C49.3964 79.9688 49.8283 77.9078 50.2112 76.4465C50.3938 75.7136 50.5585 75.114 50.6565 74.7186C50.7269 74.51 50.7805 74.2962 50.8168 74.079C50.7142 74.2749 50.6307 74.4802 50.5674 74.692C50.4294 75.0918 50.2424 75.6736 50.0331 76.4021C49.6101 77.8589 49.1426 79.9021 48.5638 82.1274C48.4434 82.6685 48.2704 83.1966 48.0473 83.7043C47.8139 84.1564 47.4896 84.5556 47.0945 84.8769C46.2975 85.4676 45.585 86.0406 44.9929 86.507C44.4007 86.9734 43.9153 87.3509 43.5725 87.5952C43.3955 87.7154 43.2246 87.8444 43.0605 87.9816Z" fill="#7F594B"/>
<path d="M37.4414 85.2811C37.4414 85.3121 37.6595 85.3521 38.0113 85.3299C38.4777 85.2899 38.9316 85.1586 39.347 84.9435C39.7596 84.7318 40.1247 84.4387 40.4201 84.0818C40.6427 83.8108 40.7318 83.6065 40.7095 83.5932C40.2674 84.0324 39.7741 84.4171 39.2402 84.7392C38.6657 84.9942 38.0613 85.1762 37.4414 85.2811Z" fill="#7F594B"/>
<path d="M31.5729 80.062C32.5534 79.9504 33.5104 79.6867 34.4092 79.2803C33.915 79.2968 33.4266 79.3912 32.9621 79.5601C32.476 79.6553 32.0074 79.8246 31.5729 80.062Z" fill="#7F594B"/>
<path d="M29.2487 79.6711C29.484 79.3967 29.6734 79.0863 29.8097 78.7517C30.1773 77.9677 30.4969 77.1623 30.767 76.3399C31.0965 75.3893 31.3948 74.5276 31.6575 73.9236C31.8153 73.6035 31.9535 73.2742 32.0716 72.9375C31.835 73.211 31.6454 73.5217 31.5106 73.8569C31.1429 74.6393 30.8233 75.4433 30.5533 76.2643C30.2238 77.2193 29.9255 78.0766 29.6628 78.6851C29.505 79.0052 29.3667 79.3345 29.2487 79.6711Z" fill="#7F594B"/>
<path d="M2.67596 145.609C2.67596 145.609 2.67596 145.573 2.67596 145.506C2.67596 145.44 2.63144 145.329 2.60027 145.213C2.48846 144.844 2.39631 144.469 2.32422 144.089C2.03425 142.696 1.99504 141.263 2.20845 139.856C2.43107 138.08 3.13903 136.032 4.02063 133.82C4.46588 132.71 4.91114 131.546 5.38311 130.325C5.59683 129.707 5.82836 129.094 6.08661 128.481C6.34485 127.868 6.65653 127.264 7.00383 126.673C8.30867 124.448 9.72795 122.29 11.256 120.211C12.6452 118.265 13.8741 116.497 14.818 114.947C15.5747 113.734 16.2314 112.461 16.7816 111.141C16.9291 110.782 17.0584 110.416 17.169 110.044C17.2046 109.924 17.2357 109.83 17.258 109.75C17.263 109.718 17.263 109.685 17.258 109.653C17.2416 109.683 17.2267 109.714 17.2135 109.746L17.1022 110.026C16.9998 110.27 16.8929 110.648 16.6792 111.105C16.098 112.405 15.4223 113.661 14.6577 114.863C13.7049 116.395 12.4626 118.15 11.0645 120.086C10.3699 121.059 9.63082 122.076 8.89615 123.147C8.16148 124.217 7.41346 125.345 6.74113 126.558C6.39383 127.153 6.10442 127.779 5.815 128.388C5.52559 128.996 5.32077 129.636 5.1115 130.249C4.66625 131.466 4.22099 132.625 3.77574 133.74C2.9075 135.961 2.20845 138.026 1.99473 139.834C1.79662 141.258 1.86152 142.706 2.18619 144.107C2.26823 144.487 2.37532 144.861 2.50677 145.227L2.60473 145.515C2.62268 145.55 2.6468 145.582 2.67596 145.609Z" fill="#7F594B"/>
<path d="M43.0204 91.4994L43.3009 91.2374L44.0979 90.4512C44.7925 89.7583 45.821 88.7367 47.1211 87.3909C47.7668 86.7202 48.4881 85.9695 49.2495 85.1256C49.6778 84.7034 50.0343 84.2143 50.3047 83.6776C50.5545 83.0853 50.7686 82.4786 50.9459 81.8609C51.685 79.3025 52.3395 76.3443 52.9985 73.0619L53.0208 72.9641H52.9183C52.3763 72.9201 51.8341 73.0475 51.3689 73.3284C51.1318 73.4987 50.9363 73.7202 50.7968 73.9762C50.6573 74.2323 50.5774 74.5164 50.563 74.8075L50.7455 74.8297C50.9993 73.8258 51.2754 72.7198 51.5603 71.5916V71.5206L51.5024 71.485C51.2982 71.3513 51.0803 71.2396 50.8524 71.1519C50.6156 71.065 50.3655 71.0199 50.1132 71.0187C49.5968 71.0131 49.094 71.1839 48.6884 71.5028C48.4868 71.6673 48.3138 71.8639 48.1764 72.0847C48.0428 72.2979 47.9003 72.5066 47.7757 72.7287C47.5174 73.1729 47.277 73.6171 47.0455 74.0879C46.1122 76.0223 45.2973 78.0114 44.6055 80.0442L44.6411 79.9954L40.9811 82.7182L41.1414 82.8603L42.5128 80.5284C43.5101 78.0366 44.5431 75.4471 45.6028 72.7909C45.8974 72.1269 46.1242 71.4349 46.2796 70.7255C46.3503 70.3644 46.4008 69.9996 46.431 69.6329C46.4712 69.2369 46.3628 68.8402 46.1267 68.5194C45.8907 68.1986 45.5438 67.9766 45.1531 67.8961C44.7593 67.8102 44.3474 67.8802 44.0044 68.0916C43.9196 68.1443 43.8392 68.2037 43.7639 68.2692L43.5636 68.4647C43.43 68.5979 43.2875 68.7267 43.1673 68.8689C42.9135 69.1487 42.6775 69.4374 42.4504 69.735C41.2557 71.3725 40.187 73.0978 39.2535 74.8963L37.8643 77.5169C37.6427 77.9441 37.3754 78.3462 37.0673 78.7162C36.9194 78.8958 36.7488 79.0555 36.5597 79.1914C36.3932 79.3224 36.1885 79.3957 35.9765 79.4002L36.0522 79.4624C35.7319 78.4951 35.6765 77.46 35.8919 76.4642C36.0742 75.4735 36.3996 74.5145 36.8581 73.6171C37.3033 72.7287 37.7931 71.8404 38.2383 70.952C38.4617 70.5116 38.6609 70.0594 38.835 69.5973C39.0153 69.1334 39.1147 68.6422 39.1289 68.1449C39.1347 67.8917 39.0883 67.64 38.9926 67.4054C38.8968 67.1708 38.7538 66.9584 38.5723 66.7813C38.4758 66.6897 38.3618 66.6184 38.2371 66.5719C38.1124 66.5253 37.9796 66.5044 37.8465 66.5103C37.5957 66.5284 37.3521 66.6028 37.1341 66.728C36.3357 67.2235 35.628 67.8514 35.0414 68.5846C33.9037 69.9454 32.8707 71.3902 31.9514 72.9064L32.1339 72.9686C32.2497 71.7249 32.3625 70.5197 32.4723 69.353V69.2908L32.4322 69.2597L29.2042 66.7724L29.0973 66.6924L29.0661 66.8212C27.4944 73.5105 26.1853 78.9294 25.3794 82.7048C24.9653 84.5837 24.6403 86.045 24.4221 87.0444C24.3153 87.5374 24.2351 87.9327 24.1772 88.177C24.1194 88.4213 24.1016 88.5635 24.1016 88.5635C24.1016 88.5635 24.1416 88.4347 24.204 88.1815L24.4711 87.0577C24.7026 86.0583 25.0366 84.597 25.4729 82.7226C26.31 78.9605 27.6413 73.546 29.2353 66.8612L29.0973 66.9101L32.3165 69.4063L32.2809 69.3219C32.1695 70.4901 32.0538 71.6894 31.9336 72.933L31.8935 73.3506L32.1161 72.9952C33.0302 71.49 34.0587 70.057 35.1928 68.709C35.7628 67.9967 36.4493 67.3856 37.2232 66.9012C37.3959 66.7718 37.606 66.7019 37.822 66.7019C38.038 66.7019 38.2482 66.7718 38.4209 66.9012C38.5811 67.0603 38.7071 67.2502 38.7913 67.4595C38.8755 67.6687 38.9161 67.8928 38.9107 68.1182C38.8942 68.5885 38.7978 69.0526 38.6257 69.4907C38.4548 69.9454 38.2586 70.3903 38.038 70.8232C37.5927 71.7116 37.0985 72.5644 36.6532 73.4883C36.1854 74.4041 35.8525 75.3825 35.6648 76.3932C35.437 77.4366 35.4986 78.5223 35.8429 79.5334L35.8651 79.5867H35.9186C36.1951 79.6004 36.4672 79.5136 36.6844 79.3425C36.8902 79.1955 37.0758 79.0223 37.2365 78.8272C37.555 78.4465 37.8312 78.0325 38.0602 77.5924L39.4494 74.9674C40.3816 73.1833 41.4442 71.47 42.6285 69.8416C43.0576 69.2519 43.5587 68.7177 44.1201 68.2515C44.4153 68.0775 44.7648 68.0193 45.1006 68.0883C45.4364 68.1573 45.7345 68.3484 45.9368 68.6246C46.382 69.1754 46.1505 69.9571 46.0481 70.6411C45.8958 71.3382 45.6735 72.0183 45.3847 72.671C44.325 75.336 43.2964 77.9167 42.2991 80.4129L40.9277 82.7493L40.6561 83.2201L41.1013 82.8958L44.7569 80.1642H44.7836V80.1331C45.4819 78.0994 46.3042 76.1103 47.2458 74.1767C47.4729 73.7326 47.6911 73.2662 47.9671 72.8442C48.1853 72.4067 48.4775 72.01 48.8309 71.6716C49.2001 71.3786 49.6593 71.2217 50.1311 71.2274C50.3614 71.2297 50.5899 71.2687 50.8078 71.3429C51.0231 71.4282 51.229 71.5354 51.4223 71.6627L51.3778 71.5561C51.0928 72.6888 50.8167 73.777 50.5674 74.7986H50.7455C50.7569 74.536 50.8282 74.2795 50.954 74.0486C51.0798 73.8177 51.2567 73.6185 51.4713 73.4661C51.9028 73.2046 52.4063 73.0864 52.9094 73.1285L52.8293 73.0263C52.1837 76.3088 51.5381 79.2669 50.8123 81.8165C50.6395 82.4305 50.4314 83.0341 50.1889 83.6243C49.9258 84.1482 49.5801 84.6266 49.1649 85.0412C48.4079 85.8896 47.6911 86.6446 47.0499 87.3198C45.7542 88.6523 44.7479 89.7005 44.0623 90.429L43.2831 91.2285L43.0204 91.4994Z" fill="#7F594B"/>
<path d="M36.1056 55.6193C36.4408 55.453 36.7396 55.2221 36.9849 54.9401C37.2302 54.658 37.4171 54.3303 37.5349 53.9758L37.8911 51.8571L38.087 54.078C38.3015 54.8122 38.7763 55.4436 39.4227 55.8547C39.0754 56.0259 38.7669 56.2664 38.5165 56.5613C38.2661 56.8562 38.079 57.1992 37.9668 57.5692L37.7352 59.297L37.3879 57.4759C37.2046 56.7543 36.7439 56.1336 36.1056 55.7481L36.0121 55.6948L36.1056 55.6193Z" fill="white"/>
</g>
<defs>
<clipPath id="clip0_35_361">
<rect width="115" height="174" fill="white" transform="matrix(-1 0 0 1 115 0)"/>
</clipPath>
</defs>
</svg>
