<svg width="122" height="166" viewBox="0 0 122 166" fill="none" xmlns="http://www.w3.org/2000/svg">
<g clip-path="url(#clip0_33_408)">
<path d="M107.407 41.4429C108.691 40.8143 109.74 39.7906 110.403 38.521C111.067 37.2514 111.309 35.8024 111.094 34.385C110.879 32.9677 110.22 31.6562 109.211 30.6418C108.202 29.6274 106.897 28.963 105.486 28.7456C106.602 27.7581 107.403 26.4615 107.788 25.0185C108.174 23.5755 108.126 22.0504 107.651 20.6346C107.129 19.236 106.208 18.0233 105.002 17.149C103.796 16.2747 102.36 15.7776 100.873 15.7204C102.872 14.1573 103.525 11.2178 102.795 8.81215C101.962 6.38656 100.223 4.3804 97.9459 3.21611C91.8923 -0.109349 83.3982 2.28987 79.9646 8.29758L78.9333 66.252C80.0623 67.496 81.4871 68.4322 83.0745 68.9729C84.6619 69.5135 86.3599 69.6411 88.0097 69.3436C89.6596 69.046 91.2073 68.3332 92.5081 67.2716C93.8089 66.2101 94.8203 64.8346 95.4476 63.2739C97.5175 63.2792 99.5754 62.9579 101.546 62.3219C103.468 61.5822 105.236 60.0835 105.748 58.0766C106.261 56.0698 105.165 53.6191 103.154 53.1302C105.479 51.8824 107.926 50.5187 109.195 48.2031C110.463 45.8875 109.88 42.3627 107.407 41.4429Z" fill="#1F2937"/>
<path d="M92.7315 12.2212C92.0205 9.05658 89.6759 6.50942 87.0879 4.56688C86.0464 3.68856 84.8056 3.08108 83.475 2.79802C82.8093 2.66967 82.1206 2.74019 81.4944 3.00086C80.8682 3.26153 80.3318 3.7009 79.9518 4.26457L80.1504 6.53515C79.9005 10.1372 82.7127 13.141 84.0451 16.4922C84.6281 17.9524 85.1149 19.7084 86.5562 20.313C87.3349 20.5973 88.1909 20.5813 88.9584 20.268C92.0012 19.2066 93.4362 15.4374 92.7315 12.2212Z" fill="#455A64"/>
<path d="M93.1992 28.9C94.1573 27.5013 94.5963 25.8093 94.4394 24.119C94.2825 22.4287 93.5398 20.8473 92.3408 19.6504C93.6219 17.9523 93.0903 15.3987 91.7002 13.7842C90.3101 12.1698 88.3115 11.2692 86.3705 10.4266C85.1982 5.58315 79.6828 2.28342 74.8847 3.56986C72.2904 -0.0772104 66.9222 -0.533899 62.6623 0.823302C61.6476 1.23172 60.5797 1.49167 59.4914 1.59517C58.692 1.55385 57.8961 1.46146 57.1084 1.31858C52.7332 0.836166 48.4733 4.02012 46.859 8.13675C46.6497 8.81602 46.3524 9.46478 45.975 10.0664C45.3485 10.7479 44.6381 11.3467 43.8611 11.8481C43.0837 12.4841 42.4523 13.2812 42.0101 14.1849C41.5678 15.0886 41.3252 16.0775 41.2987 17.084C41.2667 18.7885 41.8496 20.5831 41.1706 22.1461C40.8311 22.9244 40.2033 23.5677 39.9407 24.3781C39.1912 26.7388 41.824 29.0672 41.4012 31.505C41.3179 32.0003 41.1065 32.4634 40.9784 32.9523C40.7238 33.9653 40.8421 35.0366 41.3115 35.969C41.7023 36.6637 42.2788 37.3069 42.3365 38.0981C42.3105 38.7033 42.205 39.3024 42.0226 39.8798C41.7663 41.3335 45.0077 46.8459 46.2697 47.5985L83.5327 47.0582C84.934 46.7056 86.1916 45.9244 87.1315 44.8228C88.0714 43.7212 88.6472 42.3535 88.7791 40.909C88.7502 40.4274 88.8591 39.9475 89.093 39.526C89.3769 39.2318 89.7167 38.9978 90.0923 38.8378C92.4625 37.487 92.6547 34.1744 92.36 31.46C92.2927 31.0814 92.2927 30.6937 92.36 30.3151C92.545 29.7929 92.8301 29.3122 93.1992 28.9Z" fill="#1F2937"/>
<path d="M82.5846 29.2087C82.5398 22.5835 78.2286 15.0578 71.5985 11.9897C67.4283 10.06 64.2061 10.1114 62.0281 9.91204C58.9737 9.69016 55.9243 10.4057 53.2841 11.9639C51.2406 12.4978 43.8803 19.5926 43.6753 27.1118C43.4319 35.4737 43.4703 45.6624 44.6618 51.8502C47.0704 64.2837 56.6664 65.5444 56.6664 65.5444L56.5639 75.4629L55.7312 83.2909L80.9255 77.1867L82.5846 29.2087Z" fill="#FFBF9D"/>
<path d="M47.8391 38.4261C47.8475 38.8447 48.0195 39.2432 48.3179 39.5356C48.6163 39.828 49.0172 39.9909 49.4342 39.9891C49.6376 39.9986 49.8408 39.9671 50.0319 39.8965C50.2229 39.8258 50.398 39.7174 50.5466 39.5777C50.6953 39.438 50.8146 39.2699 50.8975 39.0831C50.9804 38.8964 51.0252 38.6948 51.0292 38.4904C51.0192 38.0718 50.847 37.6736 50.5491 37.3805C50.2512 37.0874 49.8512 36.9225 49.4342 36.921C49.2305 36.9124 49.0271 36.9447 48.836 37.0161C48.6449 37.0875 48.4699 37.1965 48.3214 37.3367C48.1728 37.4769 48.0536 37.6455 47.9708 37.8325C47.888 38.0196 47.8432 38.2214 47.8391 38.4261Z" fill="#1F2937"/>
<path d="M46.6348 31.8074C46.8398 32.0132 48.0185 31.0741 49.7353 31.0162C51.452 30.9583 52.7396 31.7816 52.9382 31.5629C53.0279 31.4664 52.8101 31.0998 52.2528 30.7139C51.4906 30.2223 50.5955 29.9796 49.6904 30.0192C48.7975 30.0459 47.9361 30.3567 47.2306 30.9068C46.6989 31.3378 46.5323 31.7173 46.6348 31.8074Z" fill="#1F2937"/>
<path d="M57.1468 45.0899C57.1468 44.987 56.0771 44.8391 54.3411 44.6783C53.8991 44.6783 53.4827 44.5754 53.3994 44.2795C53.3518 43.8352 53.4389 43.3868 53.6492 42.993C54.0208 41.9124 54.4179 40.7803 54.8279 39.5968C56.4678 34.734 57.6529 30.7525 57.4479 30.6882C57.2429 30.6238 55.7632 34.4896 54.1233 39.3267C53.7304 40.5231 53.3546 41.6637 52.9958 42.7486C52.7374 43.2895 52.6783 43.9049 52.8293 44.4853C52.8952 44.6429 52.9967 44.7829 53.1256 44.8945C53.2545 45.0061 53.4074 45.0862 53.5724 45.1285C53.8179 45.1861 54.0698 45.212 54.3219 45.2057C56.0643 45.2186 57.1468 45.1864 57.1468 45.0899Z" fill="#1F2937"/>
<path d="M56.66 65.5444C62.5246 65.4303 68.243 63.687 73.1808 60.508C73.1808 60.508 69.081 69.6353 56.5768 68.8699L56.66 65.5444Z" fill="#FF9A6C"/>
<path d="M47.1089 25.3237C47.4099 25.7353 48.7167 25.4073 50.2541 25.4845C51.7916 25.5617 53.0855 25.9219 53.4122 25.5295C53.5532 25.3365 53.3738 24.9313 52.8229 24.5261C52.0726 24.0338 51.2021 23.7579 50.3063 23.7284C49.4105 23.6989 48.5238 23.917 47.743 24.3588C47.1793 24.7319 46.9743 25.1243 47.1089 25.3237Z" fill="#1F2937"/>
<path d="M65.8332 38.3747C65.8351 38.7935 65.6742 39.1965 65.3847 39.498C65.0952 39.7996 64.6999 39.9758 64.283 39.9892C64.0796 40.0049 63.8752 39.9795 63.6818 39.9144C63.4884 39.8494 63.3099 39.746 63.157 39.6104C63.0041 39.4749 62.8798 39.3099 62.7915 39.1253C62.7033 38.9406 62.6528 38.7401 62.6431 38.5355C62.6412 38.1177 62.8012 37.7156 63.0894 37.4143C63.3775 37.1129 63.7712 36.936 64.1869 36.921C64.3905 36.9061 64.5949 36.9321 64.7883 36.9975C64.9817 37.0628 65.1602 37.1661 65.3135 37.3014C65.4667 37.4367 65.5916 37.6013 65.6808 37.7856C65.7701 37.9698 65.8219 38.1701 65.8332 38.3747Z" fill="#1F2937"/>
<path d="M70.1636 31.6788C69.965 31.891 68.7543 30.9841 67.0375 30.9841C65.3208 30.9841 64.0524 31.8396 63.8346 31.6273C63.7449 31.5373 63.9499 31.1578 64.4752 30.759C65.2275 30.2375 66.1235 29.9653 67.0375 29.9807C67.931 29.9837 68.8007 30.2695 69.523 30.7975C70.0803 31.2092 70.2597 31.5887 70.1636 31.6788Z" fill="#1F2937"/>
<path d="M70.4647 25.8769C70.1252 26.2693 68.7991 25.8769 67.2041 25.8319C65.609 25.7868 64.2574 26.0892 63.9499 25.6775C63.8154 25.4781 64.0268 25.0857 64.5905 24.7191C65.3976 24.2551 66.3199 24.0319 67.2489 24.0759C68.1611 24.092 69.0499 24.3687 69.8113 24.8735C70.4198 25.2851 70.5992 25.6904 70.4647 25.8769Z" fill="#1F2937"/>
<path d="M80.9255 41.1212C80.9255 40.1885 81.8928 37.9566 82.8024 37.7829C85.2366 37.3198 89.6503 37.3648 89.9065 43.5719C90.2524 52.0946 81.6557 50.6859 81.6365 50.4415C81.6173 50.1971 81.028 44.3373 80.9255 41.1212Z" fill="#FFBF9D"/>
<path d="M83.8466 47.2576C83.885 47.2576 84.0003 47.3541 84.2566 47.457C84.6096 47.6021 85.0053 47.6021 85.3584 47.457C86.2424 47.0904 86.9406 45.6303 86.9214 44.093C86.9107 43.3615 86.7401 42.6413 86.4218 41.9832C86.3302 41.7208 86.177 41.4844 85.9752 41.2941C85.7734 41.1037 85.5288 40.965 85.2623 40.8897C85.0902 40.8528 84.9107 40.8769 84.7542 40.9578C84.5977 41.0387 84.474 41.1714 84.4039 41.3335C84.3014 41.578 84.3591 41.7452 84.3206 41.7581C84.2822 41.7709 84.1284 41.623 84.1861 41.2692C84.2231 41.0569 84.3317 40.8639 84.4936 40.7225C84.7224 40.5366 85.0139 40.4467 85.3071 40.4716C85.661 40.5294 85.994 40.6783 86.2735 40.9038C86.553 41.1292 86.7696 41.4236 86.9022 41.7581C87.305 42.4781 87.525 43.2866 87.5428 44.1123C87.5428 45.8297 86.7485 47.4699 85.5377 47.8751C85.3124 47.9516 85.0727 47.9763 84.8366 47.9473C84.6004 47.9184 84.3737 47.8366 84.1733 47.7079C83.8722 47.4635 83.821 47.2769 83.8466 47.2576Z" fill="#FF9A6C"/>
<path d="M41.7279 27.292C43.4127 26.1599 44.4568 24.6548 44.2903 22.635C45.4369 22.9373 46.5387 21.4258 47.1729 20.4159C47.8071 19.4061 48.595 18.8786 48.5053 17.6886C48.4683 17.4554 48.4904 17.2165 48.5694 16.994C48.7295 16.6595 49.1331 16.5437 49.479 16.4215C50.3743 16.0962 51.1742 15.5508 51.8053 14.835C52.4365 14.1192 52.8788 13.2559 53.0919 12.3242C54.9451 13.0653 56.9531 13.3306 58.9341 13.096C59.3987 13.7231 60.0139 14.2217 60.7224 14.5453C61.4308 14.869 62.2094 15.007 62.9854 14.9466C63.7614 14.8863 64.5095 14.6294 65.1599 14.2C65.8103 13.7707 66.3416 13.1828 66.7044 12.4914C67.0097 12.9978 67.4201 13.4323 67.9076 13.7653C68.395 14.0983 68.9482 14.3219 69.5294 14.4211C70.6961 14.6173 71.885 14.6433 73.0591 14.4983C72.8751 15.6632 73.1168 16.8556 73.7396 17.8557C74.3623 18.8557 75.3242 19.596 76.4478 19.9399C76.7489 20.0171 77.0884 20.1007 77.2485 20.3773C77.2973 20.5354 77.3139 20.7017 77.2974 20.8663C77.2809 21.031 77.2316 21.1906 77.1524 21.3357C77.0092 21.8316 76.9665 22.3512 77.0269 22.8639C77.0873 23.3766 77.2495 23.872 77.504 24.3206C77.7585 24.7692 78.1 25.162 78.5083 25.4758C78.9167 25.7895 79.3835 26.0177 79.8813 26.147C79.5651 26.4455 79.3207 26.8124 79.1667 27.2199C79.0127 27.6273 78.9532 28.0647 78.9928 28.4987C79.0323 28.9327 79.1698 29.352 79.3948 29.7247C79.6198 30.0974 79.9264 30.4137 80.2913 30.6496C80.6052 30.8297 81.0152 31.042 80.9767 31.4022C80.9512 31.5372 80.8917 31.6634 80.8038 31.7688C80.1271 32.585 79.6961 33.5779 79.561 34.6311C79.5162 35.686 80.2657 36.8438 81.3163 36.8567C81.0247 37.0914 80.7844 37.3838 80.6102 37.7158C80.4361 38.0478 80.3319 38.4122 80.3041 38.7864C80.3041 39.5261 81.0856 40.2529 81.7647 39.9635C82.0529 39.8412 86.2488 38.8635 86.4281 38.6063C88.7214 35.2486 85.5826 31.7366 85.211 27.6715C84.7499 23.6117 83.3623 19.7135 81.1561 16.28C80.2889 14.7931 79.2291 13.4283 78.0044 12.2213C76.5375 10.9466 74.9323 9.84189 73.2192 8.92795C71.0284 7.6415 68.7799 6.40008 66.3009 5.89837C61.6886 4.99143 57.0123 6.82461 52.7781 8.95368C51.1467 9.7027 49.6251 10.6722 48.2555 11.8353C46.7184 13.3413 45.4603 15.1099 44.5401 17.0583C43.118 19.8241 41.9777 22.7894 41.7599 25.8897" fill="#1F2937"/>
<path d="M39.9663 24.3653C40.0577 24.035 40.2027 23.722 40.3955 23.439C40.562 23.1496 40.8054 22.7958 41.0361 22.3777C41.2873 21.8772 41.4313 21.3294 41.4588 20.7697C41.483 20.0626 41.4487 19.3548 41.3564 18.6535C41.2404 17.8127 41.2404 16.9599 41.3564 16.1192C41.5923 14.6125 42.3068 13.2227 43.3934 12.1569C43.7924 11.7741 44.2208 11.4236 44.6746 11.1085C45.1652 10.8 45.5987 10.4082 45.9558 9.95066C46.2678 9.45479 46.5154 8.92087 46.6925 8.3619C47.1294 7.13504 47.7801 5.99597 48.6142 4.99784C49.5062 3.91994 50.5929 3.02084 51.8172 2.34776C52.4581 1.99739 53.1346 1.71705 53.835 1.51157C54.5598 1.31124 55.3063 1.20107 56.0579 1.18353C56.4358 1.18353 56.8202 1.21569 57.2045 1.24142C57.5889 1.26715 57.9604 1.3572 58.3383 1.40865C59.1069 1.53476 59.8934 1.49307 60.6445 1.28644C61.4004 1.1385 62.137 0.842618 62.9121 0.643219C63.7055 0.400348 64.5176 0.223929 65.34 0.115776C66.1531 0.00801977 66.9738 -0.0307108 67.7934 -3.98327e-06C68.639 0.0403261 69.4783 0.16749 70.2981 0.379498C71.9981 0.795378 73.5245 1.73836 74.6605 3.0746L74.9936 3.47983L74.8527 3.43481C77.3093 2.88399 79.8827 3.29818 82.0448 4.59238C84.2068 5.88659 85.7936 7.96264 86.4794 10.3945L86.4089 10.3109C87.4493 10.7412 88.4613 11.2374 89.4389 11.7967C90.3926 12.3387 91.2394 13.0516 91.9372 13.9C92.5907 14.7427 93.0047 15.7474 93.1351 16.8074C93.276 17.834 93.0167 18.8756 92.4112 19.7148V19.5733C93.5922 20.7179 94.3339 22.2438 94.5059 23.8829C94.7541 25.6998 94.2953 27.5428 93.2248 29.0287C93.0262 29.2924 92.8212 29.5432 92.6611 29.807C92.5002 30.0625 92.4055 30.3544 92.3856 30.656C92.3781 30.9443 92.3952 31.2326 92.4369 31.5179C92.5596 32.5864 92.5596 33.6655 92.4369 34.734C92.3481 35.6031 92.0914 36.4465 91.681 37.2169C91.3692 37.7856 90.9307 38.2743 90.3998 38.6448C89.9706 38.9472 89.5862 39.0758 89.3748 39.2366C89.2653 39.3158 89.1644 39.4063 89.0738 39.5068C89.1465 39.3897 89.2424 39.289 89.3556 39.2109C89.567 39.0372 89.945 38.9021 90.3613 38.5676C90.8741 38.2119 91.2991 37.7433 91.6041 37.1976C92.0022 36.4313 92.2481 35.5946 92.328 34.734C92.4402 33.6642 92.4273 32.5848 92.2895 31.5179C92.244 31.2157 92.2247 30.9101 92.2319 30.6045C92.2543 30.2785 92.3554 29.9628 92.5265 29.6847C92.6991 29.4104 92.8874 29.1462 93.0903 28.8936C93.2804 28.6237 93.4537 28.3423 93.6091 28.051C94.2603 26.768 94.5061 25.3162 94.3138 23.8893C94.1403 22.2986 93.4173 20.8193 92.2703 19.7083L92.1998 19.644L92.2575 19.5668C92.8149 18.7657 93.0443 17.7801 92.8981 16.8138C92.7735 15.7943 92.3724 14.8286 91.7386 14.0223C91.0577 13.1993 90.2327 12.5083 89.3044 11.9832C88.3338 11.433 87.3305 10.9432 86.3 10.5167H86.2424V10.4588C85.5693 8.10066 84.027 6.08847 81.9291 4.83147C79.8312 3.57448 77.3352 3.16706 74.9488 3.6921H74.8655L74.8079 3.62134L74.494 3.22254C73.3751 1.93958 71.8863 1.03812 70.2341 0.643219C69.4303 0.439124 68.6086 0.314177 67.7806 0.27015C66.9658 0.234426 66.1495 0.266698 65.34 0.366633C64.5426 0.466891 63.7543 0.630351 62.9826 0.855483C62.2203 1.07418 61.4772 1.37649 60.7021 1.5566C60.3132 1.64841 59.9163 1.70226 59.517 1.7174C59.1246 1.71693 58.7327 1.68683 58.3448 1.62735C57.9604 1.56946 57.5824 1.49871 57.2109 1.45368C56.8406 1.41515 56.4686 1.39583 56.0963 1.39579C55.3646 1.41312 54.6376 1.51895 53.9311 1.71097C53.2467 1.91008 52.5853 2.18177 51.9581 2.52143C49.6208 3.81194 47.8176 5.89616 46.8718 8.40049C46.6953 8.98824 46.4434 9.55042 46.1223 10.0729C45.7642 10.5401 45.3312 10.9444 44.8412 11.2693C44.3869 11.5744 43.9584 11.9164 43.56 12.292C43.162 12.6548 42.8073 13.0627 42.503 13.5077C41.9877 14.3154 41.6392 15.2187 41.4781 16.1642C41.3658 16.9944 41.3658 17.8361 41.4781 18.6663C41.5641 19.3704 41.5919 20.0803 41.5613 20.789C41.5255 21.3624 41.3683 21.9216 41.1001 22.4292C40.8631 22.8601 40.6133 23.1946 40.4595 23.4776C40.3198 23.6824 40.1957 23.8974 40.088 24.1209C39.9983 24.2817 39.9727 24.3717 39.9663 24.3653Z" fill="#455A64"/>
<path d="M70.8426 1.82032C70.8426 1.82032 70.612 1.6981 70.202 1.51157C69.6129 1.24439 68.9823 1.08119 68.3379 1.02915C67.3838 0.941547 66.4237 1.11259 65.5578 1.52443C64.5051 2.03804 63.6416 2.87351 63.0915 3.91079C62.9258 4.22124 62.7947 4.54913 62.7008 4.88849C62.6459 5.03484 62.6243 5.19167 62.6376 5.34749C62.6509 5.50331 62.6987 5.65416 62.7776 5.789L62.989 6.07202L62.6495 5.98197C61.7578 5.7668 60.8176 5.9099 60.0295 6.38077C59.4061 6.75873 58.9191 7.32659 58.6394 8.00169C58.4545 8.45065 58.3566 8.93095 58.3512 9.41678C58.3512 9.75769 58.3832 9.94422 58.3512 9.95065C58.3307 9.90817 58.3177 9.86248 58.3127 9.81558C58.2804 9.68706 58.2611 9.55561 58.2551 9.42321C58.2204 8.91951 58.297 8.41434 58.4793 7.9438C58.7494 7.21787 59.2518 6.6025 59.9078 6.19423C60.32 5.93892 60.7783 5.76774 61.2564 5.69047C61.7346 5.61321 62.2232 5.6314 62.6943 5.74398L62.5662 5.93694C62.4616 5.77497 62.3945 5.59142 62.3701 5.39991C62.3457 5.20839 62.3646 5.01381 62.4253 4.8306C62.5242 4.47152 62.6617 4.12429 62.8353 3.79501C63.4013 2.71227 64.2998 1.84159 65.3976 1.31217C66.3007 0.889023 67.3038 0.728578 68.2931 0.849049C68.9644 0.914075 69.6169 1.10844 70.2149 1.42152C70.3753 1.50431 70.5295 1.5989 70.6761 1.70454C70.7978 1.77529 70.849 1.81388 70.8426 1.82032Z" fill="#455A64"/>
<path d="M84.9228 11.1728C84.9228 11.1728 84.8395 11.3015 84.6345 11.488C84.3501 11.7657 84.0365 12.0116 83.6992 12.2213C83.1873 12.5301 82.6146 12.7232 82.0209 12.7873C81.2648 12.8679 80.5061 12.6614 79.8941 12.2084L80.0799 12.1762L79.8429 12.5364C79.7532 12.6522 79.6571 12.7616 79.561 12.8774C78.9981 13.4922 78.2945 13.9602 77.5111 14.241C76.8674 14.4761 76.1842 14.5832 75.4997 14.5562C75.0406 14.537 74.587 14.4481 74.1545 14.2924C73.9914 14.2435 73.8376 14.1674 73.6996 14.0673C74.2863 14.247 74.8933 14.3508 75.5061 14.3761C76.1632 14.3747 76.8145 14.2526 77.4279 14.0159C78.1797 13.7327 78.8538 13.2741 79.3945 12.678C79.4842 12.5622 79.5802 12.4593 79.6635 12.3499L79.8877 12.0154L79.9646 11.8932L80.0735 11.9768C80.6271 12.3871 81.3093 12.5834 81.9953 12.53C82.5613 12.4811 83.111 12.3147 83.6095 12.0412C84.4679 11.578 84.8971 11.1407 84.9228 11.1728Z" fill="#455A64"/>
<path d="M89.6823 18.9365C89.6936 18.9895 89.6936 19.0443 89.6823 19.0973C89.643 19.2447 89.5826 19.3855 89.503 19.5154C89.192 19.9907 88.7139 20.3307 88.1641 20.4674C87.3519 20.6439 86.5061 20.579 85.7299 20.2808C85.2692 20.1414 84.8159 19.9782 84.3718 19.792C83.8628 19.5977 83.437 19.2316 83.1675 18.7564L83.1099 18.6213L83.2764 18.6535C82.5363 19.3064 81.7028 19.8442 80.8038 20.2487C80.0574 20.578 79.2337 20.6895 78.4272 20.5703C77.8835 20.493 77.3703 20.2709 76.941 19.9271C76.8231 19.8389 76.7156 19.7375 76.6207 19.6248C76.5567 19.5411 76.531 19.5025 76.5375 19.4961C76.5439 19.4897 76.6912 19.6376 76.9987 19.8499C77.4356 20.1364 77.9339 20.3149 78.4528 20.3709C79.2252 20.4619 80.0077 20.3373 80.7141 20.0107C81.5849 19.6054 82.392 19.0745 83.1099 18.4348L83.2444 18.3254L83.3149 18.4927C83.3149 18.5248 83.3469 18.5634 83.3597 18.602C83.6047 19.0243 83.987 19.3491 84.4423 19.5218C84.8779 19.7148 85.3391 19.8692 85.7619 20.0107C86.4977 20.3053 87.3009 20.3877 88.0808 20.2487C88.5922 20.1292 89.0457 19.8333 89.362 19.4125C89.4814 19.2627 89.5885 19.1036 89.6823 18.9365Z" fill="#455A64"/>
<path d="M62.8865 48.9814C62.8074 48.6028 62.6667 48.2399 62.4701 47.9072C62.3685 47.7395 62.2255 47.6011 62.0549 47.5053C61.8843 47.4095 61.6919 47.3596 61.4965 47.3605C61.2182 47.3915 60.953 47.4958 60.7278 47.6628L57.6529 49.5281L57.3839 50.2807C57.9959 51.2444 58.7982 52.0719 59.7412 52.7121C60.0111 52.928 60.339 53.0579 60.6829 53.0852C61.1197 53.0365 61.5266 52.839 61.836 52.5256C62.2926 52.2121 62.6699 51.7958 62.9378 51.3099C63.178 50.5494 63.1599 49.7305 62.8865 48.9814Z" fill="#FF9A6C"/>
<path d="M60.5676 53.3039C61.1149 53.0474 61.6203 52.7091 62.0666 52.3005C62.5177 51.8433 62.827 51.2646 62.957 50.6345C63.1071 49.8679 62.9895 49.0728 62.6239 48.3832C62.5295 48.2019 62.4157 48.0315 62.2844 47.8751C62.1793 47.7266 62.0466 47.6 61.8936 47.502C61.8339 47.4621 61.7654 47.4372 61.6941 47.4294C61.6227 47.4215 61.5506 47.431 61.4836 47.457C61.3187 47.5292 61.1601 47.6153 61.0096 47.7143C60.369 48.1131 59.7733 48.4668 59.28 48.7563C58.7734 49.1053 58.2272 49.3924 57.6529 49.6118C58.1023 49.1808 58.6012 48.805 59.1391 48.4926C59.6131 48.1645 60.1832 47.785 60.8238 47.3734C60.9911 47.2469 61.1742 47.1431 61.3683 47.0646C61.4902 47.015 61.6219 46.9944 61.753 47.0045C61.8842 47.0145 62.0112 47.0549 62.1242 47.1225C62.3291 47.2446 62.5076 47.4064 62.6495 47.5985C62.7977 47.7749 62.9266 47.9668 63.0339 48.171C63.4528 48.9592 63.5756 49.8723 63.3798 50.7439C63.2153 51.4401 62.8419 52.0687 62.31 52.5449C61.962 52.8657 61.549 53.1071 61.0993 53.2524C60.7598 53.3232 60.574 53.3296 60.5676 53.3039Z" fill="#1F2937"/>
<path d="M106.511 166.775L100.265 150.63C100.265 150.63 100.688 133.745 102.257 126.02C103.827 118.295 100.335 75.4565 100.335 75.4565L81.1561 70.1563C81.1561 70.1563 76.8001 78.1644 68.4468 77.3861C58.6651 76.4856 56.4614 70.1563 56.4614 70.1563L43.56 72.2468C43.56 72.2468 36.2957 98.3038 33.1825 104.408C30.0692 110.512 29.8194 129.288 29.8194 129.288C29.8194 129.288 33.1953 139.785 34.028 143.291C34.1503 143.801 34.11 144.336 33.9127 144.822L26.0655 167.013L106.511 166.775Z" fill="#27B04B"/>
<g opacity="0.3">
<path d="M92.7315 124.193C92.9109 126.528 92.4176 130.15 92.8597 132.452L96.6135 133.263C98.0429 130.484 98.9876 127.479 99.4065 124.38C99.4065 124.38 92.6803 123.531 92.7315 124.193Z" fill="black"/>
</g>
<g opacity="0.3">
<path d="M87.4018 139.039C86.9389 138.435 86.2802 138.012 85.5397 137.844C84.7992 137.676 84.0235 137.774 83.3469 138.119L72.2775 141.47L64.3855 139.419C65.9502 142.527 68.5351 144.997 71.7038 146.413C74.8726 147.828 78.4308 148.102 81.7775 147.189C83.1355 146.816 84.5384 146.243 85.9157 146.546C87.2929 146.848 88.209 147.832 89.2275 148.687C92.3344 151.312 97.0683 151.466 101.117 151.807C97.2156 146.719 92.0909 143.439 87.4018 139.039Z" fill="black"/>
</g>
<path d="M93.6796 130.047L101.405 131.481L100.085 102.723L100.348 75.4565C100.348 75.4565 110.111 78.5633 114.973 87.7999C119.835 97.0366 120.738 109.67 121.263 116.526C121.859 124.419 122.378 143.831 121.628 148.527C120.879 153.222 115.568 158.091 106.594 155.197C102.058 153.737 86.0374 140.023 86.0374 140.023L93.6796 130.047Z" fill="#27B04B"/>
<path d="M43.56 72.2468C43.56 72.2468 27.3467 75.3086 24.0541 81.6893C20.7615 88.0701 5.1247 123.563 7.14896 133.79C9.17322 144.018 21.2035 148.585 25.2648 144.487C29.3261 140.39 33.2081 129.088 33.2081 129.088L43.56 72.2468Z" fill="#27B04B"/>
<path d="M103.071 153.293C103.038 153.277 103.008 153.258 102.981 153.235L102.731 153.061L101.764 152.354L98.1829 149.684L85.9669 140.499L85.8772 140.428L85.9477 140.338C87.2929 138.64 88.715 136.839 90.1884 134.987C91.5528 133.257 92.8853 131.578 94.16 129.976L94.2049 129.918H94.2689L100.854 131.359H100.816C102.863 131.078 104.946 131.249 106.921 131.861C108.444 132.324 109.882 133.037 111.174 133.971C112.009 134.568 112.776 135.256 113.461 136.022C113.698 136.286 113.852 136.511 113.967 136.666L114.095 136.833L114.134 136.891L114.082 136.846L113.941 136.691C113.82 136.556 113.653 136.338 113.41 136.048C112.716 135.301 111.945 134.631 111.11 134.048C109.816 133.14 108.384 132.45 106.869 132.002C104.919 131.415 102.864 131.259 100.848 131.546H100.809L94.2241 130.124L94.3394 130.085C93.0582 131.687 91.7322 133.372 90.3678 135.096C88.8944 136.949 87.4659 138.75 86.1271 140.448V140.287L98.2982 149.543L101.834 152.257L102.776 152.997L103.019 153.19L103.071 153.293Z" fill="#1F2937"/>
<path d="M101.424 104.845C101.445 104.934 101.458 105.025 101.463 105.115C101.463 105.315 101.501 105.572 101.527 105.887C101.578 106.588 101.649 107.547 101.725 108.724C101.879 111.117 102.071 114.429 102.142 118.096C102.221 121.226 102.142 124.358 101.905 127.48C101.866 128.079 101.802 128.619 101.751 129.095C101.7 129.571 101.649 129.976 101.597 130.311L101.482 131.076C101.47 131.165 101.451 131.254 101.424 131.34C101.413 131.25 101.413 131.159 101.424 131.07C101.424 130.864 101.469 130.613 101.495 130.298C101.52 129.982 101.572 129.558 101.61 129.082C101.649 128.606 101.7 128.066 101.732 127.467C101.892 125.075 101.969 121.762 101.898 118.102C101.828 114.442 101.661 111.13 101.552 108.73C101.501 107.553 101.456 106.595 101.424 105.894C101.424 105.581 101.424 105.323 101.424 105.122C101.414 105.03 101.414 104.937 101.424 104.845Z" fill="#1F2937"/>
<path d="M32.7853 95.8917C32.7853 95.8917 32.7853 95.9303 32.7853 96.0139L32.6892 96.3677C32.5995 96.6958 32.4778 97.1524 32.3177 97.7313C32.1575 98.3102 31.9525 99.0178 31.7411 99.8797C31.5297 100.742 31.2607 101.681 31.0173 102.748C30.4114 105.237 29.9346 107.755 29.5888 110.293C29.5119 111.007 29.3966 111.741 29.3389 112.5C29.2813 113.259 29.2236 114.024 29.166 114.809C29.1083 115.594 29.1275 116.391 29.1083 117.202C29.0891 118.012 29.1468 118.842 29.1596 119.672C29.3181 122.805 29.6905 125.923 30.2742 129.005C30.4279 129.712 30.5753 130.401 30.7162 131.07C30.8571 131.713 30.9916 132.395 31.1582 132.999C31.4785 134.241 31.7347 135.411 32.0486 136.46C32.3625 137.508 32.6123 138.467 32.8558 139.303C33.0992 140.139 33.3298 140.847 33.4963 141.438L33.8999 142.783L34.0024 143.136C34.0024 143.22 34.0344 143.259 34.0024 143.259C33.985 143.221 33.9701 143.182 33.9576 143.143L33.8295 142.802C33.727 142.48 33.5732 142.03 33.381 141.464C33.1889 140.898 32.9518 140.178 32.6828 139.341C32.4138 138.505 32.1575 137.553 31.8436 136.505C31.5297 135.456 31.2543 134.286 30.9212 133.044C30.7546 132.401 30.6137 131.758 30.4728 131.115C30.3318 130.471 30.1781 129.751 30.0244 129.043C29.4223 125.955 29.0412 122.828 28.8841 119.685C28.8841 118.842 28.8265 118.019 28.8329 117.202C28.8393 116.385 28.8713 115.581 28.8969 114.796C28.9225 114.011 29.0122 113.233 29.0699 112.474C29.1275 111.715 29.2492 110.982 29.3325 110.261C29.689 107.719 30.183 105.198 30.8123 102.71C31.0685 101.642 31.3376 100.69 31.5682 99.8475C31.7988 99.0049 32.0102 98.2909 32.2088 97.7056L32.6187 96.3548C32.67 96.2133 32.7084 96.0976 32.734 96.0075C32.747 95.9672 32.7641 95.9284 32.7853 95.8917Z" fill="#1F2937"/>
<path d="M30.9596 99.5581C30.4753 98.6407 30.0598 97.6882 29.7169 96.7086C29.3068 95.7564 28.9643 94.7763 28.692 93.7755C29.1795 94.6914 29.595 95.6441 29.9347 96.625C30.3517 97.5745 30.6943 98.5552 30.9596 99.5581Z" fill="#1F2937"/>
<path d="M104.506 97.8728C104.038 99.0977 103.499 100.294 102.891 101.456C102.352 102.65 101.745 103.812 101.072 104.935C101.535 103.709 102.072 102.513 102.68 101.353C103.221 100.158 103.83 98.9961 104.506 97.8728Z" fill="#1F2937"/>
<g opacity="0.3">
<path d="M29.2492 95.197C29.3194 101.465 28.6964 107.721 27.3915 113.85L27.8079 120.546C28.0513 126.258 26.6036 130.317 24.0605 135.437C26.4243 134.324 27.9809 131.899 28.6471 129.365C29.3133 126.831 29.2172 124.155 29.0571 121.537C28.7289 117.674 28.8773 113.785 29.4991 109.959C29.9155 107.714 30.6265 103.43 31.1902 101.353C31.1902 101.346 31.4977 100.426 29.2492 95.197Z" fill="black"/>
</g>
<g opacity="0.3">
<path d="M116.209 136.672C115.671 133.758 112.929 131.655 110.053 130.986C107.177 130.317 104.333 130.825 101.424 131.346C107.901 131.057 111.911 133.99 114.704 137.605C114.861 137.882 115.121 138.085 115.428 138.171C115.592 138.176 115.753 138.128 115.888 138.034C116.022 137.94 116.124 137.806 116.177 137.65C116.277 137.333 116.288 136.995 116.209 136.672Z" fill="black"/>
</g>
<path d="M83.3277 124.573C83.0252 124.574 82.726 124.511 82.4501 124.386C82.0463 124.212 81.7031 123.922 81.4642 123.551C81.2252 123.181 81.1013 122.748 81.1082 122.307C81.115 121.865 81.2524 121.436 81.5027 121.074C81.7531 120.711 82.1051 120.431 82.5141 120.27C82.7826 120.155 83.0713 120.096 83.3629 120.096C83.6546 120.096 83.9432 120.155 84.2117 120.27C84.7527 120.505 85.1788 120.945 85.3962 121.495C85.6136 122.045 85.6046 122.66 85.3712 123.203C85.2551 123.472 85.0874 123.716 84.8774 123.92C84.6675 124.124 84.4195 124.285 84.1476 124.393C83.888 124.504 83.6099 124.565 83.3277 124.573ZM83.3277 122.039C83.2894 122.033 83.2506 122.033 83.2124 122.039C83.1409 122.07 83.0838 122.128 83.0522 122.2C83.0364 122.236 83.0282 122.275 83.0282 122.315C83.0282 122.355 83.0364 122.395 83.0522 122.431C83.0649 122.469 83.0858 122.504 83.1135 122.533C83.1412 122.562 83.175 122.584 83.2124 122.598C83.2487 122.614 83.288 122.622 83.3277 122.622C83.3674 122.622 83.4066 122.614 83.443 122.598C83.5162 122.567 83.5754 122.51 83.6095 122.437C83.6253 122.401 83.6337 122.361 83.6342 122.321C83.6347 122.281 83.6273 122.242 83.6124 122.205C83.5975 122.167 83.5754 122.134 83.5474 122.105C83.5195 122.077 83.4861 122.054 83.4494 122.039C83.4114 122.031 83.3721 122.031 83.3341 122.039H83.3277Z" fill="#AE7461"/>
<path d="M78.4913 124.013C78.0516 124.013 77.6219 123.882 77.2563 123.637C76.8908 123.392 76.6059 123.043 76.4376 122.636C76.2694 122.228 76.2254 121.779 76.3111 121.346C76.3969 120.913 76.6086 120.515 76.9195 120.203C77.2304 119.891 77.6264 119.678 78.0576 119.592C78.4888 119.506 78.9357 119.55 79.3419 119.719C79.7481 119.888 80.0952 120.174 80.3395 120.541C80.5837 120.908 80.7141 121.34 80.7141 121.781C80.7124 122.373 80.4777 122.94 80.0612 123.358C79.6447 123.776 79.0803 124.012 78.4913 124.013ZM78.4913 121.479C78.4317 121.479 78.3735 121.497 78.324 121.53C78.2745 121.563 78.2359 121.61 78.2131 121.666C78.1903 121.721 78.1844 121.782 78.196 121.84C78.2076 121.899 78.2363 121.953 78.2784 121.995C78.3205 122.037 78.3741 122.066 78.4325 122.078C78.4909 122.09 78.5515 122.084 78.6065 122.061C78.6615 122.038 78.7085 121.999 78.7416 121.949C78.7747 121.9 78.7923 121.841 78.7923 121.781C78.7923 121.701 78.7606 121.624 78.7042 121.568C78.6477 121.511 78.5711 121.479 78.4913 121.479Z" fill="#FF9A6C"/>
<path d="M62.0666 123.627C61.627 123.627 61.1972 123.497 60.8317 123.251C60.4661 123.006 60.1812 122.657 60.013 122.25C59.8447 121.842 59.8007 121.393 59.8865 120.96C59.9722 120.527 60.1839 120.129 60.4948 119.817C60.8057 119.505 61.2017 119.293 61.6329 119.206C62.0641 119.12 62.5111 119.164 62.9172 119.333C63.3234 119.502 63.6706 119.788 63.9148 120.155C64.1591 120.523 64.2894 120.954 64.2894 121.395C64.2877 121.987 64.053 122.554 63.6365 122.972C63.22 123.39 62.6556 123.626 62.0666 123.627ZM62.0666 121.093C61.9867 121.093 61.9102 121.125 61.8537 121.182C61.7972 121.238 61.7655 121.315 61.7655 121.395C61.7655 121.476 61.7972 121.553 61.8537 121.609C61.9102 121.666 61.9867 121.698 62.0666 121.698C62.1464 121.698 62.223 121.666 62.2795 121.609C62.336 121.553 62.3677 121.476 62.3677 121.395C62.3677 121.315 62.336 121.238 62.2795 121.182C62.223 121.125 62.1464 121.093 62.0666 121.093Z" fill="#FF9A6C"/>
<path d="M89.3236 124.412C88.6832 123.732 87.8225 123.303 86.8958 123.203C85.9767 123.105 85.0526 123.062 84.1284 123.074C78.4144 122.881 72.9822 119.575 67.2938 120.206C63.7706 120.598 60.5996 122.463 57.685 124.444L70.0868 128.947L86.742 128.053C87.799 127.995 89.0097 127.86 89.6119 126.979C89.8394 126.575 89.9341 126.109 89.8823 125.648C89.8306 125.188 89.635 124.755 89.3236 124.412Z" fill="white"/>
<path d="M73.7701 125.281C73.3305 125.281 72.9007 125.15 72.5352 124.904C72.1697 124.659 71.8847 124.311 71.7165 123.903C71.5483 123.495 71.5042 123.046 71.59 122.613C71.6758 122.18 71.8875 121.782 72.1984 121.47C72.5092 121.158 72.9053 120.946 73.3365 120.859C73.7677 120.773 74.2146 120.818 74.6208 120.986C75.027 121.155 75.3741 121.442 75.6184 121.809C75.8626 122.176 75.993 122.607 75.993 123.049C75.993 123.641 75.7588 124.208 75.3419 124.627C74.9251 125.045 74.3597 125.281 73.7701 125.281ZM73.7701 122.746C73.7106 122.746 73.6524 122.764 73.6029 122.797C73.5534 122.83 73.5148 122.878 73.492 122.933C73.4692 122.988 73.4632 123.049 73.4749 123.108C73.4865 123.166 73.5151 123.22 73.5572 123.262C73.5994 123.305 73.653 123.333 73.7114 123.345C73.7698 123.357 73.8303 123.351 73.8854 123.328C73.9404 123.305 73.9874 123.266 74.0205 123.217C74.0536 123.167 74.0712 123.108 74.0712 123.049C74.0712 122.968 74.0395 122.892 73.983 122.835C73.9266 122.778 73.85 122.746 73.7701 122.746Z" fill="#AE7461"/>
<path d="M64.7635 126.072C64.3238 126.072 63.8941 125.941 63.5285 125.696C63.163 125.45 62.8781 125.102 62.7098 124.694C62.5416 124.286 62.4976 123.837 62.5833 123.404C62.6691 122.971 62.8808 122.574 63.1917 122.261C63.5025 121.949 63.8986 121.737 64.3298 121.651C64.761 121.564 65.2079 121.609 65.6141 121.778C66.0203 121.947 66.3674 122.233 66.6117 122.6C66.8559 122.967 66.9863 123.398 66.9863 123.84C66.9863 124.432 66.7521 124.999 66.3352 125.418C65.9184 125.837 65.353 126.072 64.7635 126.072ZM64.7635 123.544C64.7036 123.544 64.6452 123.562 64.5955 123.595C64.5459 123.629 64.5073 123.676 64.4847 123.732C64.4622 123.788 64.4566 123.849 64.4687 123.908C64.4809 123.966 64.5102 124.02 64.5529 124.062C64.5957 124.104 64.6499 124.132 64.7088 124.143C64.7676 124.154 64.8283 124.147 64.8832 124.124C64.9381 124.1 64.9846 124.06 65.0169 124.009C65.0492 123.959 65.0658 123.9 65.0645 123.84C65.0629 123.761 65.0304 123.685 64.9741 123.63C64.9178 123.575 64.8422 123.544 64.7635 123.544Z" fill="#AE7461"/>
<path d="M81.0152 126.323C80.5755 126.323 80.1458 126.192 79.7802 125.946C79.4147 125.701 79.1298 125.353 78.9615 124.945C78.7933 124.537 78.7493 124.088 78.835 123.655C78.9208 123.222 79.1325 122.824 79.4434 122.512C79.7543 122.2 80.1503 121.988 80.5815 121.901C81.0127 121.815 81.4596 121.86 81.8658 122.028C82.272 122.197 82.6191 122.483 82.8634 122.851C83.1076 123.218 83.238 123.649 83.238 124.091C83.2363 124.682 83.0016 125.249 82.5851 125.667C82.1686 126.085 81.6042 126.321 81.0152 126.323ZM81.0152 123.788C80.9556 123.788 80.8974 123.806 80.8479 123.839C80.7984 123.872 80.7598 123.92 80.737 123.975C80.7142 124.03 80.7083 124.091 80.7199 124.15C80.7315 124.208 80.7602 124.262 80.8023 124.304C80.8444 124.347 80.898 124.375 80.9564 124.387C81.0148 124.399 81.0754 124.393 81.1304 124.37C81.1854 124.347 81.2324 124.308 81.2655 124.259C81.2986 124.209 81.3162 124.15 81.3162 124.091C81.3162 124.01 81.2845 123.933 81.2281 123.877C81.1716 123.82 81.095 123.788 81.0152 123.788Z" fill="#FFBF9D"/>
<path d="M55.4941 123.608C55.4941 123.608 58.9789 134.221 62.1691 135.939C65.3592 137.656 72.4697 139.277 76.0826 139.232C79.6956 139.187 81.8479 139.103 84.769 137.482L84.8523 137.437C88.3894 135.435 91.138 132.278 92.6418 128.49L94.4547 123.949L55.4941 123.608Z" fill="#E0E0E0"/>
<path d="M78.6322 139.187C78.6322 139.187 72.2263 135.167 70.7145 135.649C70.2847 135.795 69.9101 136.07 69.6419 136.437C69.3736 136.804 69.2247 137.246 69.2155 137.701C68.0543 136.604 66.8147 135.594 65.5065 134.678C65.1637 134.394 64.7531 134.204 64.3151 134.127C63.877 134.051 63.4267 134.09 63.0082 134.241L62.752 134.556L62.8673 135.115C62.8673 135.115 59.0238 133.99 60.7854 136.241C62.547 138.492 70.0675 143.124 71.3039 143.702C72.5402 144.281 78.2735 145.999 80.9127 144.397C82.5555 143.952 84.0447 143.062 85.2174 141.824C87.0495 139.792 89.7528 136.485 89.7528 136.485L89.5734 133.179L82.2195 138.672L78.6322 139.187Z" fill="#FFBF9D"/>
<path d="M94.4355 131.218C94.378 130.761 94.1887 130.332 93.891 129.983C93.5707 129.654 92.802 129.371 92.4561 129.674C91.7046 130.377 91.0689 131.196 90.5727 132.099C89.9898 132.504 89.2467 132.562 88.7086 133.019C88.4234 133.229 88.1889 133.502 88.0226 133.816C87.8563 134.13 87.7623 134.477 87.7477 134.832C87.7935 135.255 87.9617 135.654 88.2317 135.981C88.5016 136.308 88.8612 136.549 89.2659 136.672C90.0772 136.91 90.9322 136.956 91.7642 136.807C92.6722 136.8 93.5421 136.44 94.1921 135.804C94.6199 135.16 94.8061 134.385 94.7173 133.617C94.7002 132.81 94.6058 132.006 94.4355 131.218Z" fill="#FFBF9D"/>
<path d="M67.3963 140.789C67.0281 140.58 66.688 140.325 66.3841 140.03C64.8633 138.673 63.6545 137.001 62.8417 135.128C62.7623 134.956 62.7334 134.764 62.7584 134.575C62.7687 134.503 62.7933 134.433 62.8307 134.37C62.8681 134.307 62.9175 134.252 62.9762 134.208C63.1812 134.067 63.3285 134.151 63.3157 134.157C63.3029 134.163 63.1812 134.157 63.0339 134.279C62.9479 134.363 62.8955 134.475 62.8865 134.594C62.881 134.757 62.9162 134.919 62.989 135.064C63.4308 135.964 63.9472 136.824 64.5328 137.637C65.1254 138.448 65.7831 139.21 66.4995 139.914C66.8133 140.19 67.1126 140.482 67.3963 140.789Z" fill="#FF9A6C"/>
<path d="M80.7141 144.043C80.5332 144.064 80.3505 144.064 80.1696 144.043C79.9563 144.058 79.7423 144.058 79.529 144.043C79.2856 144.043 79.0037 144.005 78.6963 143.953C77.9731 143.846 77.2597 143.68 76.5631 143.458C75.7111 143.179 74.8858 142.824 74.0968 142.397C73.3179 141.956 72.5784 141.448 71.8868 140.879C71.3257 140.407 70.8031 139.89 70.3238 139.335C70.1124 139.103 69.9522 138.872 69.7985 138.692C69.6678 138.526 69.5479 138.352 69.4398 138.171C69.3279 138.027 69.2353 137.869 69.1643 137.701C69.2027 137.701 69.6191 138.344 70.4455 139.245C72.1349 141.092 74.2643 142.478 76.6336 143.271C77.3142 143.506 78.0126 143.684 78.7219 143.805C79.9198 143.998 80.7141 143.998 80.7141 144.043Z" fill="#FF9A6C"/>
<path d="M90.9635 136.961C90.8735 137.013 90.7723 137.042 90.6688 137.045C89.9714 137.126 89.27 136.93 88.715 136.498C88.3023 136.176 88.0109 135.722 87.8887 135.212C87.7559 134.703 87.8153 134.162 88.0552 133.694C88.2538 133.319 88.5564 133.011 88.9264 132.806C89.1715 132.668 89.4415 132.581 89.7208 132.549C89.8217 132.524 89.9273 132.524 90.0282 132.549C89.6706 132.62 89.3266 132.748 89.0097 132.928C88.686 133.137 88.423 133.428 88.2474 133.771C88.0403 134.197 87.9926 134.683 88.1129 135.141C88.2278 135.6 88.4859 136.01 88.8496 136.312C89.1496 136.558 89.4993 136.736 89.8745 136.833C90.2325 136.911 90.5972 136.954 90.9635 136.961Z" fill="#FF9A6C"/>
<path d="M68.6006 122.528C68.1609 122.528 67.7312 122.397 67.3656 122.151C67.0001 121.906 66.7152 121.558 66.547 121.15C66.3787 120.742 66.3347 120.293 66.4205 119.86C66.5062 119.427 66.7179 119.029 67.0288 118.717C67.3397 118.405 67.7357 118.193 68.1669 118.106C68.5981 118.02 69.0451 118.065 69.4512 118.233C69.8574 118.402 70.2046 118.689 70.4488 119.056C70.6931 119.423 70.8234 119.854 70.8234 120.296C70.8234 120.888 70.5892 121.455 70.1724 121.874C69.7555 122.292 69.1901 122.528 68.6006 122.528ZM68.6006 120C68.5408 120 68.4823 120.018 68.4327 120.051C68.383 120.085 68.3445 120.132 68.3219 120.188C68.2993 120.243 68.2937 120.305 68.3059 120.363C68.318 120.422 68.3473 120.476 68.3901 120.518C68.4328 120.56 68.4871 120.588 68.5459 120.599C68.6047 120.61 68.6654 120.603 68.7203 120.579C68.7752 120.556 68.8218 120.516 68.8541 120.465C68.8864 120.415 68.9029 120.356 68.9017 120.296C68.9 120.217 68.8675 120.141 68.8112 120.086C68.755 120.031 68.6793 120 68.6006 120Z" fill="#FFBF9D"/>
<path d="M34.9441 66.9531C34.5036 66.9556 34.0724 66.8267 33.705 66.5827C33.3376 66.3387 33.0507 65.9907 32.8807 65.5827C32.7107 65.1747 32.6652 64.7252 32.7501 64.2912C32.8349 63.8572 33.0462 63.4583 33.3572 63.1452C33.6682 62.832 34.0649 62.6186 34.4968 62.5322C34.9288 62.4457 35.3766 62.4901 35.7834 62.6596C36.1902 62.8292 36.5377 63.1162 36.7817 63.4844C37.0258 63.8526 37.1554 64.2853 37.1541 64.7275C37.1541 65.3167 36.9215 65.8818 36.5072 66.2989C36.0929 66.7161 35.5308 66.9514 34.9441 66.9531ZM34.9441 64.4252C34.8845 64.4252 34.8263 64.4429 34.7768 64.4762C34.7273 64.5094 34.6887 64.5566 34.6659 64.6118C34.6431 64.6671 34.6372 64.7279 34.6488 64.7865C34.6604 64.8451 34.6891 64.899 34.7312 64.9413C34.7733 64.9836 34.8269 65.0124 34.8853 65.024C34.9437 65.0357 35.0043 65.0297 35.0593 65.0068C35.1143 64.9839 35.1613 64.9452 35.1944 64.8955C35.2275 64.8458 35.2452 64.7873 35.2452 64.7275C35.2452 64.6473 35.2134 64.5704 35.157 64.5137C35.1005 64.4571 35.0239 64.4252 34.9441 64.4252Z" fill="#FFBF9D"/>
<path d="M44.0148 66.1619C43.8309 65.7503 43.5121 65.4144 43.1116 65.2099C42.4482 64.8216 41.7007 64.6008 40.9336 64.5667C40.5048 64.5856 40.0752 64.5575 39.6524 64.4831C39.2114 64.3129 38.7832 64.1108 38.3712 63.8785C37.8818 63.683 37.3478 63.6289 36.8294 63.7221C36.3109 63.8153 35.8288 64.0521 35.4373 64.4059C34.9953 64.8112 34.6558 65.3836 34.0793 65.538C33.6762 65.5851 33.2686 65.5742 32.8686 65.5058C32.5192 65.4953 32.1718 65.5618 31.8508 65.7007C31.5298 65.8396 31.2431 66.0476 31.0109 66.3099L38.3776 68.8184C39.1298 69.1269 39.9467 69.242 40.7543 69.1533C41.562 69.0645 42.3348 68.7748 43.0027 68.3103C43.7137 67.8279 44.3095 66.966 44.0148 66.1619Z" fill="#F5F5F5"/>
<path d="M36.5904 68.9921C36.1505 68.9921 35.7205 68.861 35.3548 68.6155C34.9891 68.37 34.7042 68.021 34.5361 67.6128C34.3681 67.2046 34.3244 66.7555 34.4107 66.3223C34.497 65.8892 34.7094 65.4915 35.0209 65.1796C35.3324 64.8677 35.7291 64.6556 36.1607 64.5702C36.5923 64.4849 37.0394 64.53 37.4455 64.6999C37.8515 64.8698 38.1983 65.1569 38.4417 65.5248C38.6852 65.8927 38.8145 66.3248 38.8132 66.7666C38.8115 67.3574 38.5766 67.9235 38.1599 68.3407C37.7432 68.7578 37.1788 68.9921 36.5904 68.9921ZM36.5904 66.4642C36.5308 66.4642 36.4726 66.482 36.4231 66.5152C36.3736 66.5484 36.335 66.5956 36.3122 66.6509C36.2894 66.7061 36.2835 66.7669 36.2951 66.8255C36.3067 66.8842 36.3354 66.938 36.3775 66.9803C36.4196 67.0226 36.4732 67.0514 36.5316 67.0631C36.5901 67.0747 36.6506 67.0687 36.7056 67.0459C36.7606 67.023 36.8076 66.9842 36.8407 66.9345C36.8738 66.8848 36.8915 66.8263 36.8915 66.7666C36.8915 66.6864 36.8597 66.6095 36.8033 66.5528C36.7468 66.4961 36.6702 66.4642 36.5904 66.4642Z" fill="#AE7461"/>
<path d="M41.6382 66.9338C41.1986 66.9338 40.7688 66.8029 40.4033 66.5577C40.0377 66.3124 39.7528 65.9638 39.5846 65.556C39.4163 65.1481 39.3723 64.6994 39.4581 64.2664C39.5439 63.8334 39.7556 63.4357 40.0664 63.1236C40.3773 62.8114 40.7734 62.5989 41.2046 62.5127C41.6357 62.4266 42.0827 62.4708 42.4889 62.6397C42.895 62.8087 43.2422 63.0948 43.4864 63.4618C43.7307 63.8289 43.8611 64.2604 43.8611 64.7018C43.8611 65.2938 43.6269 65.8615 43.21 66.2801C42.7931 66.6987 42.2277 66.9338 41.6382 66.9338ZM41.6382 64.3995C41.5787 64.3995 41.5205 64.4172 41.4709 64.4505C41.4214 64.4837 41.3828 64.5309 41.3601 64.5861C41.3373 64.6414 41.3313 64.7022 41.3429 64.7608C41.3545 64.8195 41.3832 64.8733 41.4253 64.9156C41.4674 64.9579 41.5211 64.9867 41.5795 64.9983C41.6379 65.01 41.6984 65.004 41.7534 64.9811C41.8084 64.9583 41.8555 64.9195 41.8886 64.8698C41.9216 64.8201 41.9393 64.7616 41.9393 64.7018C41.9393 64.6217 41.9076 64.5448 41.8511 64.4881C41.7946 64.4314 41.7181 64.3995 41.6382 64.3995Z" fill="#FF725E"/>
<path d="M11.7996 61.5371C11.043 60.1871 10.0689 58.9721 8.91698 57.9415C8.51103 57.5565 7.96984 57.3484 7.4116 57.3626C7.17651 57.4059 6.95463 57.5033 6.76344 57.6473C6.57224 57.7913 6.41694 57.9779 6.30979 58.1924C6.09997 58.6238 6.00507 59.1025 6.03433 59.5817C6.07917 61.2606 6.976 62.7979 8.00094 64.1165C9.02588 65.4351 10.211 66.6508 11.0053 68.1237H16.0019L11.7996 61.5371Z" fill="#FF9A6C"/>
<path d="M45.9942 67.5384L38.179 67.0624L29.5567 65.776C29.4248 65.6489 29.2811 65.5347 29.1275 65.4351C28.7297 65.1891 28.2749 65.0516 27.8079 65.0363C16.2773 64.496 0.903218 60.3794 0.736665 60.3408C0.662637 60.3209 0.585439 60.3159 0.509481 60.326C0.433522 60.3361 0.36029 60.3611 0.293965 60.3997C0.22764 60.4382 0.169522 60.4895 0.122928 60.5505C0.0763345 60.6116 0.0421782 60.6813 0.0224092 60.7556C0.00264025 60.83 -0.00235415 60.9075 0.00771117 60.9838C0.0177765 61.06 0.0427044 61.1336 0.0810717 61.2002C0.119439 61.2668 0.170494 61.3251 0.231322 61.3719C0.29215 61.4187 0.36156 61.453 0.435589 61.4728C0.58933 61.5179 16.0852 65.6602 27.7567 66.207C28.02 66.214 28.2766 66.2917 28.4998 66.4321C28.5834 66.4828 28.6609 66.5432 28.7304 66.6122L28.788 66.6701C30.5817 68.484 33.1889 70.7417 35.7832 70.7417C40.9976 71.2241 44.1685 69.6932 45.328 68.6255C45.8148 68.1816 46.0839 67.8665 45.9942 67.5384Z" fill="#E0E0E0"/>
<path d="M2.03067 71.8737C2.03067 71.8737 2.59439 62.4827 3.70901 61.5436C4.82363 60.6045 9.32697 59.4853 9.92912 59.749C10.5313 60.0127 13.9264 61.3442 14.0545 61.9166C14.1078 62.1028 14.1186 62.2987 14.0859 62.4897C14.0533 62.6806 13.9781 62.8617 13.866 63.0194C13.7539 63.1771 13.6078 63.3074 13.4386 63.4004C13.2693 63.4935 13.0813 63.547 12.8886 63.5569L10.1982 63.068L7.52692 64.5153L7.21303 67.0882C7.21303 67.0882 9.92912 64.9012 10.8452 64.2644C11.7612 63.6276 14.0481 63.6212 14.1122 65.3257C14.1122 65.3257 17.629 65.7502 17.7379 67.7893C17.7379 67.7893 20.8704 70.0598 21.0305 71.2176C21.1907 72.3754 19.6597 74.7039 19.6597 74.7039C19.6597 74.7039 24.4128 79.3287 24.2847 80.8917C24.2877 83.0682 24.4032 85.2431 24.6306 87.4076L13.8239 88.7648L13.5805 84.2622C13.5805 84.2622 2.72891 74.08 2.03067 71.8737Z" fill="#FFBF9D"/>
<path d="M19.5187 71.5006C19.4608 72.0137 19.2356 72.4931 18.8781 72.8643C18.5835 73.2824 18.1605 73.5919 17.6738 73.7455C17.6418 73.6812 18.1991 73.3338 18.6988 72.7163C19.1984 72.0988 19.4547 71.4749 19.5187 71.5006Z" fill="#FF9A6C"/>
<path d="M20.2746 72.4334C20.3259 72.472 20.0696 72.7614 19.634 72.7421C19.1984 72.7228 18.9934 72.4205 18.9934 72.3819C18.9934 72.3433 19.2817 72.4977 19.634 72.5106C19.9864 72.5234 20.2362 72.3819 20.2746 72.4334Z" fill="#FF9A6C"/>
<path d="M17.6546 67.9437C17.6546 67.9758 17.2831 68.1173 16.7258 68.4454C16.0005 68.8786 15.3619 69.4435 14.8424 70.1113C14.4477 70.62 14.1323 71.1861 13.9072 71.7901V71.8287H13.8687C13.3547 72.0593 12.8208 72.2423 12.2737 72.3755C12.7592 72.086 13.2694 71.8406 13.7983 71.6422L13.7406 71.7065C13.949 71.0713 14.2655 70.4772 14.6759 69.9505C15.2073 69.2516 15.8853 68.6785 16.6617 68.2717C16.9691 68.1005 17.306 67.9891 17.6546 67.9437Z" fill="#FF9A6C"/>
<path d="M8.75043 70.6709C8.75043 70.6709 8.79527 70.5616 8.94901 70.4329C9.17757 70.2617 9.43616 70.1351 9.71131 70.0599C10.0962 69.9562 10.4603 69.7865 10.7875 69.5582C11.152 69.218 11.4923 68.8526 11.806 68.4647C12.5171 67.6606 13.1641 66.9338 13.6445 66.4192C13.8842 66.119 14.1572 65.8471 14.4581 65.6088C14.2587 65.9339 14.0269 66.2378 13.7662 66.5157C13.3178 67.0625 12.69 67.8022 11.979 68.6062C11.658 69.0039 11.3044 69.3739 10.922 69.7125C10.569 69.9505 10.1729 70.1166 9.75615 70.2014C9.49195 70.265 9.23764 70.3646 9.00026 70.4973C8.84011 70.6066 8.76324 70.6838 8.75043 70.6709Z" fill="#FF9A6C"/>
<path d="M7.18098 67.0817C7.02025 67.7585 6.65295 68.3679 6.13042 68.8249C5.66016 69.3394 5.04236 69.6945 4.3624 69.8412C4.92892 69.4903 5.46659 69.0945 5.97027 68.6576C6.41795 68.168 6.823 67.6408 7.18098 67.0817Z" fill="#FF9A6C"/>
<path d="M19.7942 74.7811C19.7942 74.7811 19.634 74.7811 19.3906 74.7811C19.0821 74.7801 18.779 74.8623 18.513 75.0191L18.3528 75.122V74.929V74.8712C18.3528 74.5402 18.2964 74.2118 18.1863 73.8999C18.0966 73.6683 17.9877 73.5461 18.0133 73.5268C18.039 73.5075 18.1927 73.5847 18.3336 73.8291C18.5014 74.1461 18.5893 74.4994 18.5899 74.8583V74.9097L18.4169 74.8197C18.7144 74.6384 19.0651 74.5657 19.4098 74.6139C19.666 74.6589 19.807 74.7554 19.7942 74.7811Z" fill="#FF9A6C"/>
<path d="M12.3185 87.324C12.3185 87.324 5.65638 125.075 6.18167 129.056C6.70695 133.038 7.8536 148.919 19.634 147.176C31.4144 145.433 29.3581 128.915 28.9546 125.75C28.551 122.585 25.7516 101.436 25.7516 101.436L24.8612 86.6422L12.3185 87.324Z" fill="#27B04B"/>
<path d="M27.8079 119.376C27.7707 119.27 27.7491 119.16 27.7439 119.048L27.6222 118.096C27.5197 117.272 27.3915 116.076 27.2378 114.597C26.9367 111.638 26.5972 107.521 26.2257 103.019C25.8541 98.516 25.5402 94.3994 25.2776 91.4406C25.1495 89.9805 25.0406 88.7905 24.9637 87.935L24.8868 86.983C24.8755 86.8718 24.8755 86.7598 24.8868 86.6486C24.9151 86.7561 24.9344 86.8658 24.9445 86.9766L25.0662 87.9221C25.1687 88.7519 25.3032 89.9483 25.4506 91.4277C25.758 94.3865 26.0911 98.5032 26.4691 103.006C26.847 107.508 27.1545 111.618 27.4108 114.584C27.5453 116.044 27.6478 117.234 27.7246 118.089C27.7567 118.488 27.7887 118.803 27.8079 119.041C27.8151 119.153 27.8151 119.264 27.8079 119.376Z" fill="#1F2937"/>
</g>
<defs>
<clipPath id="clip0_33_408">
<rect width="122" height="167" fill="white"/>
</clipPath>
</defs>
</svg>
