<svg width="122" height="169" viewBox="0 0 122 169" fill="none" xmlns="http://www.w3.org/2000/svg">
<path d="M11.7689 121.135C11.6742 121.074 0 174.334 0 174.334H22.2655C22.2655 174.334 29.7099 135.523 30.2242 135.355L11.7689 121.135Z" fill="#FFBE9D"/>
<path d="M61.8899 1.27191C68.8741 0.23553 76.1019 3.02837 81.3198 7.75264C86.5376 12.4769 89.9079 18.9644 91.8705 25.7075C93.8331 32.4507 94.4828 39.5035 94.9565 46.5024C95.7506 58.1224 96.0935 69.7648 95.9852 81.4297C96.0803 82.8938 95.8372 84.3602 95.2746 85.7165C94.3204 87.5807 92.2224 88.6507 90.1312 88.9131C88.0297 89.0639 85.9176 88.873 83.8779 88.3478" fill="#1F2937"/>
<path d="M52.6115 3.56675C47.2854 2.79283 40.6464 4.36759 37.2964 8.55348C34.6976 11.8107 34.8397 17.8136 33.7434 21.8245C31.9838 28.2581 30.2242 34.7321 29.5881 41.3407C28.9113 48.629 29.5881 55.9779 30.2648 63.2662C31.0273 71.3418 31.7898 79.404 32.5523 87.4528C32.8907 91.0397 33.229 94.7007 34.7179 97.9915C36.2068 101.282 38.9815 104.21 42.5481 104.869C45.8033 105.468 49.2142 104.062 51.5964 101.76C53.9786 99.4586 55.4336 96.3764 56.4285 93.2269" fill="#1F2937"/>
<path d="M32.8298 78.5629C33.0057 78.4888 32.8298 77.5399 32.3222 75.871C31.8146 74.202 31.0566 71.8331 30.2107 68.8922C29.1903 65.4954 28.4568 62.0197 28.018 58.5015C27.4943 54.2604 27.779 49.9591 28.8572 45.8227C30.0009 41.4013 31.7605 37.2962 33.229 33.4669C34.6267 30.0595 35.7161 26.5348 36.4843 22.9349C36.9966 20.4842 37.1493 17.9726 36.9377 15.4784C36.7414 13.7085 36.3895 12.7865 36.2136 12.7865C35.7737 12.8336 36.2136 16.6628 34.5555 22.484C33.5401 25.9019 32.2989 29.2493 30.8401 32.5046C29.2564 36.2531 27.375 40.412 26.1433 45.1363C25.832 46.314 25.6019 47.5052 25.4124 48.6896C25.3312 49.2818 25.2432 49.8673 25.2026 50.4595C25.162 51.0517 25.0876 51.6305 25.0876 52.2092C24.9955 54.4234 25.1202 56.6412 25.4598 58.8313C26.0312 62.4849 26.9932 66.0675 28.3293 69.5181C29.198 71.8136 30.192 74.0601 31.307 76.2478C32.1124 77.8226 32.6538 78.6369 32.8298 78.5629Z" fill="#1F2937"/>
<path d="M81.8883 27.3698C82.0033 14.8054 71.4932 4.56947 58.4791 4.87903C46.2161 5.17514 36.4843 15.2563 36.0579 27.2352C35.6857 37.7336 35.5504 48.306 36.0579 52.0813C37.5536 63.468 44.9168 67.1021 47.8404 68.1115C48.8781 68.3465 49.9369 68.4773 51.0008 68.5019C51.0115 68.5006 51.0224 68.5018 51.0325 68.5055C51.0426 68.5092 51.0517 68.5153 51.059 68.5232C51.0663 68.5311 51.0715 68.5406 51.0744 68.5509C51.0772 68.5613 51.0775 68.5722 51.0753 68.5826L50.0331 81.9748C49.8774 90.6898 55.684 97.7627 64.6038 97.9848C73.5235 98.2069 79.6414 90.8109 79.9663 82.069L81.8883 27.3698Z" fill="#FFBE9D"/>
<path d="M39.1913 34.0187C39.4146 34.261 40.8629 33.2717 42.8729 33.3458C44.8828 33.4198 46.3243 34.4158 46.5477 34.1803C46.6627 34.0793 46.4394 33.6419 45.81 33.1708C44.9534 32.5572 43.9284 32.219 42.8729 32.2017C41.8282 32.1693 40.7994 32.461 39.9289 33.0362C39.3063 33.4871 39.083 33.9111 39.1913 34.0187Z" fill="#1F2937"/>
<path d="M57.8226 34.7052C58.0459 34.9475 59.4942 33.9582 61.5042 34.0322C63.5142 34.1063 64.9557 35.1023 65.1858 34.8667C65.294 34.7658 65.0707 34.3284 64.4413 33.8573C63.5847 33.2436 62.5598 32.9055 61.5042 32.8882C60.4605 32.8621 59.4344 33.1583 58.567 33.7361C57.9376 34.1736 57.7143 34.5975 57.8226 34.7052Z" fill="#1F2937"/>
<path d="M51.1294 45.2507C51.1294 45.143 49.8977 44.9007 47.881 44.5777C47.3734 44.5104 46.8861 44.396 46.8117 44.0528C46.7848 43.5328 46.922 43.0175 47.2042 42.579C47.7186 41.3744 48.2667 40.1159 48.8352 38.7969C51.1091 33.4131 52.7672 28.9782 52.5439 28.8907C52.3205 28.8032 50.3038 33.117 48.0502 38.5075C47.502 39.8534 46.9741 41.0984 46.4801 42.3098C46.1355 42.9014 46.02 43.5978 46.1552 44.2681C46.2243 44.4486 46.334 44.611 46.476 44.7428C46.6179 44.8746 46.7883 44.9724 46.9741 45.0286C47.2565 45.1072 47.5473 45.1524 47.8404 45.1632C49.8571 45.3247 51.1227 45.3651 51.1294 45.2507Z" fill="#1F2937"/>
<path d="M51.0753 68.5019C51.0753 68.5019 58.8175 69.3162 68.6711 63.8584C68.6711 63.8584 65.2873 73.8049 50.7708 72.109L51.0753 68.5019Z" fill="#EB996E"/>
<path d="M51.84 50.0086C52.2386 49.5448 52.7482 49.1883 53.3218 48.9719C53.8955 48.7555 54.5146 48.6862 55.1223 48.7703C55.5621 48.8183 55.9877 48.9539 56.3738 49.1689C56.7598 49.384 57.0983 49.6741 57.3691 50.0221C57.6285 50.3554 57.7765 50.7612 57.7923 51.1824C57.808 51.6036 57.6908 52.0191 57.4571 52.3707C57.1214 52.7163 56.6909 52.956 56.2192 53.0601C55.7475 53.1643 55.2554 53.1281 54.8042 52.9562C53.868 52.6053 53.0103 52.0748 52.2799 51.3949C52.0578 51.2327 51.8694 51.0293 51.7249 50.796C51.6498 50.6895 51.6095 50.5626 51.6095 50.4326C51.6095 50.3025 51.6498 50.1756 51.7249 50.0692" fill="#EB996E"/>
<path d="M57.0037 46.7581C56.6788 46.7581 56.6112 48.8645 54.6959 50.3249C52.7807 51.7852 50.4662 51.5026 50.4391 51.8189C50.4391 51.9535 50.9467 52.2496 51.928 52.2967C53.216 52.3431 54.4792 51.9355 55.4945 51.1459C56.4665 50.4212 57.1131 49.3456 57.2947 48.1512C57.3827 47.283 57.1526 46.7447 57.0037 46.7581Z" fill="#1F2937"/>
<path d="M58.0662 27.4102C58.2489 27.9486 60.2589 27.74 62.614 28.0832C64.9692 28.4264 66.8506 29.0994 67.1754 28.6283C67.3243 28.3995 67.0062 27.888 66.255 27.3564C65.2431 26.6789 64.0829 26.252 62.8712 26.1114C61.6671 25.9383 60.439 26.0466 59.2844 26.4277C58.4384 26.744 57.985 27.1545 58.0662 27.4102Z" fill="#1F2937"/>
<path d="M39.9831 24.9404C40.3215 25.3913 41.7156 24.9404 43.3669 24.9875C45.0182 25.0346 46.4327 25.3576 46.7508 24.9C46.8996 24.6779 46.6898 24.227 46.074 23.7896C45.2631 23.2472 44.3034 22.9675 43.3263 22.9887C42.361 22.9892 41.4181 23.2775 40.6193 23.8165C40.0373 24.2607 39.8275 24.7183 39.9831 24.9404Z" fill="#1F2937"/>
<path d="M31.0837 80.4875C30.0212 80.75 21.4669 81.8335 15.5858 93.5096C9.70474 105.186 1.15723 130.449 1.15723 130.449L29.3038 143.579L31.0837 80.4875Z" fill="#27B04B"/>
<path d="M50.2158 76.6718L31.0837 81.1268L22.2858 130.826L28.4849 143.612L25.0402 174.973H104.079L106.651 82.493L88.013 77.1092L82.768 82.6208C80.5248 84.9762 77.7292 86.7417 74.6314 87.7591C71.5337 88.7765 68.2306 89.0141 65.0179 88.4506C61.8052 87.8872 58.7831 86.5402 56.2223 84.5304C53.6615 82.5206 51.6419 79.9106 50.3443 76.9342L50.2158 76.6718Z" fill="#27B04B"/>
<path d="M106.401 82.4324C106.401 82.4324 117.662 87.6412 119.022 105.684C120.247 122.003 122 128.322 122 128.322H91.8706C91.8706 128.322 90.3478 100.535 97.5554 91.5849C98.1306 90.8513 106.401 82.4324 106.401 82.4324Z" fill="#27B04B"/>
<path d="M40.2268 113.975C40.2942 113.966 40.3625 113.966 40.4298 113.975H41.0254L43.3399 113.894L52.1378 113.638L83.3366 112.817H83.5126V112.992C82.8899 118.51 82.2132 124.473 81.4823 130.759C81.1213 133.899 80.7536 137.12 80.3791 140.422C80.1942 142.065 80.0047 143.725 79.8107 145.402L79.5264 147.926C79.4565 148.789 79.2932 149.642 79.0392 150.47C78.878 150.98 78.6207 151.455 78.2812 151.87C77.9244 152.29 77.455 152.6 76.9276 152.765C75.908 152.978 74.8582 153.008 73.8281 152.852L67.8387 152.428L56.3338 151.601L35.4489 150.073H35.2932V149.918C36.755 139.097 38.0003 130.119 38.8191 123.834C39.2523 120.711 39.5907 118.255 39.8208 116.566C39.9426 115.738 40.0306 115.105 40.0982 114.661C40.1659 114.217 40.2065 113.988 40.2065 113.988C40.2065 113.988 40.2065 114.21 40.1388 114.661C40.0712 115.112 40.0102 115.751 39.9087 116.579C39.6922 118.268 39.3809 120.725 38.9883 123.854C38.1695 130.146 36.9987 139.124 35.6045 149.959L35.4692 149.79L56.3202 151.244L67.8658 152.058L73.8551 152.482C74.8398 152.633 75.8436 152.608 76.8194 152.408C77.2769 152.241 77.6867 151.965 78.0133 151.605C78.3399 151.245 78.5735 150.812 78.694 150.342C78.9352 149.535 79.0917 148.705 79.161 147.866C79.2557 147.018 79.3572 146.176 79.452 145.342C79.6415 143.668 79.831 142.008 80.0205 140.362C80.3994 137.069 80.7694 133.85 81.1303 130.705C81.8545 124.419 82.5448 118.457 83.1606 112.938L83.3231 113.107L52.1175 113.779L43.3196 113.954H40.9983H40.2268V113.975Z" fill="#009226"/>
<path d="M45.1265 113.961C45.2213 113.961 44.3821 122.165 43.2519 132.266C42.1217 142.367 41.1269 150.551 41.0254 150.537C40.9238 150.524 41.7698 142.334 42.9 132.226C44.0302 122.118 45.025 113.948 45.1265 113.961Z" fill="#009226"/>
<path d="M50.473 113.504C50.5677 113.504 49.7285 121.707 48.5983 131.808C47.4682 141.91 46.4733 150.073 46.3786 150.073C46.2838 150.073 47.1162 141.869 48.2464 131.768C49.3766 121.667 50.3782 113.49 50.473 113.504Z" fill="#009226"/>
<path d="M55.8194 113.961C55.9209 113.961 55.0817 122.165 53.9515 132.266C52.8213 142.367 51.8197 150.551 51.7249 150.537C51.6302 150.524 52.4694 142.334 53.5996 132.226C54.7298 122.118 55.7246 113.948 55.8194 113.961Z" fill="#009226"/>
<path d="M61.1726 113.961C61.2673 113.961 60.4281 122.165 59.2979 132.266C58.1677 142.367 57.1729 150.551 57.0781 150.537C56.9834 150.524 57.8158 142.334 58.946 132.226C60.0762 122.118 61.071 113.948 61.1726 113.961Z" fill="#009226"/>
<path d="M66.9995 113.504C67.0942 113.504 66.255 121.707 65.1248 131.808C63.9947 141.91 63.0066 150.073 62.9389 150.073C62.8712 150.073 63.6766 141.869 64.8068 131.768C65.937 121.667 66.9047 113.49 66.9995 113.504Z" fill="#009226"/>
<path d="M72.4136 113.504C72.5084 113.504 71.6692 121.707 70.539 131.808C69.4088 141.91 68.4004 150.073 68.2989 150.073C68.1974 150.073 69.0434 141.869 70.1735 131.768C71.3037 121.667 72.2986 113.49 72.4136 113.504Z" fill="#009226"/>
<path d="M76.8803 114.23C76.975 114.23 76.1426 122.441 75.0124 132.542C73.8822 142.643 72.8806 150.827 72.7859 150.813C72.6911 150.8 73.5303 142.61 74.6605 132.502C75.7907 122.394 76.7855 114.224 76.8803 114.23Z" fill="#009226"/>
<path d="M29.2294 144.083C28.9905 143.827 28.7753 143.55 28.5865 143.256C28.3902 142.986 28.1533 142.65 27.9097 142.246C27.6661 141.842 27.348 141.392 27.057 140.867C26.3511 139.649 25.7183 138.39 25.1621 137.098C24.4894 135.514 23.9197 133.889 23.4566 132.232C23.0086 130.576 22.6695 128.892 22.4415 127.192C22.2648 125.799 22.1699 124.397 22.1572 122.992C22.1572 122.394 22.1572 121.848 22.1572 121.377C22.1572 120.906 22.2046 120.489 22.2384 120.159C22.2544 119.811 22.2974 119.465 22.367 119.123C22.4003 119.47 22.4003 119.819 22.367 120.166C22.367 120.496 22.367 120.906 22.367 121.377C22.367 121.848 22.367 122.394 22.367 122.986C22.4146 124.379 22.5344 125.77 22.7257 127.151C22.9654 128.841 23.3067 130.516 23.7476 132.165C24.209 133.808 24.7648 135.424 25.4125 137.004C25.9531 138.291 26.5607 139.548 27.2329 140.772C27.5037 141.304 27.7879 141.762 28.0248 142.172C28.2616 142.583 28.4782 142.926 28.6609 143.209C28.8763 143.483 29.0665 143.776 29.2294 144.083Z" fill="#1F2937"/>
<path d="M103.545 84.1754C103.398 84.2525 103.247 84.3199 103.091 84.3773C102.793 84.5052 102.347 84.6667 101.799 84.9561C100.247 85.7298 98.8266 86.7403 97.5891 87.9508C96.7333 88.7795 95.9646 89.6927 95.2949 90.6763C94.5123 91.7983 93.8628 93.0064 93.3594 94.2767C92.7956 95.6727 92.4091 97.1331 92.2089 98.6241C92.0194 100.179 91.9652 101.821 91.9111 103.49C91.7284 110.179 91.8164 116.276 91.8367 120.644C91.8367 122.804 91.8367 124.574 91.8367 125.839C91.8367 126.425 91.8367 126.896 91.8367 127.252C91.8481 127.418 91.8481 127.585 91.8367 127.75C91.805 127.589 91.7892 127.424 91.7893 127.259C91.7893 126.902 91.7555 126.431 91.7352 125.846C91.7352 124.574 91.6539 122.811 91.593 120.644C91.5118 116.256 91.3832 110.186 91.593 103.476C91.6472 101.801 91.7081 100.165 91.9043 98.5838C92.2955 95.6754 93.3892 92.9046 95.0919 90.5081C95.7787 89.5139 96.5705 88.5957 97.4538 87.7691C98.7189 86.5573 100.178 85.5634 101.772 84.8282C102.21 84.6229 102.662 84.4475 103.125 84.3033C103.26 84.2472 103.401 84.2044 103.545 84.1754Z" fill="#1F2937"/>
<path d="M67.9335 19.8325C71.994 29.0522 71.8181 39.5304 70.7759 49.5375C69.7337 59.5446 67.9132 69.5786 68.8945 79.5925C69.287 83.5293 70.1059 87.5403 69.2261 91.4031C68.705 93.6711 67.6222 95.7707 66.9995 98.0117C66.3769 100.253 66.2619 102.817 67.568 104.741C68.8742 106.666 71.4459 107.554 73.7875 107.279C76.1329 106.901 78.3032 105.81 80.0001 104.156C83.8036 100.71 86.0098 95.7909 87.052 90.7773C88.0942 85.7636 88.0672 80.6019 88.0401 75.4806L87.8167 35.5464C87.8167 29.7925 87.7288 23.8972 85.7459 18.4865C83.5574 12.8401 79.6665 8.00488 74.6063 4.64349C68.6441 0.565274 60.7192 -1.56132 54.141 1.34592C51.928 2.315 49.7353 4.307 50.0805 6.6826C50.3579 8.56019 52.1108 9.82538 53.6876 10.8752L69.4427 21.2255" fill="#1F2937"/>
<path d="M71.3985 91.9415C71.5812 91.8608 71.3105 90.8109 70.7217 88.967C70.1329 87.123 69.2734 84.4648 68.4139 81.1605C67.3854 77.3323 66.8086 73.3981 66.695 69.4373C66.5799 65.0159 67.4868 60.1772 68.7591 55.0963C70.0314 50.0153 71.4661 45.1161 72.0685 40.4457C72.6956 36.2989 72.5971 32.0755 71.7774 27.962C71.2035 25.1721 70.051 22.5317 68.3936 20.2094C68.0756 19.819 67.7981 19.4758 67.5477 19.1865C67.3359 18.9488 67.1099 18.7241 66.8709 18.5135C66.4784 18.1635 66.2415 18.0155 66.1942 18.0828C66.1468 18.1501 66.1942 18.4193 66.4581 18.8634L66.9251 19.671C67.0942 20.0008 67.2905 20.3776 67.5206 20.7881C68.7087 23.157 69.4996 25.703 69.8622 28.3254C70.3596 32.2328 70.2547 36.1929 69.5509 40.0688C68.8268 44.47 67.3785 49.2683 66.0791 54.4368C64.7797 59.6052 63.8864 64.7669 64.1503 69.5248C64.3887 73.6788 65.1947 77.7813 66.5461 81.7191C67.4148 84.3413 68.471 86.8984 69.7066 89.3708C70.6202 91.1138 71.2293 92.0155 71.3985 91.9415Z" fill="#1F2937"/>
<path d="M92.3104 26.7506C92.1776 26.6734 92.037 26.6102 91.8909 26.5622L90.6727 26.0777C90.138 25.8758 89.4884 25.62 88.7439 25.3037C87.9995 24.9874 87.14 24.6308 86.2128 24.2337C84.345 23.4329 82.1522 22.3965 79.7497 21.1852C77.3472 19.9738 74.7688 18.4933 72.1159 16.905C69.4629 15.3168 66.9995 13.6209 64.8339 12.0529C62.6682 10.4849 60.7733 8.98416 59.1829 7.68532C58.3911 7.05272 57.7008 6.44032 57.085 5.92213C56.4691 5.40394 55.9412 4.93959 55.5216 4.57618L54.5403 3.68786C54.4294 3.58331 54.3093 3.48873 54.1816 3.40521C54.2799 3.52231 54.3862 3.6325 54.4997 3.73497L55.4472 4.63675C55.86 5.02708 56.3676 5.50489 56.9767 6.03654C57.5858 6.56818 58.2693 7.19405 59.0543 7.83337C60.6109 9.17932 62.5126 10.6599 64.685 12.2615C66.8574 13.8632 69.3141 15.512 71.967 17.1473C74.6199 18.7826 77.2254 20.1892 79.6347 21.414C82.044 22.6388 84.2502 23.6348 86.1384 24.4154C87.0723 24.8259 87.9318 25.149 88.6898 25.4518C89.4477 25.7546 90.0974 25.9902 90.6321 26.1786L91.8706 26.616C92.0145 26.6693 92.1613 26.7142 92.3104 26.7506Z" fill="#3C4A51"/>
<path d="M92.2902 28.7427C92.1414 28.6956 91.99 28.6574 91.8367 28.6283L90.5306 28.3389L89.5831 28.1437L88.4665 27.8611C87.6679 27.6592 86.7475 27.4573 85.7594 27.141L84.1961 26.6766C83.6547 26.5151 83.0997 26.3065 82.5177 26.1113C81.3605 25.7412 80.149 25.2432 78.87 24.7654C76.1216 23.6276 73.4457 22.3241 70.8571 20.8622C68.2772 19.3697 65.7911 17.7223 63.4127 15.9293C62.3367 15.0746 61.3012 14.2805 60.3943 13.4662C59.9341 13.0691 59.4807 12.699 59.0408 12.3087C58.6009 11.9183 58.2287 11.5549 57.8565 11.1983C57.085 10.5253 56.4488 9.81194 55.8668 9.22645L55.0682 8.40543L54.3915 7.69208L53.5726 6.67589C53.4711 6.5573 53.3602 6.44702 53.241 6.34613C53.241 6.34613 53.3357 6.474 53.5252 6.70954L54.3915 7.73245L55.0209 8.46599C55.2577 8.72845 55.5284 9.00437 55.8059 9.30048C56.3811 9.89943 57.0038 10.5993 57.7685 11.3194C58.1475 11.6738 58.54 12.0507 58.9461 12.45C59.3589 12.8403 59.8123 13.2172 60.2996 13.621C61.1997 14.4487 62.2351 15.2496 63.3112 16.111C65.6842 17.9239 68.1707 19.585 70.7556 21.0842C73.3526 22.5586 76.0427 23.8647 78.8091 24.9942C80.0949 25.4922 81.3063 25.9767 82.4771 26.3401C83.0591 26.5286 83.6208 26.7305 84.1623 26.8853L85.7391 27.3361C86.734 27.639 87.6611 27.8274 88.4462 28.0091C88.8522 28.1033 89.2244 28.1976 89.5764 28.2649L90.5238 28.4398L91.8773 28.6754C92.0136 28.7054 92.1514 28.7279 92.2902 28.7427Z" fill="#3C4A51"/>
<path d="M79.7226 98.1194C79.75 98.062 79.7683 98.0007 79.7767 97.9377C79.7767 97.8031 79.8444 97.6282 79.8986 97.4061C80.0001 96.9417 80.1625 96.2486 80.3114 95.3535C80.7573 92.822 81.0578 90.2673 81.2115 87.7018C81.4416 84.4581 81.5025 80.5818 81.3807 76.2613C81.2588 71.9408 81.0084 67.2434 80.7783 62.2904C80.2775 52.3909 79.8309 43.4471 79.4993 36.9193C79.3233 33.6823 79.1812 31.0644 79.0797 29.2272L78.9579 27.141L78.9172 26.5959C78.9245 26.5355 78.9245 26.4745 78.9172 26.4142C78.9097 26.4745 78.9097 26.5355 78.9172 26.5959C78.9172 26.7372 78.9172 26.9189 78.9172 27.141C78.9172 27.639 78.9646 28.3389 78.9917 29.2339C79.0729 31.0712 79.188 33.689 79.3233 36.926C79.6278 43.4337 80.0542 52.4044 80.5212 62.3038C80.7513 67.2569 81.022 71.9744 81.1438 76.268C81.2656 80.5616 81.2385 84.4312 81.0355 87.7085C80.8923 90.2673 80.6144 92.8169 80.2031 95.3468C80.0677 96.2486 79.9256 96.935 79.8444 97.4061C79.8038 97.6349 79.77 97.8099 79.7497 97.9444C79.7294 98.079 79.7226 98.1127 79.7226 98.1194Z" fill="#3C4A51"/>
<path d="M74.701 68.0375C74.7352 67.8912 74.76 67.7428 74.7755 67.5934C74.8161 67.2771 74.877 66.8464 74.9447 66.3147C75.0868 65.1976 75.2695 63.5892 75.4793 61.6039C75.8922 57.6132 76.3659 52.0948 76.6907 45.991C77.0156 39.8871 77.1509 34.3216 77.1509 30.3309C77.1509 28.312 77.1509 26.7036 77.1509 25.6201L77.1171 24.328C77.1287 24.1779 77.1287 24.0271 77.1171 23.8771C77.101 24.0269 77.101 24.1781 77.1171 24.328C77.1171 24.642 77.1171 25.0727 77.1171 25.6201C77.1171 26.7641 77.1171 28.3793 77.0562 30.3309C76.9953 34.3687 76.8532 39.8736 76.5351 45.9775C76.217 52.0814 75.7636 57.593 75.4049 61.5837C75.2154 63.5555 75.0665 65.1639 74.9582 66.2945C74.9108 66.8329 74.8702 67.2569 74.8432 67.5799C74.7766 67.7259 74.7289 67.8797 74.701 68.0375Z" fill="#3C4A51"/>
<path d="M33.2223 96.6591C34.2935 94.5495 36.159 92.946 38.4131 92.1973C42.054 91.107 40.687 89.8418 42.3315 87.8431C43.976 85.8444 46.0199 83.7111 46.0199 83.7111L49.8368 81.7393C49.8368 81.7393 53.7011 84.2831 54.8719 86.0934C56.0427 87.9037 57.7008 91.632 59.2912 92.8231C60.8816 94.0143 66.8709 96.5581 66.7965 99.2298L49.045 100.717L33.2223 96.6591Z" fill="#FF725E"/>
<g opacity="0.3">
<path d="M33.2223 96.6591C34.2935 94.5495 36.159 92.946 38.4131 92.1973C42.054 91.107 40.687 89.8418 42.3315 87.8431C43.976 85.8444 46.0199 83.7111 46.0199 83.7111L49.8368 81.7393C49.8368 81.7393 53.7011 84.2831 54.8719 86.0934C56.0427 87.9037 57.7008 91.632 59.2912 92.8231C60.8816 94.0143 66.8709 96.5581 66.7965 99.2298L49.045 100.717L33.2223 96.6591Z" fill="black"/>
</g>
<path d="M33.3644 101.404C32.5412 101.519 31.7023 101.436 30.9181 101.162C30.1338 100.888 29.4271 100.431 28.8572 99.8288C27.7947 98.5569 27.8082 96.3966 29.1414 95.4208C30.2851 94.5796 31.8958 94.8286 33.202 95.3199C34.5081 95.8111 35.8481 96.511 37.2626 96.4774C38.677 96.4437 39.9696 95.6766 41.4111 95.5554C44.6866 95.266 47.59 98.429 50.8384 97.9176C52.2529 97.6887 53.5455 96.7735 54.9802 96.935C56.4149 97.0965 57.5248 98.3213 58.8784 98.752C60.1854 99.0528 61.5539 98.9447 62.7968 98.4425C64.0452 97.9466 65.3663 97.6557 66.7085 97.5811C68.062 97.5811 69.4765 98.3011 69.8622 99.6C70.2954 101.013 69.2261 102.534 67.8319 103.133C66.4378 103.732 64.9286 103.651 63.4465 103.557L33.4592 101.619" fill="#FF725E"/>
<path d="M58.3437 92.9779C58.0834 92.7837 57.7899 92.6378 57.4775 92.5472C56.3064 92.1495 55.1105 91.8281 53.8974 91.5848C53.679 91.5537 53.4693 91.4781 53.2816 91.3628C53.188 91.3025 53.1176 91.2125 53.082 91.1074C53.0464 91.0023 53.0475 90.8883 53.0853 90.784C53.139 90.7031 53.2087 90.6339 53.2901 90.5807C53.3716 90.5275 53.4631 90.4913 53.559 90.4744L55.3931 89.8755C55.5487 89.8216 55.7314 89.7476 55.7517 89.5861C55.772 89.4246 55.5216 89.2362 55.3051 89.1823L51.7656 88.2873C52.2055 87.5268 53.6335 87.6951 53.8906 86.8538C54.0734 86.2482 53.4237 85.7098 52.8146 85.5079C52.2454 85.3264 51.6439 85.2674 51.05 85.3347C50.4561 85.402 49.8834 85.5941 49.3699 85.8982C49.0789 85.7165 49.1668 85.2656 49.3699 84.9762C49.5729 84.6869 49.8233 84.3908 49.7624 84.0475C49.7267 83.897 49.6399 83.7633 49.5166 83.6689C49.3933 83.5745 49.2411 83.5252 49.0856 83.5294C48.7678 83.552 48.4683 83.6855 48.2397 83.9062C47.8632 84.2413 47.5924 84.6777 47.4603 85.1627C47.3282 85.6476 47.3403 86.1603 47.4952 86.6385C45.8162 86.9708 44.2574 87.7447 42.9812 88.8795C42.6902 89.1352 42.3992 89.5525 42.5819 89.8688C42.7647 90.185 43.1775 90.1918 43.5294 90.1581L46.6696 89.9024C45.913 90.8082 44.8343 91.3891 43.658 91.5243C42.4988 91.661 41.3617 91.9437 40.2742 92.3655C40.017 92.4933 39.7328 92.6885 39.7192 92.9779C39.7224 93.1072 39.7667 93.2322 39.8457 93.335C39.9247 93.4378 40.0345 93.513 40.1591 93.5499C40.4073 93.6216 40.668 93.64 40.9239 93.6038L47.5494 93.1327C47.6442 93.1127 47.7421 93.1131 47.8367 93.134C47.9313 93.1549 48.0202 93.1958 48.0976 93.2538C48.1558 93.338 48.1869 93.4377 48.1869 93.5398C48.1869 93.642 48.1558 93.7417 48.0976 93.8258C47.996 94.0008 47.8472 94.1421 47.7456 94.3171C47.6124 94.6026 47.5891 94.9267 47.6801 95.2281C47.7712 95.5295 47.9703 95.7873 48.2397 95.9524C48.5159 96.1075 48.8214 96.2043 49.1369 96.2367C49.4525 96.2691 49.7714 96.2365 50.0737 96.1409C50.672 95.9392 51.2554 95.6964 51.8198 95.414C53.3748 94.7269 55.0767 94.4332 56.7737 94.5594C57.1482 94.6167 57.5293 94.6167 57.9039 94.5594C58.0902 94.5239 58.2627 94.4369 58.4016 94.3084C58.5405 94.1798 58.6401 94.0149 58.6889 93.8326C58.7084 93.6727 58.687 93.5106 58.6267 93.3612C58.5664 93.2117 58.469 93.0799 58.3437 92.9779Z" fill="#FF725E"/>
<g opacity="0.5">
<path d="M58.3437 92.9779C58.0834 92.7837 57.7899 92.6378 57.4775 92.5472C56.3064 92.1495 55.1105 91.8281 53.8974 91.5848C53.679 91.5537 53.4693 91.4781 53.2816 91.3628C53.188 91.3025 53.1176 91.2125 53.082 91.1074C53.0464 91.0023 53.0475 90.8883 53.0853 90.784C53.139 90.7031 53.2087 90.6339 53.2901 90.5807C53.3716 90.5275 53.4631 90.4913 53.559 90.4744L55.3931 89.8755C55.5487 89.8216 55.7314 89.7476 55.7517 89.5861C55.772 89.4246 55.5216 89.2362 55.3051 89.1823L51.7656 88.2873C52.2055 87.5268 53.6335 87.6951 53.8906 86.8538C54.0734 86.2482 53.4237 85.7098 52.8146 85.5079C52.2454 85.3264 51.6439 85.2674 51.05 85.3347C50.4561 85.402 49.8834 85.5941 49.3699 85.8982C49.0789 85.7165 49.1668 85.2656 49.3699 84.9762C49.5729 84.6869 49.8233 84.3908 49.7624 84.0475C49.7267 83.897 49.6399 83.7633 49.5166 83.6689C49.3933 83.5745 49.2411 83.5252 49.0856 83.5294C48.7678 83.552 48.4683 83.6855 48.2397 83.9062C47.8632 84.2413 47.5924 84.6777 47.4603 85.1627C47.3282 85.6476 47.3403 86.1603 47.4952 86.6385C45.8162 86.9708 44.2574 87.7447 42.9812 88.8795C42.6902 89.1352 42.3992 89.5525 42.5819 89.8688C42.7647 90.185 43.1775 90.1918 43.5294 90.1581L46.6696 89.9024C45.913 90.8082 44.8343 91.3891 43.658 91.5243C42.4988 91.661 41.3617 91.9437 40.2742 92.3655C40.017 92.4933 39.7328 92.6885 39.7192 92.9779C39.7224 93.1072 39.7667 93.2322 39.8457 93.335C39.9247 93.4378 40.0345 93.513 40.1591 93.5499C40.4073 93.6216 40.668 93.64 40.9239 93.6038L47.5494 93.1327C47.6442 93.1127 47.7421 93.1131 47.8367 93.134C47.9313 93.1549 48.0202 93.1958 48.0976 93.2538C48.1558 93.338 48.1869 93.4377 48.1869 93.5398C48.1869 93.642 48.1558 93.7417 48.0976 93.8258C47.996 94.0008 47.8472 94.1421 47.7456 94.3171C47.6124 94.6026 47.5891 94.9267 47.6801 95.2281C47.7712 95.5295 47.9703 95.7873 48.2397 95.9524C48.5159 96.1075 48.8214 96.2043 49.1369 96.2367C49.4525 96.2691 49.7714 96.2365 50.0737 96.1409C50.672 95.9392 51.2554 95.6964 51.8198 95.414C53.3748 94.7269 55.0767 94.4332 56.7737 94.5594C57.1482 94.6167 57.5293 94.6167 57.9039 94.5594C58.0902 94.5239 58.2627 94.4369 58.4016 94.3084C58.5405 94.1798 58.6401 94.0149 58.6889 93.8326C58.7084 93.6727 58.687 93.5106 58.6267 93.3612C58.5664 93.2117 58.469 93.0799 58.3437 92.9779Z" fill="white"/>
</g>
<path d="M53.1056 86.8538C53.1056 88.0585 51.522 89.0343 49.5729 89.0343C47.6238 89.0343 46.0199 88.0585 46.0199 86.8538C46.0199 85.6492 47.6035 84.6734 49.5526 84.6734C51.5017 84.6734 53.1056 85.6492 53.1056 86.8538Z" fill="#FF725E"/>
<path d="M50.7573 88.0114C50.772 88.064 50.7653 88.1203 50.7387 88.1681C50.7122 88.2159 50.6678 88.2515 50.6151 88.2671C50.568 88.2958 50.5116 88.3056 50.4575 88.2943C50.4034 88.283 50.3557 88.2516 50.3241 88.2065C50.2835 88.119 50.3241 88.0046 50.4662 87.9508C50.5134 87.9221 50.5698 87.9123 50.6239 87.9236C50.678 87.9348 50.7257 87.9662 50.7573 88.0114Z" fill="#E0E0E0"/>
<path d="M50.9399 87.0154C50.9519 87.0356 50.9596 87.058 50.9626 87.0813C50.9657 87.1045 50.964 87.1282 50.9577 87.1508C50.9514 87.1734 50.9406 87.1945 50.9259 87.2128C50.9112 87.2312 50.893 87.2464 50.8722 87.2576C50.8527 87.273 50.8302 87.2841 50.8061 87.2902C50.7819 87.2963 50.7568 87.2972 50.7323 87.2929C50.7078 87.2886 50.6844 87.2791 50.6639 87.2652C50.6433 87.2513 50.6259 87.2332 50.6129 87.2121C50.5999 87.191 50.5915 87.1674 50.5883 87.1428C50.5852 87.1183 50.5873 87.0934 50.5945 87.0697C50.6018 87.046 50.614 87.0241 50.6304 87.0055C50.6467 86.9868 50.6669 86.9718 50.6895 86.9615C50.7093 86.948 50.7316 86.9386 50.7552 86.934C50.7787 86.9294 50.803 86.9296 50.8264 86.9347C50.8499 86.9397 50.872 86.9495 50.8916 86.9634C50.9111 86.9772 50.9275 86.9949 50.9399 87.0154Z" fill="#E0E0E0"/>
<path d="M52.1107 87.0557C52.1273 87.072 52.1404 87.0914 52.1494 87.1128C52.1584 87.1341 52.163 87.1571 52.163 87.1802C52.163 87.2034 52.1584 87.2263 52.1494 87.2477C52.1404 87.2691 52.1273 87.2884 52.1107 87.3047C52.0951 87.322 52.0763 87.336 52.0553 87.346C52.0343 87.356 52.0115 87.3618 51.9883 87.363C51.965 87.3643 51.9418 87.361 51.9198 87.3533C51.8978 87.3456 51.8776 87.3337 51.8603 87.3182C51.8429 87.3027 51.8288 87.284 51.8188 87.2631C51.8087 87.2422 51.8029 87.2196 51.8017 87.1965C51.8004 87.1733 51.8037 87.1502 51.8115 87.1284C51.8192 87.1065 51.8312 87.0864 51.8467 87.0692C51.8623 87.0497 51.8818 87.0337 51.904 87.0223C51.9263 87.0109 51.9507 87.0044 51.9756 87.0031C52.0006 87.0018 52.0256 87.0059 52.0489 87.0149C52.0722 87.024 52.0932 87.0379 52.1107 87.0557Z" fill="#E0E0E0"/>
<path d="M48.4698 86.4703C48.4884 86.5133 48.4897 86.5617 48.4733 86.6056C48.4569 86.6495 48.4241 86.6854 48.3818 86.7058C48.3387 86.7269 48.2889 86.7303 48.2433 86.7152C48.1977 86.7001 48.1599 86.6677 48.1382 86.6251C48.1195 86.5821 48.1182 86.5336 48.1346 86.4897C48.151 86.4459 48.1838 86.41 48.2261 86.3895C48.2693 86.3684 48.319 86.3651 48.3646 86.3802C48.4102 86.3953 48.448 86.4277 48.4698 86.4703Z" fill="#E0E0E0"/>
<path d="M50.3985 85.9521C50.4162 85.9985 50.4148 86.05 50.3945 86.0954C50.3742 86.1407 50.3368 86.1763 50.2903 86.1944C50.2453 86.2187 50.1925 86.2246 50.1431 86.2108C50.0938 86.197 50.0519 86.1645 50.0263 86.1203C50.0086 86.0739 50.0101 86.0224 50.0304 85.9771C50.0506 85.9317 50.0881 85.8961 50.1346 85.8781C50.1796 85.8537 50.2324 85.8478 50.2817 85.8616C50.3311 85.8755 50.373 85.9079 50.3985 85.9521Z" fill="#E0E0E0"/>
<path d="M51.84 86.1405C51.8738 86.2347 51.84 86.3289 51.7791 86.3491C51.7182 86.3693 51.6302 86.3491 51.5964 86.228C51.5786 86.1919 51.575 86.1505 51.5863 86.112C51.5975 86.0734 51.6228 86.0404 51.6573 86.0194C51.6972 86.0146 51.7376 86.0242 51.7711 86.0464C51.8046 86.0686 51.829 86.102 51.84 86.1405Z" fill="#E0E0E0"/>
<path d="M49.1736 85.333C49.2142 85.4204 49.1195 85.555 48.957 85.6291C48.7946 85.7031 48.6254 85.7031 48.5848 85.6291C48.5442 85.555 48.639 85.407 48.8014 85.3262C48.9638 85.2455 49.133 85.2455 49.1736 85.333Z" fill="#E0E0E0"/>
<path d="M47.0147 86.1405C47.0219 86.1626 47.0244 86.1859 47.022 86.209C47.0197 86.2321 47.0126 86.2545 47.0012 86.2747C46.9897 86.2949 46.9742 86.3126 46.9556 86.3265C46.9369 86.3405 46.9156 86.3505 46.8929 86.3559C46.8489 86.3709 46.8007 86.368 46.7589 86.3478C46.717 86.3277 46.6849 86.2918 46.6696 86.2482C46.6623 86.2257 46.6598 86.2019 46.6621 86.1784C46.6643 86.1548 46.6714 86.132 46.6827 86.1113C46.6941 86.0905 46.7096 86.0722 46.7283 86.0576C46.747 86.043 46.7684 86.0323 46.7914 86.0261C46.8135 86.0178 46.8372 86.0142 46.8608 86.0155C46.8845 86.0169 46.9076 86.0232 46.9286 86.0339C46.9497 86.0447 46.9682 86.0598 46.983 86.0781C46.9979 86.0965 47.0087 86.1177 47.0147 86.1405Z" fill="#E0E0E0"/>
<path d="M47.123 87.3115C47.1403 87.3417 47.1481 87.3764 47.1455 87.411C47.1429 87.4457 47.13 87.4788 47.1084 87.5061C47.0868 87.5334 47.0575 87.5537 47.0242 87.5645C46.991 87.5752 46.9553 87.5758 46.9217 87.5662C46.8881 87.5567 46.8581 87.5374 46.8356 87.5108C46.813 87.4843 46.7989 87.4517 46.7951 87.4171C46.7913 87.3826 46.7979 87.3477 46.8141 87.3169C46.8303 87.2861 46.8554 87.2608 46.8861 87.2442C46.9266 87.2224 46.9741 87.2172 47.0184 87.2298C47.0627 87.2423 47.1002 87.2717 47.123 87.3115Z" fill="#E0E0E0"/>
<path d="M48.9367 88.1056C48.9705 88.1439 48.9913 88.1918 48.9962 88.2425C49.001 88.2932 48.9897 88.3441 48.9638 88.3881C48.9378 88.432 48.8987 88.4667 48.8518 88.4872C48.8049 88.5077 48.7527 88.513 48.7026 88.5023C48.6525 88.4917 48.6071 88.4656 48.5728 88.4277C48.5384 88.3899 48.517 88.3423 48.5114 88.2917C48.5059 88.241 48.5165 88.19 48.5419 88.1457C48.5672 88.1014 48.6059 88.0662 48.6525 88.045C48.6986 88.0167 48.7539 88.0071 48.8069 88.0184C48.8599 88.0297 48.9064 88.061 48.9367 88.1056Z" fill="#E0E0E0"/>
<path d="M49.8503 87.1231C49.8909 87.2105 49.7758 87.3451 49.5931 87.4191C49.4104 87.4932 49.2412 87.4797 49.2006 87.4191C49.16 87.3586 49.2818 87.1971 49.4578 87.1231C49.6337 87.049 49.8164 87.0356 49.8503 87.1231Z" fill="#E0E0E0"/>
<path d="M48.0502 87.4864C48.0739 87.5214 48.0829 87.5642 48.0753 87.6057C48.0678 87.6472 48.0441 87.6841 48.0095 87.7085C47.9901 87.7188 47.9688 87.725 47.9468 87.7269C47.9249 87.7287 47.9028 87.7261 47.8819 87.7191C47.861 87.7122 47.8418 87.7011 47.8253 87.6866C47.8089 87.672 47.7956 87.6543 47.7862 87.6345C47.7637 87.598 47.7553 87.5546 47.7628 87.5124C47.7703 87.4703 47.7931 87.4323 47.8268 87.4057C47.8672 87.3873 47.9133 87.3854 47.9551 87.4005C47.9969 87.4156 48.0311 87.4465 48.0502 87.4864Z" fill="#E0E0E0"/>
<path d="M50.7572 85.3397C50.7729 85.379 50.7725 85.4228 50.7561 85.4618C50.7396 85.5009 50.7084 85.5319 50.6692 85.5483C50.6281 85.5535 50.5864 85.5441 50.5515 85.5217C50.5167 85.4993 50.4909 85.4654 50.4788 85.4259C50.4666 85.3865 50.4689 85.344 50.4852 85.3061C50.5014 85.2681 50.5307 85.2371 50.5677 85.2185C50.5882 85.2136 50.6094 85.2128 50.6302 85.2163C50.651 85.2198 50.6708 85.2274 50.6885 85.2388C50.7062 85.2501 50.7215 85.2649 50.7333 85.2822C50.7451 85.2995 50.7532 85.3191 50.7572 85.3397Z" fill="#E0E0E0"/>
<path d="M59.3994 94.4786C59.3994 95.441 58.1271 96.2216 56.5706 96.2216C55.014 96.2216 53.7417 95.441 53.7417 94.4786C53.7417 93.5163 55.0072 92.7289 56.5706 92.7289C58.1339 92.7289 59.3994 93.5432 59.3994 94.4786Z" fill="#FF725E"/>
<path d="M57.5248 95.4006C57.5429 95.4462 57.5424 95.497 57.5235 95.5422C57.5045 95.5874 57.4686 95.6235 57.4233 95.6429C57.3784 95.6638 57.327 95.6663 57.2801 95.65C57.2333 95.6336 57.1948 95.5997 57.1729 95.5554C57.1551 95.5107 57.1558 95.4609 57.1748 95.4168C57.1938 95.3726 57.2296 95.3378 57.2744 95.3198C57.3186 95.2984 57.3693 95.2948 57.416 95.3099C57.4627 95.325 57.5018 95.3575 57.5248 95.4006Z" fill="#E0E0E0"/>
<path d="M57.6669 94.6065C57.6906 94.6415 57.6997 94.6843 57.6921 94.7258C57.6845 94.7673 57.6609 94.8042 57.6263 94.8286C57.6073 94.8391 57.5863 94.8457 57.5646 94.848C57.543 94.8503 57.5211 94.8482 57.5003 94.842C57.4794 94.8357 57.4601 94.8253 57.4434 94.8114C57.4267 94.7976 57.4129 94.7805 57.4029 94.7613C57.3901 94.7437 57.381 94.7238 57.3761 94.7027C57.3712 94.6815 57.3706 94.6597 57.3744 94.6383C57.3782 94.617 57.3863 94.5966 57.3982 94.5784C57.41 94.5602 57.4255 94.5446 57.4436 94.5325C57.463 94.5222 57.4843 94.5159 57.5063 94.5141C57.5282 94.5123 57.5503 94.5149 57.5712 94.5218C57.5921 94.5288 57.6113 94.5398 57.6278 94.5544C57.6442 94.5689 57.6575 94.5867 57.6669 94.6065Z" fill="#E0E0E0"/>
<path d="M58.5873 94.6401C58.6047 94.6522 58.6194 94.6676 58.6305 94.6854C58.6417 94.7033 58.6491 94.7232 58.6523 94.744C58.6554 94.7647 58.6543 94.7859 58.649 94.8063C58.6436 94.8266 58.6342 94.8456 58.6212 94.8622C58.5903 94.8892 58.5506 94.9041 58.5095 94.9041C58.4684 94.9041 58.4287 94.8892 58.3978 94.8622C58.3805 94.8502 58.3658 94.8348 58.3546 94.817C58.3435 94.7991 58.3361 94.7792 58.3329 94.7584C58.3298 94.7376 58.3309 94.7164 58.3362 94.6961C58.3416 94.6758 58.351 94.6567 58.364 94.6401C58.3785 94.6253 58.3959 94.6135 58.4151 94.6054C58.4342 94.5974 58.4548 94.5932 58.4757 94.5932C58.4965 94.5932 58.5171 94.5974 58.5363 94.6054C58.5555 94.6135 58.5728 94.6253 58.5873 94.6401Z" fill="#E0E0E0"/>
<path d="M55.684 94.1691C55.7048 94.2061 55.7107 94.2495 55.7007 94.2907C55.6907 94.3318 55.6654 94.3677 55.6299 94.3911C55.5886 94.4043 55.5438 94.4011 55.5047 94.3823C55.4657 94.3635 55.4354 94.3306 55.4201 94.2902C55.4093 94.2717 55.4022 94.2512 55.3994 94.23C55.3966 94.2087 55.3981 94.1871 55.4038 94.1665C55.4095 94.1458 55.4192 94.1265 55.4325 94.1096C55.4457 94.0927 55.4622 94.0786 55.481 94.0681C55.5214 94.0553 55.5653 94.0586 55.6032 94.0775C55.6411 94.0963 55.6702 94.1292 55.684 94.1691Z" fill="#E0E0E0"/>
<path d="M57.227 93.7518C57.2464 93.7922 57.2494 93.8384 57.2356 93.8809C57.2217 93.9235 57.192 93.9592 57.1526 93.9806C57.1321 93.9895 57.1101 93.9943 57.0878 93.9947C57.0655 93.9952 57.0433 93.9912 57.0226 93.9831C57.0018 93.9749 56.9829 93.9628 56.9669 93.9474C56.9509 93.9319 56.9381 93.9135 56.9292 93.8931C56.9099 93.8528 56.9068 93.8065 56.9207 93.764C56.9345 93.7214 56.9642 93.6858 57.0037 93.6643C57.0241 93.6554 57.0461 93.6506 57.0684 93.6502C57.0907 93.6498 57.1129 93.6537 57.1336 93.6619C57.1544 93.67 57.1733 93.6821 57.1894 93.6976C57.2054 93.713 57.2182 93.7314 57.227 93.7518Z" fill="#E0E0E0"/>
<path d="M58.3775 93.8931C58.3775 93.9806 58.3775 94.0748 58.3437 94.0883C58.3098 94.1017 58.2219 94.0546 58.188 93.9604C58.1542 93.8662 58.188 93.7787 58.188 93.7585C58.188 93.7383 58.3504 93.7989 58.3775 93.8931Z" fill="#E0E0E0"/>
<path d="M56.2457 93.2606C56.2931 93.3481 56.2457 93.4692 56.0901 93.5298C55.9344 93.5903 55.8194 93.5701 55.7788 93.4827C55.7382 93.3952 55.7788 93.274 55.9344 93.2135C56.0901 93.1529 56.2051 93.1731 56.2457 93.2606Z" fill="#E0E0E0"/>
<path d="M54.5199 93.9066C54.5288 93.9264 54.5335 93.9478 54.5339 93.9695C54.5342 93.9912 54.5301 94.0128 54.5219 94.0329C54.5137 94.053 54.5015 94.0712 54.4861 94.0865C54.4706 94.1018 54.4522 94.1139 54.432 94.122C54.3898 94.1299 54.3462 94.1208 54.3107 94.0969C54.2752 94.0729 54.2507 94.036 54.2425 93.9941C54.2267 93.9548 54.2271 93.9109 54.2436 93.8719C54.26 93.8329 54.2912 93.8019 54.3304 93.7855C54.3509 93.7806 54.3722 93.7798 54.3929 93.7833C54.4137 93.7868 54.4336 93.7944 54.4513 93.8057C54.469 93.817 54.4842 93.8318 54.496 93.8492C54.5078 93.8665 54.516 93.886 54.5199 93.9066Z" fill="#E0E0E0"/>
<path d="M54.608 94.842C54.6155 94.8673 54.6158 94.8943 54.6087 94.9197C54.6017 94.9452 54.5876 94.9682 54.568 94.9861C54.5485 95.004 54.5243 95.0161 54.4982 95.021C54.4721 95.026 54.4452 95.0235 54.4204 95.014C54.3956 95.0044 54.374 94.9882 54.3581 94.9671C54.3421 94.946 54.3324 94.9208 54.3301 94.8945C54.3278 94.8682 54.333 94.8418 54.345 94.8182C54.357 94.7947 54.3754 94.7749 54.3982 94.7613C54.4369 94.7452 54.4803 94.7446 54.5194 94.7597C54.5585 94.7747 54.5902 94.8042 54.608 94.842Z" fill="#E0E0E0"/>
<path d="M56.0562 95.4814C56.0749 95.5244 56.0761 95.5728 56.0597 95.6167C56.0434 95.6606 56.0106 95.6965 55.9682 95.7169C55.9251 95.738 55.8753 95.7414 55.8297 95.7263C55.7841 95.7112 55.7463 95.6788 55.7246 95.6362C55.7059 95.5932 55.7046 95.5447 55.721 95.5008C55.7374 95.4569 55.7702 95.421 55.8126 95.4006C55.8337 95.3892 55.857 95.3823 55.881 95.3802C55.905 95.3781 55.9291 95.3809 55.952 95.3885C55.9748 95.3961 55.9958 95.4082 56.0138 95.4242C56.0317 95.4402 56.0461 95.4596 56.0562 95.4814Z" fill="#E0E0E0"/>
<path d="M56.7939 94.694C56.7939 94.7815 56.7397 94.9026 56.5976 94.9632C56.4555 95.0237 56.3066 94.9632 56.2728 94.9026C56.2389 94.842 56.3202 94.694 56.4623 94.6334C56.6044 94.5728 56.7533 94.5998 56.7939 94.694Z" fill="#E0E0E0"/>
<path d="M55.3456 94.9833C55.393 95.0708 55.3862 95.165 55.3456 95.1987C55.305 95.2323 55.2035 95.1987 55.1561 95.1045C55.1088 95.0103 55.1088 94.9295 55.1561 94.8958C55.2035 94.8622 55.2915 94.8891 55.3456 94.9833Z" fill="#E0E0E0"/>
<path d="M57.5248 93.2673C57.5248 93.3547 57.5248 93.449 57.4639 93.4692C57.424 93.4714 57.3846 93.4588 57.3534 93.434C57.3222 93.4092 57.3013 93.3738 57.2947 93.3346C57.2947 93.2403 57.2947 93.1529 57.3556 93.1327C57.4165 93.1125 57.4639 93.173 57.5248 93.2673Z" fill="#E0E0E0"/>
<path d="M48.8555 92.7895C48.8555 93.9604 47.326 94.9026 45.4311 94.9026C43.5361 94.9026 42.0472 93.9604 42.0472 92.7895C42.0472 91.6185 43.5767 90.6763 45.4311 90.6763C47.2854 90.6763 48.8555 91.6252 48.8555 92.7895Z" fill="#FF725E"/>
<path d="M46.5478 93.9066C46.5561 93.9322 46.5592 93.9592 46.5569 93.9861C46.5546 94.0129 46.5469 94.039 46.5343 94.0628C46.5217 94.0867 46.5044 94.1077 46.4835 94.1248C46.4625 94.1419 46.4384 94.1547 46.4124 94.1623C46.3788 94.168 46.3443 94.1641 46.3128 94.1513C46.2813 94.1385 46.254 94.1171 46.2341 94.0897C46.2141 94.0623 46.2022 94.0298 46.1998 93.9961C46.1974 93.9623 46.2045 93.9285 46.2204 93.8985C46.2362 93.8686 46.2602 93.8436 46.2896 93.8265C46.3189 93.8093 46.3525 93.8007 46.3866 93.8015C46.4206 93.8023 46.4538 93.8126 46.4823 93.8312C46.5107 93.8498 46.5334 93.8759 46.5478 93.9066Z" fill="#E0E0E0"/>
<path d="M46.7576 92.9443C46.7783 92.9743 46.7894 93.0099 46.7895 93.0464C46.7896 93.0828 46.7787 93.1185 46.7582 93.1487C46.7376 93.1789 46.7084 93.2023 46.6744 93.2157C46.6403 93.2292 46.603 93.2322 46.5672 93.2243C46.5314 93.2164 46.4988 93.1979 46.4737 93.1714C46.4486 93.1448 46.4321 93.1114 46.4263 93.0754C46.4206 93.0394 46.4259 93.0025 46.4415 92.9695C46.4571 92.9365 46.4824 92.909 46.5139 92.8904C46.5335 92.878 46.5553 92.8695 46.5781 92.8655C46.601 92.8615 46.6244 92.862 46.647 92.867C46.6697 92.872 46.6911 92.8814 46.7101 92.8946C46.729 92.9079 46.7452 92.9248 46.7576 92.9443Z" fill="#E0E0E0"/>
<path d="M47.8809 92.9846C47.8978 92.9996 47.9116 93.0178 47.9214 93.0381C47.9312 93.0584 47.9369 93.0805 47.9382 93.103C47.9394 93.1255 47.9362 93.148 47.9287 93.1692C47.9212 93.1905 47.9096 93.2101 47.8945 93.2269C47.8794 93.2437 47.8611 93.2573 47.8407 93.2671C47.8202 93.2769 47.7981 93.2825 47.7755 93.2838C47.7528 93.285 47.7302 93.2818 47.7088 93.2744C47.6874 93.2669 47.6677 93.2554 47.6508 93.2403C47.6343 93.2241 47.6211 93.2047 47.6121 93.1833C47.6031 93.1619 47.5985 93.139 47.5985 93.1158C47.5985 93.0927 47.6031 93.0698 47.6121 93.0484C47.6211 93.027 47.6343 93.0076 47.6508 92.9913C47.6813 92.9616 47.7219 92.9443 47.7646 92.9431C47.8072 92.9418 47.8488 92.9567 47.8809 92.9846Z" fill="#E0E0E0"/>
<path d="M44.3618 92.4193C44.372 92.4396 44.378 92.4617 44.3795 92.4843C44.3809 92.5069 44.3777 92.5296 44.3702 92.5509C44.3626 92.5723 44.3507 92.5919 44.3353 92.6086C44.3199 92.6253 44.3013 92.6388 44.2805 92.6481C44.2597 92.6584 44.237 92.6645 44.2137 92.6661C44.1905 92.6676 44.1672 92.6645 44.1451 92.657C44.1231 92.6495 44.1028 92.6377 44.0854 92.6223C44.068 92.6069 44.0538 92.5883 44.0437 92.5674C44.025 92.5244 44.0237 92.4759 44.0401 92.4321C44.0565 92.3882 44.0893 92.3523 44.1316 92.3318C44.1739 92.3136 44.2216 92.3125 44.2647 92.3289C44.3077 92.3452 44.3425 92.3777 44.3618 92.4193Z" fill="#E0E0E0"/>
<path d="M46.2296 91.9146C46.2395 91.9371 46.2447 91.9613 46.2449 91.9858C46.2451 92.0103 46.2404 92.0347 46.2309 92.0573C46.2214 92.0799 46.2074 92.1004 46.1897 92.1175C46.1721 92.1347 46.1511 92.148 46.1281 92.1569C46.107 92.1684 46.0838 92.1755 46.0598 92.1777C46.0359 92.1799 46.0117 92.1772 45.9889 92.1698C45.966 92.1624 45.9449 92.1504 45.9269 92.1345C45.9089 92.1187 45.8943 92.0993 45.8841 92.0776C45.8739 92.056 45.8683 92.0325 45.8676 92.0086C45.8669 91.9847 45.8712 91.9609 45.8801 91.9386C45.889 91.9164 45.9024 91.8963 45.9194 91.8794C45.9365 91.8625 45.9568 91.8493 45.9792 91.8406C46.0005 91.8288 46.0239 91.8214 46.0481 91.8188C46.0723 91.8161 46.0968 91.8183 46.1201 91.8252C46.1434 91.8321 46.1651 91.8436 46.1839 91.8589C46.2027 91.8743 46.2183 91.8932 46.2296 91.9146Z" fill="#E0E0E0"/>
<path d="M47.6238 92.0828C47.6438 92.1178 47.6493 92.1591 47.6392 92.1981C47.6291 92.237 47.6041 92.2705 47.5696 92.2915C47.5087 92.2915 47.4275 92.2915 47.3937 92.1636C47.3598 92.0357 47.3937 91.9819 47.4478 91.9617C47.502 91.9415 47.5967 91.9886 47.6238 92.0828Z" fill="#E0E0E0"/>
<path d="M45.0454 91.3157C45.086 91.4032 44.9912 91.531 44.8356 91.6118C44.6799 91.6925 44.5175 91.6724 44.4769 91.6118C44.4363 91.5512 44.5243 91.3964 44.6867 91.3224C44.8491 91.2484 45.0048 91.2282 45.0454 91.3157Z" fill="#E0E0E0"/>
<path d="M42.9542 92.1031C42.9625 92.1246 42.9661 92.1477 42.9647 92.1708C42.9633 92.1939 42.9569 92.2164 42.946 92.2368C42.9351 92.2572 42.9199 92.2751 42.9015 92.2892C42.883 92.3032 42.8618 92.3132 42.8391 92.3184C42.7962 92.3269 42.7516 92.3193 42.714 92.2969C42.6765 92.2745 42.6487 92.239 42.6361 92.1973C42.6236 92.1527 42.6294 92.1049 42.6522 92.0646C42.6751 92.0242 42.7131 91.9945 42.7579 91.9819C42.8 91.9736 42.8436 91.9815 42.8801 92.004C42.9165 92.0265 42.943 92.0619 42.9542 92.1031Z" fill="#E0E0E0"/>
<path d="M43.0624 93.2336C43.085 93.2731 43.0912 93.3197 43.0799 93.3636C43.0685 93.4076 43.0404 93.4454 43.0015 93.4692C42.9611 93.491 42.9136 93.4962 42.8693 93.4836C42.825 93.471 42.7874 93.4417 42.7647 93.4019C42.7421 93.3624 42.7359 93.3158 42.7472 93.2718C42.7586 93.2279 42.7867 93.1901 42.8256 93.1663C42.8661 93.1445 42.9135 93.1393 42.9578 93.1519C43.0021 93.1645 43.0397 93.1938 43.0624 93.2336Z" fill="#E0E0E0"/>
<path d="M44.8152 94.0076C44.8236 94.0323 44.8269 94.0584 44.8249 94.0845C44.823 94.1105 44.8158 94.1359 44.8038 94.1591C44.7918 94.1823 44.7753 94.2029 44.7551 94.2196C44.735 94.2364 44.7117 94.2489 44.6866 94.2566C44.6426 94.2842 44.5894 94.2934 44.5386 94.282C44.4879 94.2706 44.4437 94.2397 44.4159 94.196C44.3984 94.146 44.4014 94.0912 44.4242 94.0434C44.447 93.9955 44.4877 93.9585 44.5377 93.9403C44.5836 93.9129 44.6384 93.9046 44.6904 93.9172C44.7423 93.9298 44.7872 93.9623 44.8152 94.0076Z" fill="#E0E0E0"/>
<path d="M45.7018 93.0519C45.7424 93.1394 45.6273 93.2673 45.4581 93.3413C45.2889 93.4153 45.113 93.3952 45.0724 93.3413C45.0318 93.2875 45.1468 93.1192 45.3228 93.0519C45.4987 92.9847 45.6679 92.9577 45.7018 93.0519Z" fill="#E0E0E0"/>
<path d="M43.949 93.4086C43.9775 93.4386 43.9935 93.4783 43.9935 93.5196C43.9935 93.5609 43.9775 93.6007 43.949 93.6307C43.9295 93.6397 43.9083 93.6447 43.8868 93.6455C43.8653 93.6463 43.8439 93.6428 43.8237 93.6353C43.8036 93.6278 43.7851 93.6164 43.7694 93.6017C43.7538 93.5871 43.7412 93.5694 43.7324 93.5499C43.7194 93.5333 43.71 93.5143 43.7046 93.4939C43.6993 93.4736 43.6982 93.4524 43.7013 93.4316C43.7045 93.4109 43.7119 93.3909 43.7231 93.3731C43.7342 93.3552 43.7489 93.3398 43.7663 93.3278C43.8014 93.3191 43.8385 93.3223 43.8716 93.3369C43.9047 93.3516 43.9319 93.3768 43.949 93.4086Z" fill="#E0E0E0"/>
<path d="M46.5477 91.3224C46.5564 91.3417 46.5611 91.3626 46.5613 91.3839C46.5616 91.4051 46.5575 91.4261 46.5492 91.4457C46.541 91.4652 46.5288 91.4829 46.5134 91.4976C46.498 91.5123 46.4797 91.5236 46.4597 91.531C46.3852 91.531 46.304 91.531 46.2702 91.4031C46.2562 91.3637 46.2574 91.3205 46.2737 91.2819C46.2899 91.2433 46.3201 91.2122 46.3582 91.1945C46.4003 91.1866 46.4439 91.1956 46.4794 91.2196C46.5149 91.2435 46.5395 91.2805 46.5477 91.3224Z" fill="#E0E0E0"/>
<path d="M35.0022 101.027L43.5294 114.984L50.8249 119.951C53.0662 121.514 55.386 122.963 57.7753 124.291C60.8951 125.947 65.6798 128.329 65.6798 128.329L78.2609 117.165C78.2609 117.165 70.1397 106.101 68.9012 104.654C67.6628 103.207 53.8297 97.0023 53.8297 97.0023C53.8297 97.0023 52.1649 97.7223 53.7214 100.105C55.2414 102.185 56.9106 104.153 58.716 105.993L61.7276 107.238L57.1526 106.33L50.8249 101.269C50.8249 101.269 47.793 97.3387 46.1349 98.3684C44.4769 99.398 44.3618 100.643 45.1942 102.198C46.0267 103.752 48.8352 106.646 48.8352 106.646L54.8178 111.902L51.928 110.953C51.928 110.953 42.7782 101.027 41.2149 100.717C39.6516 100.408 39.0289 100.818 39.0289 100.818C39.0289 100.818 36.7753 97.8233 35.0022 101.027Z" fill="#FFBE9D"/>
<path d="M57.6128 118.329C56.3655 118.066 55.1447 117.692 53.965 117.212C52.8484 116.821 51.5287 116.35 50.0736 115.798L47.793 114.917C47.4004 114.755 46.9944 114.601 46.5951 114.419C46.3921 114.338 46.189 114.237 45.9792 114.143C45.7657 114.016 45.5832 113.844 45.4446 113.638C43.2586 110.771 41.5397 108.026 40.3012 106.027C39.6921 105.024 39.2116 104.196 38.9071 103.618C38.7296 103.326 38.5822 103.017 38.4672 102.696C38.6733 102.966 38.8588 103.252 39.0221 103.55L40.511 105.892C41.7968 107.851 43.5564 110.603 45.7221 113.423C45.8574 113.591 45.9995 113.779 46.1484 113.827C46.2973 113.874 46.5342 114.015 46.7372 114.103L47.9215 114.6L50.1887 115.496L54.0462 116.976L56.6585 117.965C57.2744 118.201 57.6128 118.309 57.6128 118.329Z" fill="#EB996E"/>
<path d="M62.2621 113.605C60.9584 113.629 59.659 113.449 58.4113 113.073C57.1442 112.798 55.9101 112.389 54.7297 111.855C56.0052 112.059 57.2648 112.351 58.4993 112.73C60.5296 113.261 62.2621 113.51 62.2621 113.605Z" fill="#EB996E"/>
<path d="M69.0298 108.389C68.5472 108.44 68.0598 108.424 67.5815 108.342C66.6882 108.261 65.4633 108.086 64.1233 107.837C62.7833 107.588 61.5787 107.312 60.7395 107.11C60.2592 107.036 59.7906 106.9 59.3453 106.707C60.9838 106.852 62.6099 107.113 64.2113 107.487C65.5648 107.743 66.7627 107.952 67.6357 108.1C68.1102 108.142 68.5781 108.239 69.0298 108.389Z" fill="#EB996E"/>
<path d="M63.3721 126.997C63.3721 126.997 85.7052 169.434 88.683 173.492C91.8705 177.873 94.7739 180.565 102.55 179.899C110.197 179.226 117.648 176.029 118.549 163.674C119.002 157.462 119.469 128.322 119.469 128.322H96.6891V138.828L77.2186 115.751L63.3721 126.997Z" fill="#FFBE9D"/>
<path d="M111.497 164.878C111.426 164.482 111.378 164.082 111.355 163.68C111.226 162.593 111.034 161.515 110.779 160.45C109.884 156.953 108.433 153.62 106.482 150.578C104.48 147.566 102.193 144.752 99.6533 142.172C98.7058 141.149 97.9411 140.322 97.4267 139.736C97.1966 139.467 97.0072 139.238 96.8447 139.063C96.6823 138.888 96.6485 138.814 96.662 138.807C96.9721 139.065 97.2617 139.346 97.5283 139.649L99.836 142.011C102.446 144.553 104.774 147.366 106.78 150.403C108.748 153.479 110.172 156.868 110.989 160.423C111.229 161.5 111.388 162.593 111.463 163.694C111.463 164.077 111.463 164.367 111.463 164.589C111.488 164.683 111.499 164.781 111.497 164.878Z" fill="#EB996E"/>
</svg>
