<svg width="84" height="28" viewBox="0 0 84 28" fill="none" xmlns="http://www.w3.org/2000/svg">
<path d="M12.9738 7.74796C13.0488 21.0225 13.0263 22.0738 12.6588 23.2311C12.3288 24.3996 11.6813 25.4517 10.7895 26.2684C9.89765 27.085 8.79713 27.6338 7.61231 27.8526C5.75091 28.2065 3.82559 27.9188 2.14587 27.0357C0.766133 26.2793 1.441 22.9891 3.14317 23.2538C4.68788 23.8286 8.34717 24.6455 8.96955 21.6503C9.10015 20.2702 9.13523 18.8827 9.07453 17.4977C8.5537 18.1033 7.87954 18.5548 7.12408 18.8039C6.36862 19.0531 5.56026 19.0905 4.78536 18.9122C0.68365 18.0499 -0.25367 14.0562 0.0537709 10.1911C0.136255 9.29855 0.241235 8.40602 0.346214 7.56643C0.436996 7.32851 0.605064 7.12867 0.822973 6.99953C1.04088 6.8704 1.29576 6.8196 1.54598 6.85543C2.4908 6.90838 4.34294 6.90838 4.32045 7.67233C4.18547 9.35149 3.79555 11.1895 4.058 12.967C4.5829 17.5053 9.02204 15.2815 9.17951 11.6282C9.232 9.44982 9.28449 8.00513 9.28449 8.00513C9.28449 8.00513 9.17951 6.85543 10.1243 6.81005C11.0691 6.76467 12.9213 6.56801 12.9738 7.74796Z" fill="#27B04B"/>
<path d="M27.401 20.4249C27.401 20.4249 27.401 21.1813 26.1487 21.3931C24.8965 21.6049 23.5842 21.6351 23.2768 20.6367C17.9153 23.3673 14.9084 18.5869 14.8559 13.9881C14.7962 11.9109 14.9978 9.83451 15.4558 7.80847C15.4806 7.55166 15.6029 7.3145 15.7972 7.14669C15.9916 6.97889 16.2427 6.89348 16.4981 6.90838C17.4654 6.99158 19.2951 7.08991 19.2126 8.06564C18.9199 9.64749 18.7643 11.252 18.7477 12.8611C18.7477 17.4826 21.1772 18.7685 22.5644 15.9623C23.8692 13.3074 23.5542 10.3877 23.8692 7.44541C23.8692 7.44541 23.9517 6.81761 24.9415 6.87056C25.9313 6.92351 27.7159 6.97645 27.7159 7.62694C27.3859 11.8843 27.2808 16.1563 27.401 20.4249Z" fill="#27B04B"/>
<path d="M50.6765 10.5088C51.4264 13.3754 51.2239 16.8699 51.0139 20.1526C50.9614 21.2872 50.3091 21.4914 49.3643 21.5444C48.1345 21.5444 46.6498 21.5444 46.5448 19.8123C46.3873 17.4448 47.0697 15.0319 46.6723 12.5359C46.0424 8.56486 42.6231 9.72212 42.0982 15.0546C41.9442 16.5875 41.9091 18.1302 41.9932 19.6685C42.1956 21.03 40.7334 21.325 39.7436 21.325C38.4089 21.325 37.7865 20.4552 37.6515 19.0559C37.6212 17.7923 37.6838 16.5282 37.839 15.274C38.3339 10.123 34.0897 8.8069 33.6773 16.5901L33.7598 20.372C33.7598 20.372 33.7073 21.2191 32.53 21.3704C31.3527 21.5217 29.7855 21.5595 29.5306 20.4022C29.4331 19.7744 29.6356 7.83873 29.7705 7.15799C29.7705 7.15799 29.6656 6.55288 30.6029 6.49993C31.5402 6.44699 33.3773 6.3184 33.4523 6.9462V8.65562C35.7769 6.62852 38.8888 6.28815 41.0334 8.96574C43.9053 5.3578 49.4167 5.38805 50.6765 10.5088Z" fill="#27B04B"/>
<path d="M74.3869 10.5088C75.1368 13.3754 74.9343 16.8699 74.7319 20.1526C74.6794 21.2872 73.982 21.4914 73.0822 21.5444C71.8524 21.5444 70.3602 21.5444 70.2552 19.8123C70.1052 17.4448 70.7801 15.0319 70.3902 12.5359C69.7603 8.56486 66.3335 9.72212 65.8161 15.0546C65.6657 16.5879 65.6381 18.1308 65.7336 19.6685C65.9436 21.03 64.4813 21.325 63.484 21.325C62.1493 21.325 61.5194 20.4552 61.3919 19.0559C61.3628 17.7925 61.4229 16.5287 61.5719 15.274C62.0743 10.123 57.8226 8.8069 57.4177 16.5901L57.4927 20.372C57.4927 20.372 57.4402 21.2191 56.2704 21.3704C55.1006 21.5217 53.5185 21.5595 53.271 20.4022C53.166 19.7744 53.376 7.83873 53.5035 7.15799C53.5035 7.15799 53.3985 6.55288 54.3433 6.49993C55.2881 6.44699 57.1178 6.3184 57.1927 6.9462V8.65562C59.5173 6.62852 62.6292 6.28815 64.7738 8.96574C67.6157 5.3578 73.1347 5.38805 74.3869 10.5088Z" fill="#27B04B"/>
<path d="M81.2181 20.493C81.2181 20.493 81.1656 21.204 79.9583 21.3855C78.7511 21.5671 77.2439 21.5973 77.0339 20.6292C76.9153 18.6477 76.9504 16.6599 77.1389 14.684C77.2664 12.0064 77.5288 9.45739 77.5288 9.45739C77.5288 9.45739 77.4463 8.93548 78.3911 8.95818C79.336 8.98087 81.1656 8.90523 81.1881 9.45739C81.1131 13.1637 81.1131 16.8397 81.2181 20.493Z" fill="#27B04B"/>
<path d="M83.985 2.46842C83.8711 3.41851 83.3951 4.28658 82.6578 4.88884C81.7447 5.79258 80.7392 6.5963 79.6584 7.28657C79.5565 7.34382 79.4443 7.37983 79.3284 7.39247C79.2638 7.40243 79.1981 7.40243 79.1335 7.39247C78.1602 6.79168 77.4195 5.87373 77.0339 4.79051C76.6897 4.07876 76.4763 3.30994 76.404 2.52137C76.3944 2.1263 76.4221 1.73121 76.4865 1.34141C76.5694 0.97476 76.7689 0.645508 77.0545 0.403813C77.3402 0.162118 77.6963 0.0212303 78.0687 0.00261332C78.2242 -0.00827548 78.3803 0.0149483 78.5261 0.0706877C78.9002 0.251567 79.224 0.523069 79.4687 0.860951C79.7133 1.19883 79.8713 1.59258 79.9283 2.00703C80.5974 1.28511 81.5089 0.840227 82.4853 0.758995C82.855 0.731876 83.2203 0.853509 83.5013 1.0973C83.7824 1.34109 83.9563 1.68721 83.985 2.05997C84.005 2.19538 84.005 2.33301 83.985 2.46842Z" fill="#FF005C"/>
</svg>
